<?xml version="1.0" encoding="utf-8"?>
<!-- Generator: Adobe Illustrator 27.5.0, SVG Export Plug-In . SVG Version: 6.00 Build 0)  -->
<svg version="1.1" id="Capa_1" xmlns="http://www.w3.org/2000/svg" xmlns:xlink="http://www.w3.org/1999/xlink" x="0px" y="0px"
	 viewBox="0 0 2122 2122" style="enable-background:new 0 0 2122 2122;" xml:space="preserve">
<g>
	<g>
		<rect x="-0.008" y="0.008" style="fill:#FFFFFF;" width="2121.309" height="2121.32"/>
		<g>
			<defs>
				<circle id="SVGID_1_" cx="1060.646" cy="1060.672" r="927.959"/>
			</defs>
			<clipPath id="SVGID_00000029730069903683924850000001624232536721966998_">
				<use xlink:href="#SVGID_1_"  style="overflow:visible;"/>
			</clipPath>
			<g style="clip-path:url(#SVGID_00000029730069903683924850000001624232536721966998_);">
				<rect x="-0.008" y="-8.269" style="fill:#9CDAE7;" width="2121.309" height="2137.883"/>
				<path style="fill:#71B969;" d="M-0.008,1447.453c0,0,619.117-179.605,745.508-159.652
					c126.383,19.957,432.379,176.285,512.203,202.887c79.824,26.609,792.59-259.43,863.598-232.82v462.324L-0.008,1753.449V1447.453
					z"/>
				<g>
					<path style="fill:#62A253;" d="M1961.32,1288.613c46.043,19.438,103.816,48.934,159.98,94.945v-125.691
						C2103.078,1251.039,2042.539,1264.824,1961.32,1288.613z"/>
					<path style="fill:#62A253;" d="M1257.703,1490.688c-79.824-26.602-385.82-182.93-512.203-202.887
						c-45.281-7.148-153.793,11.316-274.426,37.957c82.523,11.992,149.895,48.039,194.582,65.137
						c156.414,59.871,322.629,262.754,369.187,256.109c29.816-4.258,212.316-105.598,358.109-178.66
						C1325.582,1486.836,1275.641,1496.668,1257.703,1490.688z"/>
					<g>
						<g>
							<g>
								<g>
									<g>
										<polygon style="fill:#77471C;" points="1488.895,1677.805 1446.672,1677.805 1446.672,1504.777 1463.414,1479.297 
											1471.91,1479.297 1488.895,1504.777 										"/>
										<polygon style="fill:#9E6735;" points="1494.719,1677.805 1452.488,1677.805 1452.488,1504.777 1469.238,1479.297 
											1477.727,1479.297 1494.719,1504.777 										"/>
										<path style="fill:#66B2BF;" d="M1487.754,1508.41c0,1.93-1.57,3.5-3.5,3.5s-3.488-1.57-3.488-3.5s1.559-3.496,3.488-3.496
											S1487.754,1506.48,1487.754,1508.41z"/>
										<path style="fill:#66B2BF;" d="M1469.844,1508.41c0,1.93-1.57,3.5-3.5,3.5s-3.488-1.57-3.488-3.5s1.559-3.496,3.488-3.496
											S1469.844,1506.48,1469.844,1508.41z"/>
									</g>
									<g>
										<rect x="1388.188" y="1552.824" style="fill:#5F3413;" width="61.633" height="25.727"/>
										<rect x="1388.188" y="1548.703" style="fill:#865428;" width="61.633" height="25.715"/>
									</g>
									<g>
										<rect x="1388.188" y="1612.52" style="fill:#5F3413;" width="61.633" height="25.723"/>
										<rect x="1388.188" y="1608.395" style="fill:#865428;" width="61.633" height="25.727"/>
									</g>
									<g>
										<polygon style="fill:#77471C;" points="1399.109,1677.805 1356.879,1677.805 1356.879,1504.777 1373.621,1479.297 
											1382.117,1479.297 1399.109,1504.777 										"/>
										<polygon style="fill:#9E6735;" points="1404.926,1677.805 1362.707,1677.805 1362.707,1504.777 1379.445,1479.297 
											1387.945,1479.297 1404.926,1504.777 										"/>
										<path style="fill:#66B2BF;" d="M1397.961,1508.41c0,1.93-1.559,3.5-3.488,3.5s-3.5-1.57-3.5-3.5s1.57-3.488,3.5-3.488
											S1397.961,1506.48,1397.961,1508.41z"/>
										<path style="fill:#66B2BF;" d="M1380.051,1508.41c0,1.93-1.559,3.5-3.488,3.5s-3.5-1.57-3.5-3.5s1.57-3.488,3.5-3.488
											S1380.051,1506.48,1380.051,1508.41z"/>
									</g>
									<g>
										<rect x="1298.395" y="1552.824" style="fill:#5F3413;" width="61.641" height="25.727"/>
										<rect x="1298.395" y="1548.703" style="fill:#865428;" width="61.641" height="25.715"/>
									</g>
									<g>
										<rect x="1298.395" y="1612.52" style="fill:#5F3413;" width="61.641" height="25.723"/>
										<rect x="1298.395" y="1608.395" style="fill:#865428;" width="61.641" height="25.727"/>
									</g>
								</g>
								<g>
									<g>
										<polygon style="fill:#77471C;" points="1309.316,1677.805 1267.098,1677.805 1267.098,1504.777 1283.836,1479.297 
											1292.332,1479.297 1309.316,1504.777 										"/>
										<polygon style="fill:#9E6735;" points="1315.145,1677.805 1272.914,1677.805 1272.914,1504.777 1289.664,1479.297 
											1298.152,1479.297 1315.145,1504.777 										"/>
										<path style="fill:#66B2BF;" d="M1308.176,1508.41c0,1.93-1.559,3.5-3.496,3.5c-1.93,0-3.488-1.57-3.488-3.5
											s1.559-3.488,3.488-3.488C1306.617,1504.922,1308.176,1506.48,1308.176,1508.41z"/>
										<path style="fill:#66B2BF;" d="M1290.27,1508.41c0,1.93-1.57,3.5-3.5,3.5s-3.488-1.57-3.488-3.5s1.559-3.488,3.488-3.488
											S1290.27,1506.48,1290.27,1508.41z"/>
									</g>
									<g>
										<rect x="1208.613" y="1552.824" style="fill:#5F3413;" width="61.629" height="25.727"/>
										<rect x="1208.613" y="1548.703" style="fill:#865428;" width="61.629" height="25.715"/>
									</g>
									<g>
										<rect x="1208.613" y="1612.52" style="fill:#5F3413;" width="61.629" height="25.723"/>
										<rect x="1208.613" y="1608.395" style="fill:#865428;" width="61.629" height="25.727"/>
									</g>
									<g>
										<polygon style="fill:#77471C;" points="1219.535,1677.805 1177.305,1677.805 1177.305,1504.777 1194.055,1479.297 
											1202.543,1479.297 1219.535,1504.777 										"/>
										<polygon style="fill:#9E6735;" points="1225.352,1677.805 1183.129,1677.805 1183.129,1504.777 1199.871,1479.297 
											1208.367,1479.297 1225.352,1504.777 										"/>
										<path style="fill:#66B2BF;" d="M1218.395,1508.41c0,1.93-1.57,3.5-3.496,3.5c-1.93,0-3.5-1.57-3.5-3.5
											s1.57-3.488,3.5-3.488C1216.824,1504.922,1218.395,1506.48,1218.395,1508.41z"/>
										<path style="fill:#66B2BF;" d="M1200.484,1508.41c0,1.93-1.566,3.5-3.496,3.5s-3.5-1.57-3.5-3.5s1.57-3.488,3.5-3.488
											S1200.484,1506.48,1200.484,1508.41z"/>
									</g>
									<g>
										<rect x="1118.82" y="1552.824" style="fill:#5F3413;" width="61.641" height="25.727"/>
										<rect x="1118.82" y="1548.703" style="fill:#865428;" width="61.641" height="25.723"/>
									</g>
									<g>
										<rect x="1118.82" y="1612.52" style="fill:#5F3413;" width="61.641" height="25.723"/>
										<rect x="1118.82" y="1608.395" style="fill:#865428;" width="61.641" height="25.727"/>
									</g>
								</g>
							</g>
							<g>
								<g>
									<g>
										<polygon style="fill:#77471C;" points="1129.742,1677.805 1087.52,1677.805 1087.52,1504.777 1104.262,1479.297 
											1112.758,1479.297 1129.742,1504.777 										"/>
										<polygon style="fill:#9E6735;" points="1135.57,1677.805 1093.348,1677.805 1093.348,1504.777 1110.09,1479.297 
											1118.586,1479.297 1135.57,1504.777 										"/>
										<path style="fill:#66B2BF;" d="M1128.602,1508.41c0,1.93-1.559,3.5-3.496,3.5c-1.922,0-3.488-1.57-3.488-3.5
											s1.566-3.496,3.488-3.496C1127.043,1504.914,1128.602,1506.48,1128.602,1508.41z"/>
										<path style="fill:#66B2BF;" d="M1110.691,1508.41c0,1.93-1.566,3.5-3.496,3.5s-3.488-1.57-3.488-3.5
											s1.559-3.496,3.488-3.496S1110.691,1506.48,1110.691,1508.41z"/>
									</g>
									<g>
										<rect x="1029.035" y="1552.824" style="fill:#5F3413;" width="61.645" height="25.727"/>
										<rect x="1029.035" y="1548.691" style="fill:#865428;" width="61.645" height="25.727"/>
									</g>
									<g>
										<rect x="1029.035" y="1612.52" style="fill:#5F3413;" width="61.645" height="25.723"/>
										<rect x="1029.035" y="1608.395" style="fill:#865428;" width="61.645" height="25.727"/>
									</g>
									<g>
										<polygon style="fill:#77471C;" points="1039.961,1677.805 997.727,1677.805 997.727,1504.777 1014.477,1479.297 
											1022.965,1479.297 1039.961,1504.777 										"/>
										<polygon style="fill:#9E6735;" points="1045.777,1677.805 1003.555,1677.805 1003.555,1504.777 1020.297,1479.297 
											1028.793,1479.297 1045.777,1504.777 										"/>
										<path style="fill:#66B2BF;" d="M1038.82,1508.41c0,1.93-1.57,3.5-3.5,3.5s-3.496-1.57-3.496-3.5s1.566-3.496,3.496-3.496
											S1038.82,1506.48,1038.82,1508.41z"/>
										<path style="fill:#66B2BF;" d="M1020.91,1508.41c0,1.93-1.57,3.5-3.5,3.5c-1.93,0-3.496-1.57-3.496-3.5
											s1.566-3.496,3.496-3.496C1019.34,1504.914,1020.91,1506.48,1020.91,1508.41z"/>
									</g>
									<g>
										<rect x="939.254" y="1552.824" style="fill:#5F3413;" width="61.633" height="25.727"/>
										<rect x="939.254" y="1548.703" style="fill:#865428;" width="61.633" height="25.715"/>
									</g>
									<g>
										<rect x="939.254" y="1612.52" style="fill:#5F3413;" width="61.633" height="25.723"/>
										<rect x="939.254" y="1608.395" style="fill:#865428;" width="61.633" height="25.727"/>
									</g>
								</g>
								<g>
									<g>
										<polygon style="fill:#77471C;" points="950.168,1677.805 907.945,1677.805 907.945,1504.777 924.688,1479.297 
											933.184,1479.297 950.168,1504.777 										"/>
										<polygon style="fill:#9E6735;" points="955.992,1677.805 913.773,1677.805 913.773,1504.777 930.512,1479.297 
											939.008,1479.297 955.992,1504.777 										"/>
										<path style="fill:#66B2BF;" d="M949.027,1508.41c0,1.93-1.559,3.5-3.488,3.5s-3.5-1.57-3.5-3.5s1.57-3.496,3.5-3.496
											S949.027,1506.48,949.027,1508.41z"/>
										<path style="fill:#66B2BF;" d="M931.117,1508.41c0,1.93-1.559,3.5-3.488,3.5c-1.93,0-3.5-1.57-3.5-3.5
											s1.57-3.496,3.5-3.496C929.559,1504.914,931.117,1506.48,931.117,1508.41z"/>
									</g>
									<g>
										<rect x="849.461" y="1552.824" style="fill:#5F3413;" width="61.641" height="25.727"/>
										<rect x="849.461" y="1548.703" style="fill:#865428;" width="61.641" height="25.715"/>
									</g>
									<g>
										<rect x="849.461" y="1612.52" style="fill:#5F3413;" width="61.641" height="25.723"/>
										<rect x="849.461" y="1608.395" style="fill:#865428;" width="61.641" height="25.727"/>
									</g>
									<g>
										<polygon style="fill:#77471C;" points="860.383,1677.805 818.164,1677.805 818.164,1504.777 834.902,1479.297 
											843.391,1479.297 860.383,1504.777 										"/>
										<polygon style="fill:#9E6735;" points="866.211,1677.805 823.98,1677.805 823.98,1504.777 840.73,1479.297 
											849.219,1479.297 866.211,1504.777 										"/>
										<path style="fill:#66B2BF;" d="M859.242,1508.41c0,1.93-1.566,3.5-3.496,3.5s-3.488-1.57-3.488-3.5
											s1.559-3.488,3.488-3.488S859.242,1506.48,859.242,1508.41z"/>
										<path style="fill:#66B2BF;" d="M841.336,1508.41c0,1.93-1.57,3.5-3.5,3.5c-1.93,0-3.488-1.57-3.488-3.5
											s1.559-3.488,3.488-3.488C839.766,1504.922,841.336,1506.48,841.336,1508.41z"/>
									</g>
									<g>
										<rect x="759.68" y="1552.824" style="fill:#5F3413;" width="61.629" height="25.727"/>
										<rect x="759.68" y="1548.703" style="fill:#865428;" width="61.629" height="25.715"/>
									</g>
									<g>
										<rect x="759.68" y="1612.52" style="fill:#5F3413;" width="61.629" height="25.723"/>
										<rect x="759.68" y="1608.395" style="fill:#865428;" width="61.629" height="25.727"/>
									</g>
								</g>
							</g>
						</g>
						<g>
							<g>
								<g>
									<g>
										<polygon style="fill:#77471C;" points="770.484,1677.805 728.262,1677.805 728.262,1504.777 745.004,1479.297 
											753.5,1479.297 770.484,1504.777 										"/>
										<polygon style="fill:#9E6735;" points="776.313,1677.805 734.09,1677.805 734.09,1504.777 750.828,1479.297 
											759.328,1479.297 776.313,1504.777 										"/>
										<path style="fill:#66B2BF;" d="M769.344,1508.41c0,1.93-1.559,3.5-3.488,3.5s-3.5-1.57-3.5-3.5s1.57-3.496,3.5-3.496
											S769.344,1506.48,769.344,1508.41z"/>
										<path style="fill:#66B2BF;" d="M751.434,1508.41c0,1.93-1.559,3.5-3.488,3.5c-1.93,0-3.496-1.57-3.496-3.5
											s1.566-3.496,3.496-3.496C749.875,1504.914,751.434,1506.48,751.434,1508.41z"/>
									</g>
									<g>
										<rect x="669.777" y="1552.824" style="fill:#5F3413;" width="61.641" height="25.727"/>
										<rect x="669.777" y="1548.703" style="fill:#865428;" width="61.641" height="25.715"/>
									</g>
									<g>
										<rect x="669.777" y="1612.52" style="fill:#5F3413;" width="61.641" height="25.723"/>
										<rect x="669.777" y="1608.395" style="fill:#865428;" width="61.641" height="25.727"/>
									</g>
									<g>
										<polygon style="fill:#77471C;" points="680.699,1677.805 638.48,1677.805 638.48,1504.777 655.219,1479.297 
											663.719,1479.297 680.699,1504.777 										"/>
										<polygon style="fill:#9E6735;" points="686.527,1677.805 644.297,1677.805 644.297,1504.777 661.047,1479.297 
											669.535,1479.297 686.527,1504.777 										"/>
										<path style="fill:#66B2BF;" d="M679.563,1508.41c0,1.93-1.57,3.5-3.5,3.5s-3.488-1.57-3.488-3.5s1.559-3.488,3.488-3.488
											S679.563,1506.48,679.563,1508.41z"/>
										<path style="fill:#66B2BF;" d="M661.652,1508.41c0,1.93-1.57,3.5-3.5,3.5c-1.93,0-3.488-1.57-3.488-3.5
											s1.559-3.488,3.488-3.488C660.082,1504.922,661.652,1506.48,661.652,1508.41z"/>
									</g>
									<g>
										<rect x="579.996" y="1552.824" style="fill:#5F3413;" width="61.633" height="25.727"/>
										<rect x="579.996" y="1548.703" style="fill:#865428;" width="61.633" height="25.715"/>
									</g>
									<g>
										<rect x="579.996" y="1612.52" style="fill:#5F3413;" width="61.633" height="25.723"/>
										<rect x="579.996" y="1608.395" style="fill:#865428;" width="61.633" height="25.727"/>
									</g>
								</g>
								<g>
									<g>
										<polygon style="fill:#77471C;" points="590.918,1677.805 548.688,1677.805 548.688,1504.777 565.438,1479.297 
											573.926,1479.297 590.918,1504.777 										"/>
										<polygon style="fill:#9E6735;" points="596.734,1677.805 554.516,1677.805 554.516,1504.777 571.254,1479.297 
											579.75,1479.297 596.734,1504.777 										"/>
										<path style="fill:#66B2BF;" d="M589.777,1508.41c0,1.93-1.566,3.5-3.496,3.5c-1.93,0-3.5-1.57-3.5-3.5
											s1.57-3.488,3.5-3.488C588.211,1504.922,589.777,1506.48,589.777,1508.41z"/>
										<path style="fill:#66B2BF;" d="M571.867,1508.41c0,1.93-1.566,3.5-3.496,3.5s-3.5-1.57-3.5-3.5s1.57-3.488,3.5-3.488
											S571.867,1506.48,571.867,1508.41z"/>
									</g>
									<g>
										<rect x="490.203" y="1552.824" style="fill:#5F3413;" width="61.641" height="25.727"/>
										<rect x="490.203" y="1548.703" style="fill:#865428;" width="61.641" height="25.715"/>
									</g>
									<g>
										<rect x="490.203" y="1612.52" style="fill:#5F3413;" width="61.641" height="25.723"/>
										<rect x="490.203" y="1608.395" style="fill:#865428;" width="61.641" height="25.727"/>
									</g>
									<g>
										<polygon style="fill:#77471C;" points="501.125,1677.805 458.902,1677.805 458.902,1504.777 475.645,1479.297 
											484.141,1479.297 501.125,1504.777 										"/>
										<polygon style="fill:#9E6735;" points="506.953,1677.805 464.73,1677.805 464.73,1504.777 481.473,1479.297 
											489.957,1479.297 506.953,1504.777 										"/>
										<path style="fill:#66B2BF;" d="M499.984,1508.41c0,1.93-1.559,3.5-3.496,3.5c-1.93,0-3.488-1.57-3.488-3.5
											s1.559-3.488,3.488-3.488C498.426,1504.922,499.984,1506.48,499.984,1508.41z"/>
										<path style="fill:#66B2BF;" d="M482.074,1508.41c0,1.93-1.566,3.5-3.496,3.5c-1.93,0-3.488-1.57-3.488-3.5
											s1.559-3.488,3.488-3.488C480.508,1504.922,482.074,1506.48,482.074,1508.41z"/>
									</g>
									<g>
										<rect x="400.418" y="1552.824" style="fill:#5F3413;" width="61.644" height="25.727"/>
										<rect x="400.418" y="1548.703" style="fill:#865428;" width="61.644" height="25.723"/>
									</g>
									<g>
										<rect x="400.418" y="1612.52" style="fill:#5F3413;" width="61.644" height="25.723"/>
										<rect x="400.418" y="1608.395" style="fill:#865428;" width="61.644" height="25.727"/>
									</g>
								</g>
							</g>
							<g>
								<g>
									<g>
										<polygon style="fill:#77471C;" points="411.344,1677.805 369.113,1677.805 369.113,1504.777 385.863,1479.297 
											394.348,1479.297 411.344,1504.777 										"/>
										<polygon style="fill:#9E6735;" points="417.16,1677.805 374.938,1677.805 374.938,1504.777 391.68,1479.297 
											400.176,1479.297 417.16,1504.777 										"/>
										<path style="fill:#66B2BF;" d="M410.203,1508.41c0,1.93-1.57,3.5-3.5,3.5c-1.93,0-3.496-1.57-3.496-3.5
											s1.566-3.496,3.496-3.496C408.633,1504.914,410.203,1506.48,410.203,1508.41z"/>
										<path style="fill:#66B2BF;" d="M392.293,1508.41c0,1.93-1.57,3.5-3.5,3.5c-1.926,0-3.496-1.57-3.496-3.5
											s1.57-3.496,3.496-3.496C390.723,1504.914,392.293,1506.48,392.293,1508.41z"/>
									</g>
									<g>
										<rect x="310.625" y="1552.824" style="fill:#5F3413;" width="61.644" height="25.727"/>
										<rect x="310.625" y="1548.691" style="fill:#865428;" width="61.644" height="25.727"/>
									</g>
									<g>
										<rect x="310.625" y="1612.52" style="fill:#5F3413;" width="61.644" height="25.723"/>
										<rect x="310.625" y="1608.395" style="fill:#865428;" width="61.644" height="25.727"/>
									</g>
									<g>
										<polygon style="fill:#77471C;" points="321.551,1677.805 279.328,1677.805 279.328,1504.777 296.07,1479.297 
											304.566,1479.297 321.551,1504.777 										"/>
										<polygon style="fill:#9E6735;" points="327.379,1677.805 285.156,1677.805 285.156,1504.777 301.895,1479.297 
											310.395,1479.297 327.379,1504.777 										"/>
										<path style="fill:#66B2BF;" d="M320.41,1508.41c0,1.93-1.559,3.5-3.5,3.5c-1.918,0-3.488-1.57-3.488-3.5
											s1.57-3.496,3.488-3.496C318.852,1504.914,320.41,1506.48,320.41,1508.41z"/>
										<path style="fill:#66B2BF;" d="M302.5,1508.41c0,1.93-1.559,3.5-3.488,3.5c-1.938,0-3.496-1.57-3.496-3.5
											s1.559-3.496,3.496-3.496C300.941,1504.914,302.5,1506.48,302.5,1508.41z"/>
									</g>
									<g>
										<rect x="220.844" y="1552.824" style="fill:#5F3413;" width="61.641" height="25.727"/>
										<rect x="220.844" y="1548.703" style="fill:#865428;" width="61.641" height="25.715"/>
									</g>
									<g>
										<rect x="220.844" y="1612.52" style="fill:#5F3413;" width="61.641" height="25.723"/>
										<rect x="220.844" y="1608.395" style="fill:#865428;" width="61.641" height="25.727"/>
									</g>
								</g>
								<g>
									<g>
										<polygon style="fill:#77471C;" points="231.766,1677.805 189.535,1677.805 189.535,1504.777 206.285,1479.297 
											214.773,1479.297 231.766,1504.777 										"/>
										<polygon style="fill:#9E6735;" points="237.594,1677.805 195.363,1677.805 195.363,1504.777 212.102,1479.297 
											220.602,1479.297 237.594,1504.777 										"/>
										<path style="fill:#66B2BF;" d="M230.629,1508.41c0,1.93-1.57,3.5-3.5,3.5s-3.488-1.57-3.488-3.5s1.559-3.496,3.488-3.496
											S230.629,1506.48,230.629,1508.41z"/>
										<path style="fill:#66B2BF;" d="M212.719,1508.41c0,1.93-1.57,3.5-3.5,3.5c-1.93,0-3.488-1.57-3.488-3.5
											s1.559-3.496,3.488-3.496C211.148,1504.914,212.719,1506.48,212.719,1508.41z"/>
									</g>
									<g>
										<rect x="131.063" y="1552.824" style="fill:#5F3413;" width="61.629" height="25.727"/>
										<rect x="131.063" y="1548.703" style="fill:#865428;" width="61.629" height="25.715"/>
									</g>
									<g>
										<rect x="131.063" y="1612.52" style="fill:#5F3413;" width="61.629" height="25.723"/>
										<rect x="131.063" y="1608.395" style="fill:#865428;" width="61.629" height="25.727"/>
									</g>
									<g>
										<polygon style="fill:#77471C;" points="141.973,1677.805 99.754,1677.805 99.754,1504.777 116.492,1479.297 
											124.992,1479.297 141.973,1504.777 										"/>
										<polygon style="fill:#9E6735;" points="147.801,1677.805 105.582,1677.805 105.582,1504.777 122.32,1479.297 
											130.816,1479.297 147.801,1504.777 										"/>
										<path style="fill:#66B2BF;" d="M140.836,1508.41c0,1.93-1.559,3.5-3.488,3.5c-1.93,0-3.5-1.57-3.5-3.5
											s1.57-3.488,3.5-3.488C139.277,1504.922,140.836,1506.48,140.836,1508.41z"/>
										<path style="fill:#66B2BF;" d="M122.926,1508.41c0,1.93-1.559,3.5-3.488,3.5c-1.93,0-3.5-1.57-3.5-3.5
											s1.57-3.488,3.5-3.488C121.367,1504.922,122.926,1506.48,122.926,1508.41z"/>
									</g>
									<g>
										<rect x="41.27" y="1552.824" style="fill:#5F3413;" width="61.641" height="25.727"/>
										<rect x="41.27" y="1548.703" style="fill:#865428;" width="61.641" height="25.715"/>
									</g>
									<g>
										<rect x="41.27" y="1612.52" style="fill:#5F3413;" width="61.641" height="25.723"/>
										<rect x="41.27" y="1608.395" style="fill:#865428;" width="61.641" height="25.727"/>
									</g>
									<g>
										<polygon style="fill:#77471C;" points="52.191,1677.805 9.969,1677.805 9.969,1504.777 26.711,1479.297 35.207,1479.297 
											52.191,1504.777 										"/>
										<polygon style="fill:#9E6735;" points="58.02,1677.805 15.789,1677.805 15.789,1504.777 32.539,1479.297 41.023,1479.297 
											58.02,1504.777 										"/>
										<path style="fill:#66B2BF;" d="M51.051,1508.41c0,1.93-1.566,3.5-3.496,3.5c-1.93,0-3.488-1.57-3.488-3.5
											s1.559-3.488,3.488-3.488C49.484,1504.922,51.051,1506.48,51.051,1508.41z"/>
										<path style="fill:#66B2BF;" d="M33.141,1508.41c0,1.93-1.566,3.5-3.496,3.5s-3.488-1.57-3.488-3.5
											s1.559-3.488,3.488-3.488S33.141,1506.48,33.141,1508.41z"/>
									</g>
								</g>
							</g>
						</g>
					</g>
				</g>
				<path style="fill:#FFFFFF;" d="M383.359,744.176h465.965c0,0,3.02-34.996-34.152-26.66c0,0,2.484-58.328-47.34-20
					c0,0-31.492-26.379-49.82,16.809c0,0-37.738-21.805-63.027,13.188c0,0-5.301-51.09-66.949-43.043
					c0,0,1.664-55.269-73.316-38.609c0,0-79.453-41.461-101.379,47.594C413.34,693.453,346.418,707.516,383.359,744.176z"/>
				<path style="fill:#FFFFFF;" d="M1311.043,497.637h621.875c0,0,4.023-46.707-45.586-35.586c0,0,3.313-77.84-63.172-26.688
					c0,0-42.035-35.203-66.492,22.43c0,0-50.367-29.102-84.121,17.602c0,0-7.066-68.184-89.348-57.445
					c0,0,2.223-73.762-97.859-51.527c0,0-106.027-55.328-135.289,63.52C1351.051,429.941,1261.727,448.707,1311.043,497.637z"/>
				<path style="fill:#FFFFFF;" d="M87.477,330.023h687.519c0,0-13.32-69.637-182.859-48.445c0,0-32.438-96.875-119.152-51.461
					c0,0-148.152-124.137-253.672,43.891C219.313,274.008,103.535,230.117,87.477,330.023z"/>
				<rect x="-0.008" y="1661.98" style="fill:#59934D;" width="2121.309" height="467.633"/>
				<polygon style="fill:#497C3B;" points="-0.008,1784.738 2121.301,1715.086 2121.301,1683.941 -0.008,1699.766 				"/>
				<path style="fill:#66A94E;" d="M2121.301,1773.383c0,0-1023.168,20.348-2121.309,66.523v289.707h2121.309V1773.383z"/>
				<path style="opacity:0.6;fill:#7FC469;" d="M-0.008,1876.09c345.219-14.316,1635.121-61.352,2121.309,12.238v-114.945
					c0,0-1023.168,20.348-2121.309,66.523V1876.09z"/>
				<path style="fill:#5B9C43;" d="M-0.008,2066.234l2121.309-48.145v-43.129c-270.578-18.504-1692.41-62.449-2121.309-75.469
					V2066.234z"/>
				<path style="opacity:0.5;fill:#497C3B;" d="M1791.762,1815.402c0,33.102-311.348,59.934-695.414,59.934
					c-384.055,0-695.402-26.832-695.402-59.934c0-33.094,311.348-59.926,695.402-59.926
					C1480.414,1755.477,1791.762,1782.309,1791.762,1815.402z"/>
			</g>
		</g>
	</g>
</g>
<g>
	<path style="fill:#1D0004;" d="M968.719,398.906c0,0-21.086-3.484-21.086-30.332c0,0-13.816-0.629-11.375-18.445
		c0,0-14.551-8.145-7.07-22.402c0,0-12.379-27.488,9.258-40.723c0,0-4.832-18.328,15.012-21.891c0,0-5.602-20.363,18.84-23.418
		c0,0,3.184-25.195,27.691-16.039c0,0,4.656-18.828,29.09-10.684c0,0,18.332-15.785,37.168,3.051c0,0,24.941-17.305,36.145,4.586
		c0,0,20.871-13.238,26.477,15.777c0,0,15.773-3.563,15.773,9.672c0,0,18.836-7.871,17.816,19.988c0,0,23.418,4.957,13.746,30.918
		c0,0,15.273,0.512,10.695,25.453c0,0,13.742,17.309-5.094,33.09c0,0,14.758,24.254-3.059,41.398c0,0,8.664,16.996-11.707,18.852
		c0,0,10.688,35.508-19.852,34.973c0,0-15.273,29.691-32.582,13.305L968.719,398.906z"/>
	<path style="fill:#AF645A;" d="M951.039,718.102c0,0-127.273,140.586-148.477,134.894c-21.203-5.684-34.086-16.211-16.652-43.894
		c25.625-40.707,129.391-159.457,129.391-159.457L951.039,718.102z"/>
	<path style="fill:#7BAF76;" d="M965.961,570.641c0,0-19.613,1.75-40.484,44.758c-29.734,61.258-81.359,115.231-88.945,121.957
		c0,0-14.367,36.445,41.617,55.195l94.117-58.195L965.961,570.641z"/>
	<path style="fill:#F3F7E0;" d="M843.93,728.898c0,0-6.008-2.824-11.625,3.59c-5.625,6.406-12.266,13.387-17.43,19.258
		c-5.176,5.863-11.691,9.793-7.152,15.836c2.957,3.934,36.652,59.41,54.246,47.82c40.52-26.703,30.824-35.019,30.824-35.019
		S839.273,744.984,843.93,728.898z"/>
	<g>
		<g>
			<polygon style="fill:#0D4723;" points="1052.586,1614.273 1077.348,1146.902 966.488,1068.184 982.441,1614.273 			"/>
			<path style="opacity:0.7;fill:#124F75;" d="M1026.703,1500.453c1.848,31.703-27.668,40.27-46.363,41.996l1.836,63.027
				l70.875-4.879l24.297-453.695l-49.871-35.41C1020.559,1214.223,1024.836,1468.422,1026.703,1500.453z"/>
			<g>
				<path style="fill:#8B5435;" d="M1057.559,1596.703c0,0-21.191,97.223-13.695,125.547c7.895,29.844-2.734,59.82-8.723,70.945
					c0,0-20.477,14.047-65.23,0c0,0-14.922-6.461-43.832,0c0,0-58.738,13.121-92.305,0c0,0-8.516-42.211,22.383-56.168
					c22.156-10.012,81.117-21.504,96.031-39.48c14.926-17.984,22.504-95.371,22.504-95.371L1057.559,1596.703z"/>
				<path style="fill:#723D23;" d="M1000.164,1600.492l-25.473,1.684c0,0-1.234,12.629-3.691,28.855
					c12.906,9.5,39.512,23.434,77.359,14.93c2.906-18.129,6.113-34.422,7.867-42.953L1000.164,1600.492z"/>
				<path style="fill:#743F25;" d="M969.91,1793.195c44.754,14.047,65.23,0,65.23,0c3.621-6.734,8.941-20.367,10.832-36.688
					c-11.402,18.129-51.184,11.926-55.57,12.707c-5.398,0.953-21.574-2.242-37.465-4.941c-15.887-2.699-66.121,17.02-108.387,11.609
					c-6.441-0.824-9-6.094-9.863-12.168c-3.867,14.867-0.914,29.48-0.914,29.48c33.566,13.121,92.305,0,92.305,0
					C954.988,1786.734,969.91,1793.195,969.91,1793.195z"/>
				<path style="fill:#D47D5A;" d="M973.578,1612.07c-2.602,21.449-9.773,71.473-21.391,85.477
					c-7.496,9.035-26.129,16.438-45.613,22.824c-13.367,7.414-26.586,15.266-27.813,18.027c-2.539,5.719,70.754-8.691,83.887-18.43
					c13.137-9.75,43.223-94.48,43.223-94.48L973.578,1612.07z"/>
				<path style="fill:#532815;" d="M998.664,1620.41c0,0-27.113,81.477-36.016,91.469c-8.894,9.988-63.766,23.332-70.117,21.426
					c-6.355-1.906,51.27-19.266,61.008-33.137c13.77-19.605,22.434-83.895,22.434-83.895L998.664,1620.41z"/>
				<path style="fill:#AB6849;" d="M986.504,1565.355c0,0-17.805-0.137-16.512,10.227c1.297,10.363-0.27,32.688-2.582,40.941
					c-2.305,8.266,35.023,23.695,93.133,5.879c0,0,11.012-8.652,6.738-23.871c0,0,13.02-29.512-3.098-33.832
					C1050.488,1561.035,1014.563,1563.328,986.504,1565.355z"/>
				<path style="fill:#AB6849;" d="M832.699,1779.234c0,0-5.559,3.719-5.559,6.629c0,2.906,0,16.578,0,16.578
					s38.129,15.758,111.898,0c0,0,19.887-4.969,32.734-0.414c12.848,4.559,54.703,4.559,67.805-2.586c0,0,4.609-7.008,4.27-20.555
					l-1.555-5.652c0,0-38.57,8.215-67.602,2.824c0,0-22.809-5.645-36.48-1.797C925.555,1777.824,884.68,1790.418,832.699,1779.234z"
					/>
				<path style="fill:#89D4E5;" d="M1009.723,1645.57c-0.613,3.426-2.844,5.906-4.981,5.512c-2.133-0.387-3.355-3.48-2.738-6.914
					c0.625-3.43,2.852-5.902,4.984-5.516C1009.125,1639.035,1010.348,1642.129,1009.723,1645.57z"/>
				<path style="fill:#172F34;" d="M1008.211,1645.289c-0.375,2.094-1.734,3.605-3.027,3.359c-1.297-0.223-2.047-2.113-1.668-4.203
					c0.379-2.098,1.738-3.602,3.039-3.363C1007.852,1641.313,1008.594,1643.203,1008.211,1645.289z"/>
				<path style="fill:#89D4E5;" d="M1002.523,1669.328c-0.621,3.434-2.848,5.895-4.98,5.512c-2.133-0.375-3.363-3.477-2.738-6.918
					c0.617-3.422,2.852-5.895,4.98-5.516C1001.918,1662.793,1003.141,1665.887,1002.523,1669.328z"/>
				<path style="fill:#172F34;" d="M1001.023,1669.055c-0.387,2.09-1.746,3.594-3.047,3.355c-1.297-0.23-2.047-2.121-1.66-4.203
					c0.375-2.102,1.734-3.605,3.027-3.367C1000.644,1665.066,1001.391,1666.957,1001.023,1669.055z"/>
				<path style="fill:#89D4E5;" d="M993.637,1689.023c-0.613,3.438-2.852,5.91-4.984,5.512c-2.129-0.379-3.352-3.48-2.734-6.906
					c0.625-3.434,2.851-5.906,4.984-5.523C993.031,1682.492,994.258,1685.586,993.637,1689.023z"/>
				<path style="fill:#172F34;" d="M992.129,1688.75c-0.383,2.09-1.738,3.598-3.035,3.359c-1.297-0.23-2.039-2.121-1.664-4.207
					c0.379-2.098,1.734-3.605,3.035-3.367C991.766,1684.777,992.504,1686.656,992.129,1688.75z"/>
				<path style="fill:#89D4E5;" d="M983.098,1710.395c-0.832,3.383-3.211,5.707-5.316,5.203c-2.098-0.523-3.133-3.688-2.293-7.086
					c0.828-3.387,3.203-5.711,5.313-5.188C982.906,1703.84,983.93,1706.996,983.098,1710.395z"/>
				<path style="fill:#172F34;" d="M981.609,1710.02c-0.504,2.063-1.957,3.488-3.238,3.176c-1.281-0.32-1.91-2.25-1.398-4.309
					c0.508-2.066,1.957-3.488,3.234-3.164C981.488,1706.031,982.121,1707.961,981.609,1710.02z"/>
				<path style="fill:#89D4E5;" d="M962.844,1732.305c-3.051,1.715-6.371,1.559-7.43-0.332s0.551-4.809,3.602-6.516
					c3.043-1.699,6.367-1.543,7.426,0.348C967.5,1727.695,965.894,1730.598,962.844,1732.305z"/>
				<path style="fill:#172F34;" d="M962.094,1730.973c-1.852,1.027-3.879,0.945-4.527-0.211c-0.641-1.148,0.336-2.926,2.199-3.965
					c1.852-1.039,3.879-0.945,4.52,0.211C964.93,1728.16,963.949,1729.934,962.094,1730.973z"/>
				<path style="fill:#89D4E5;" d="M934.441,1742.852c-3.379,0.891-6.559-0.074-7.113-2.168c-0.559-2.102,1.727-4.516,5.106-5.414
					c3.367-0.891,6.555,0.074,7.113,2.172C940.102,1739.527,937.816,1741.961,934.441,1742.852z"/>
				<path style="fill:#172F34;" d="M934.047,1741.363c-2.059,0.551-3.992-0.039-4.332-1.313c-0.336-1.277,1.051-2.754,3.105-3.293
					c2.059-0.551,3.996,0.043,4.332,1.32C937.488,1739.352,936.102,1740.828,934.047,1741.363z"/>
				<path style="fill:#89D4E5;" d="M904.305,1747.605c-3.375,0.906-6.563-0.074-7.117-2.168c-0.555-2.086,1.731-4.516,5.106-5.406
					c3.371-0.898,6.559,0.078,7.113,2.168C909.961,1744.293,907.676,1746.715,904.305,1747.605z"/>
				<path style="fill:#172F34;" d="M903.91,1746.137c-2.055,0.539-3.996-0.055-4.324-1.332c-0.348-1.277,1.047-2.754,3.102-3.293
					c2.051-0.551,3.996,0.043,4.328,1.32C907.359,1744.109,905.969,1745.586,903.91,1746.137z"/>
				
					<path style="fill:none;stroke:#855739;stroke-width:3.1775;stroke-linecap:round;stroke-linejoin:round;stroke-miterlimit:10;" d="
					M968.582,1638.613c8.266,3.59,36.434,6.25,36.434,6.25s-14.008,9.219-38.246,2.012"/>
				
					<path style="fill:none;stroke:#855739;stroke-width:3.1775;stroke-linecap:round;stroke-linejoin:round;stroke-miterlimit:10;" d="
					M966.769,1651.125c5.176,9.113,31.895,17.504,31.895,17.504s-21.535-1.621-34.18-12.855"/>
				
					<path style="fill:none;stroke:#855739;stroke-width:3.1775;stroke-linecap:round;stroke-linejoin:round;stroke-miterlimit:10;" d="
					M964.484,1657.891c0,0,10.477,24.426,25.293,30.426c0,0-24.16-1.566-31.363-6.25"/>
				
					<path style="fill:none;stroke:#855739;stroke-width:3.1775;stroke-linecap:round;stroke-linejoin:round;stroke-miterlimit:10;" d="
					M957.371,1685.855c2.988,9.328,21.922,23.602,21.922,23.602s-19.215-2.863-26.402-12.813"/>
				
					<path style="fill:none;stroke:#855739;stroke-width:3.1775;stroke-linecap:round;stroke-linejoin:round;stroke-miterlimit:10;" d="
					M950.789,1697.652c0,0,1.852,23.207,10.141,31.234c0,0-23.129-12.098-25.43-21.219c0,0-3.973,23.348-2.07,30.098
					c0,0-20.348-13.055-19.496-22.098c0,0-9.402,18.324-10.637,27.516c0,0-6.156-12.199-4.008-20.465"/>
			</g>
			<path style="fill:#0D4723;" d="M1192.297,948.797c0,0,46.18,99.086,16.547,188.941c0,0-78.277-31.195-121.039,25.309
				c0,0-14.93,4.473-35.016-23.02c-20.09-27.488-86.293-60.34-86.293-60.34l-0.133-153.894L1192.297,948.797z"/>
			<path style="opacity:0.7;fill:#124F75;" d="M1192.297,948.797l-13.156-1.336l-10.859,32.629c0,0,28.594,57.863,6,149.777
				c0,0,0,0,0.012,0c16.836,1.742,29.816,6.129,33.496,7.469c0.008,0.008,0.035,0.012,0.043,0.016
				c0.117,0.051,0.219,0.09,0.32,0.117c0.02,0.012,0.039,0.02,0.059,0.023c0.09,0.035,0.168,0.066,0.234,0.09
				c0.035,0.016,0.055,0.023,0.078,0.035c0.059,0.02,0.109,0.039,0.148,0.051c0.02,0.008,0.027,0.012,0.047,0.016
				c0.078,0.035,0.125,0.055,0.125,0.055C1238.477,1047.883,1192.297,948.797,1192.297,948.797z"/>
			<path style="fill:#9BD19A;" d="M1121.543,536.82c0,0,80.629,15.223,102.391,22.094c0,0,4.332,39.98-10.375,128.223
				c-16.797,100.801-33.121,103.41-42.277,277.516c0,0-119.34,43.609-198.5-12.848c0,0-51.293-187.422-51.965-237.785
				c-0.43-31.313,36.109-135.289,42.82-143.074c0,0,31.879-9.43,61.219-17.578C1045.754,547.563,1121.543,536.82,1121.543,536.82z"
				/>
			<path style="fill:#0D4723;" d="M1177.328,881.133c0,0-23.16,38.746-25.734-178.395c1.828-24.25,16.402-124.43,31.605-153.379
				l-22.082-4.391c0,0-32.25,67.09-39.262,148.113c-43.668-2.488-153.105-1.242-185,8.535c0,0-33.211,11.777,28.16,268.5
				c0,0,125.461,45.398,222.379,2.777C1203.633,965.754,1176.367,890.625,1177.328,881.133z"/>
			<path style="opacity:0.7;fill:#A91D34;" d="M1177.328,881.133c0,0-16.379,27.402-23.129-93.094
				c-3.176,61.746,11.371,172.207,14.082,192.051c3.215-1.023,6.402-2.129,9.578-3.316c0.023-0.012,0.047-0.019,0.078-0.031
				c1.559-0.582,3.113-1.195,4.66-1.82c0.035-0.016,0.074-0.027,0.105-0.043c1.566-0.641,3.137-1.301,4.691-1.984
				C1203.633,965.754,1176.367,890.625,1177.328,881.133z"/>
			<path style="fill:#AF645A;" d="M1121.543,417.758c0,0-11.824,88.813,4.973,123.176c0,0-18.324,30.367-58.789,45.731
				c0,0-15.91,24.523-24.375,43.613c-8.469,19.09-16.059-38.941-16.059-38.941s-6.535-22.293-6.918-26.875
				c0,0,19.605-25.391,19.645-78.469L1121.543,417.758z"/>
			<path style="fill:#A2554E;" d="M1035.18,528.773c19.328-0.613,54.172-7.922,82.422-40.281
				c-0.395-16.703,0.492-33.598,1.52-46.688c0-0.016,0-0.027,0-0.039c0.055-0.602,0.098-1.191,0.145-1.773
				c0.008-0.066,0.012-0.133,0.016-0.203c0.051-0.543,0.094-1.074,0.137-1.602c0.012-0.098,0.016-0.203,0.023-0.301
				c0.047-0.488,0.09-0.961,0.129-1.434c0.008-0.137,0.02-0.285,0.039-0.43c0.031-0.426,0.066-0.84,0.109-1.254
				c0.016-0.18,0.031-0.355,0.047-0.527c0.031-0.383,0.078-0.758,0.105-1.125c0.02-0.199,0.039-0.395,0.059-0.59
				c0.031-0.348,0.063-0.684,0.098-1.02c0.02-0.203,0.035-0.402,0.047-0.598c0.035-0.316,0.066-0.629,0.098-0.938
				c0.027-0.211,0.039-0.418,0.059-0.625c0.035-0.285,0.066-0.563,0.09-0.836c0.023-0.211,0.043-0.418,0.066-0.625
				c0.02-0.266,0.055-0.535,0.078-0.793c0.02-0.191,0.043-0.383,0.059-0.57c0.031-0.25,0.059-0.492,0.082-0.734
				c0.02-0.191,0.047-0.379,0.066-0.563c0.02-0.23,0.047-0.457,0.07-0.68c0.02-0.164,0.031-0.324,0.055-0.48
				c0.023-0.238,0.051-0.465,0.078-0.691c0-0.059,0.016-0.121,0.02-0.18c0-0.008,0-0.016,0-0.023
				c0.008-0.098,0.023-0.184,0.027-0.273c0.031-0.18,0.039-0.352,0.059-0.52c0.02-0.176,0.039-0.344,0.059-0.508
				c0.016-0.105,0.031-0.215,0.039-0.313c0.008-0.078,0.016-0.16,0.031-0.234c0-0.035,0.008-0.07,0.008-0.105
				c0.012-0.035,0.012-0.055,0.012-0.09c0.027-0.227,0.055-0.445,0.082-0.652c0.004-0.055,0.012-0.121,0.02-0.176
				c0-0.031,0.004-0.063,0.012-0.09c0.004-0.051,0.008-0.09,0.012-0.137c0.008-0.051,0.02-0.102,0.02-0.152
				c0-0.035,0.012-0.066,0.016-0.098c0.004-0.09,0.016-0.176,0.031-0.258c0.012-0.16,0.031-0.313,0.055-0.457
				c0.012-0.074,0.016-0.145,0.02-0.215c0.012-0.07,0.02-0.145,0.035-0.211c0.012-0.117,0.023-0.223,0.035-0.316
				c0.004-0.039,0.008-0.074,0.016-0.105c0.008-0.074,0.02-0.141,0.027-0.199c0-0.031,0-0.059,0.012-0.086
				c0.004-0.051,0.012-0.098,0.012-0.133c0.012-0.055,0.012-0.086,0.012-0.086l-81.523,68.234
				C1040.008,503.113,1037.953,517.34,1035.18,528.773z"/>
			<g>
				<path style="fill:#C37568;" d="M1146.902,367.203c-7.953-1.906-14.488,3.094-19.566,8.543
					c1.715-26.848-0.668-55.172-12.852-76.605c-31.961-56.203-153.121-39.879-147.606,79.129c0,0,0.777,76.156,49.543,132.117
					c0,0,11.074,6.102,27.605-0.512c0,0,55.723-25.57,69.691-56.547c0,0,1.355-6.309,5.488-24.207
					c1.746,2.637,4.32,4.914,7.891,4.137c7.59-1.668,24.793-22.203,29.238-39.414
					C1156.336,393.844,1160.773,370.535,1146.902,367.203z"/>
				<path style="fill:#F16485;" d="M1000.754,447.941c0,0,11.059-3.176,27.73-2.797c16.668,0.387,19.715-0.539,19.715-0.539
					S1019.606,458.375,1000.754,447.941z"/>
				<path style="fill:#F16485;" d="M1000.754,447.941c0,0-0.523,24.141,20.605,25.395c21.125,1.258,26.063-23.285,26.84-28.73
					C1048.199,444.605,1021.641,453.918,1000.754,447.941z"/>
				<path style="fill:#A2554E;" d="M1149.566,391.512c0,0,0.762-16.168-6.066-15.156c-6.824,1.008-14.66,7.578-16.68,19.203
					c0,0,6.156,4.078,4.266,8.91c-2.266,5.77-5.199,7.492-7.301,7.516c0,0,1.125,9.512,3.695,9.523
					C1131.934,421.527,1145.777,411.199,1149.566,391.512z"/>
				<g>
					<g>
						<path style="fill:#1D0004;" d="M1032.086,368.766c0,0.004,2.191-2.141,6.266-3.824c2.043-0.816,4.52-1.609,7.27-1.906
							c1.375-0.152,2.797-0.195,4.242-0.125c1.441-0.027,2.895,0.266,4.336,0.395c1.438,0.215,2.855,0.547,4.246,0.824
							c1.352,0.418,2.688,0.832,3.973,1.23c2.512,0.988,4.777,2.027,6.598,3.152c1.891,0.977,3.273,2.102,4.305,2.777
							c1.008,0.703,1.582,1.105,1.582,1.105c0.082,0.059,0.105,0.172,0.047,0.254c-0.059,0.078-0.176,0.094-0.25,0.051
							c0,0-0.625-0.32-1.711-0.879c-1.098-0.527-2.578-1.445-4.547-2.145c-1.895-0.852-4.211-1.531-6.656-2.266
							c-1.246-0.254-2.539-0.516-3.848-0.785c-1.332-0.121-2.672-0.305-4.016-0.371c-1.344,0.047-2.684-0.074-3.996,0.113
							c-1.305,0.109-2.586,0.23-3.809,0.473c-1.242,0.082-2.391,0.453-3.527,0.578c-1.109,0.262-2.184,0.434-3.129,0.75
							c-3.895,1.02-6.352,2.117-6.352,2.117c-0.469,0.211-1.02,0-1.227-0.469C1031.719,369.449,1031.816,369.031,1032.086,368.766z"
							/>
					</g>
				</g>
				<path style="fill:#2E100D;" d="M994.332,394.43c0,5.477-2.379,9.918-5.32,9.918c-2.949,0-5.324-4.441-5.324-9.918
					c0-5.48,2.375-9.918,5.324-9.918C991.953,384.512,994.332,388.949,994.332,394.43z"/>
				<g>
					<path style="fill:#2E100D;" d="M996.031,388.363c0,0-0.602-1.23-1.914-2.742c-1.305-1.465-3.375-3.227-5.734-3.422
						c-1.164-0.129-2.289,0.176-3.32,0.484c-1.055,0.305-2.106,0.551-3.012,0.922c-0.961,0.223-1.691,0.656-2.32,0.773
						c-0.59,0.18-0.973,0.246-0.973,0.246l-0.188-0.227c0,0,0.172-0.328,0.547-0.848c0.379-0.516,0.894-1.289,1.773-1.973
						c0.453-0.324,0.945-0.68,1.461-1.055c0.57-0.332,1.246-0.52,1.914-0.797c1.434-0.324,3.078-0.309,4.59,0.168
						c3.125,0.863,5.125,3.305,6.105,5.141c1.012,1.863,1.344,3.223,1.344,3.223L996.031,388.363z"/>
				</g>
				<g>
					<path style="fill:#2E100D;" d="M1050.672,394.156c0,5.48-2.383,9.918-5.32,9.918c-2.941,0-5.332-4.438-5.332-9.918
						c0-5.477,2.391-9.918,5.332-9.918C1048.289,384.238,1050.672,388.68,1050.672,394.156z"/>
					<g>
						<path style="fill:#2E100D;" d="M1055.324,388.02c0,0-0.602-1.23-1.914-2.742c-1.305-1.465-3.379-3.227-5.738-3.422
							c-1.16-0.129-2.285,0.172-3.324,0.484c-1.051,0.305-2.102,0.551-3.004,0.922c-0.965,0.219-1.695,0.652-2.324,0.77
							c-0.59,0.18-0.977,0.25-0.977,0.25l-0.184-0.23c0,0,0.172-0.328,0.539-0.848c0.387-0.512,0.902-1.289,1.785-1.969
							c0.449-0.328,0.941-0.68,1.461-1.055c0.566-0.332,1.246-0.52,1.914-0.797c1.43-0.324,3.074-0.309,4.59,0.168
							c3.117,0.863,5.125,3.305,6.105,5.137c1.012,1.867,1.344,3.227,1.344,3.227L1055.324,388.02z"/>
					</g>
				</g>
				<g>
					<g>
						<path style="fill:#A2554E;" d="M1005.641,403.203c0,0,0.242,0.563,0.352,1.613c0.098,1.039,0.195,2.586-0.148,4.379
							c-0.578,3.617-2.848,8.164-6.238,11.605c-0.902,0.934-1.512,1.547-2.195,2.375c-0.637,0.773-1.148,1.605-1.391,2.293
							c-0.105,0.32-0.195,0.621-0.164,0.773c0,0.188,0.254,0.953,0.352,1.172c0.289,0.715,0.688,1.453,1.18,2.016
							c0.961,1.176,2.152,1.953,3.051,2.332c0.887,0.426,1.477,0.555,1.477,0.555s-0.574,0.176-1.645,0.121
							c-1.031-0.102-2.629-0.344-4.25-1.469c-0.797-0.578-1.594-1.301-2.226-2.332c-0.371-0.652-0.512-0.828-0.805-1.629
							c-0.285-0.848-0.188-1.637-0.063-2.352c0.344-1.387,0.973-2.508,1.676-3.547c0.633-1.008,1.617-2.055,2.277-2.793
							c2.875-3.293,5.238-6.883,6.695-9.848C1005.082,405.531,1005.641,403.203,1005.641,403.203z"/>
					</g>
				</g>
				<path style="fill:#FFFFFF;" d="M1000.754,447.941c0,0,24.305,5.148,47.445-3.336c0,0-5.293,22.371-27.883,21.402
					C1002.68,465.246,1000.754,447.941,1000.754,447.941z"/>
				<g>
					<g>
						<path style="fill:#1D0004;" d="M966.742,370.996c0,0,1.461-2.059,4.492-4.324c1.48-1.168,3.41-2.316,5.641-3.207
							c2.227-0.922,4.781-1.48,7.383-1.699c1.301-0.117,2.609-0.027,3.91-0.031c1.273,0.168,2.539,0.352,3.746,0.59
							c1.152,0.414,2.293,0.754,3.32,1.195c1.012,0.477,1.902,1.031,2.758,1.488c1.703,0.918,2.859,2.051,3.711,2.766
							c0.844,0.727,1.285,1.176,1.285,1.176c0.363,0.367,0.352,0.953-0.008,1.313c-0.262,0.258-0.637,0.324-0.965,0.211
							l-0.098-0.035c0,0-0.586-0.211-1.551-0.645c-0.492-0.203-1.066-0.473-1.707-0.801c-0.629-0.367-1.41-0.613-2.223-0.945
							c-1.59-0.766-3.519-1.336-5.551-2.027c-1.031-0.281-2.105-0.57-3.184-0.863c-1.109-0.133-2.246-0.379-3.394-0.426
							c-2.293-0.066-4.625,0.156-6.746,0.766c-2.109,0.613-4.059,1.379-5.629,2.262c-3.195,1.711-4.918,3.48-4.918,3.48
							c-0.07,0.074-0.188,0.074-0.258,0.004C966.688,371.176,966.688,371.066,966.742,370.996z"/>
					</g>
				</g>
				<path style="fill:#A2554E;" d="M1011.969,475.855c0,0,6.797,3.488,19.84,0C1031.809,475.855,1021.332,488.527,1011.969,475.855z
					"/>
			</g>
			<path style="fill:#0D4723;" d="M1229.355,1632.277l-20.512-494.539c0,0-49.406-67.188-121.039,25.309
				c0,0,56.004,299.48,71.871,464.266L1229.355,1632.277z"/>
			<path style="opacity:0.7;fill:#124F75;" d="M1208.816,1137.695c-0.734-0.98-12.723-16.566-32.953-21.82l0,0
				c6.254,167.145,22.688,388.652,19.609,409.781c-2.5,17.156-25.777,21.379-45.059,21.887c2.676,20.348,5.055,39.918,7.047,58.223
				l69.832-23.328l-18.449-444.699C1208.844,1137.738,1208.836,1137.723,1208.816,1137.695L1208.816,1137.695z"/>
			<path style="fill:#0D4723;" d="M951.727,715.625c0,0,21.41-101.469,35.234-151.141l-9.254,2.852c0,0-19.75,50.117-47.637,148.91
				c0,0,1.461,25.606,14.41,20.004C948.523,734.504,955.008,728.738,951.727,715.625z"/>
			<path style="fill:#8B5435;" d="M1142.781,1622.434c0,0,12.18,100.957,4.738,117.418c0,0-21.109,18.523-34.512,37.887
				c-4.313,6.223-2.301,16.504-2.301,24.746c0,20.922,90.832,29.074,113.164-1.379c0,0,6.285-24.375,14.813-35.547
				c0,0,0-19.625-11.313-37.211c0,0-2.699-85.73,8.68-121.125L1142.781,1622.434z"/>
			<path style="fill:#743F25;" d="M1223.871,1801.105c0,0,6.285-24.375,14.813-35.547c0,0,0-5.406-1.637-13.102
				c-6.652,0.863-21.859,35.105-21.859,35.105c-26.816,25.078-85.266,17.934-94.742,14.922c-9.219-2.926-8.535-21.824-8.492-22.844
				c-2.867,6.273-1.246,15.391-1.246,22.844C1110.707,1823.406,1201.539,1831.559,1223.871,1801.105z"/>
			<path style="fill:#723D23;" d="M1144.469,1637.539c11.574,5.328,39.09,14.145,85.082,7.051c1.352-14.355,3.402-27.73,6.5-37.367
				l-93.27,15.211C1142.781,1622.434,1143.492,1628.352,1144.469,1637.539z"/>
			<path style="fill:#D47D5A;" d="M1195.91,1614.988c0,0-1.02,108.613,0,118.094c1.012,9.469-8.805,27.621-43.652,16.688
				c0,0-13.871-0.789,5.754-19.402c0,0,6.09-86.961,3.039-105.227C1158.012,1606.867,1195.91,1614.988,1195.91,1614.988z"/>
			<path style="fill:#532815;" d="M1149.883,1745.605c0,0,25.043,11.5,40.273-3.73c0,0,2.027-2.367,3.047-7.102
				c1.016-4.734-7.453-109.973-3.387-115.051l-24.031,2.367c0,0-2.027,107.605-6.086,112.008
				C1155.641,1738.492,1148.527,1742.219,1149.883,1745.605z"/>
			<path style="fill:#AB6849;" d="M1151.695,1567.578c0,0-19.352,1.078-17.238,12.238c2.121,11.168,1.949,35.535,0,44.664
				c-1.938,9.133,39.68,23.352,101.594,0c0,0,11.371-10.145,5.688-26.383c0,0,12.117-32.973-5.688-36.551
				C1220.914,1558.5,1182.039,1563.457,1151.695,1567.578z"/>
			<path style="fill:#AB6849;" d="M1110.418,1796.629c0,0-2.488,4.465-3.508,9.543c-1.016,5.078,1.754,20.301,1.754,20.301
				s19.063,31.977,94.012,11.848c6.602-1.777,13.871-4.063,18.945-8.809c0,0,6.43-5.41,7.445-19.625c0,0,3.59-5.629,15.906-17.59
				c0,0,2.551-32.164-6.691-32.301c-5.832-0.082-15.645,26.551-16.992,33.996c-1.207,6.594-37.953,29.82-97.121,15.895
				C1112.664,1807.188,1114.355,1801.77,1110.418,1796.629z"/>
			<path style="fill:#89D4E5;" d="M1204.703,1648.57c0,3.418-1.586,6.18-3.551,6.18s-3.555-2.762-3.555-6.18
				c0-3.41,1.59-6.168,3.555-6.168S1204.703,1645.16,1204.703,1648.57z"/>
			<path style="fill:#172F34;" d="M1203.234,1648.57c0,1.992-0.938,3.609-2.082,3.609s-2.082-1.617-2.082-3.609
				c0-1.996,0.938-3.613,2.082-3.613S1203.234,1646.574,1203.234,1648.57z"/>
			<path style="fill:#89D4E5;" d="M1204.703,1669.211c0,3.402-1.586,6.176-3.551,6.176s-3.555-2.773-3.555-6.176
				c0-3.406,1.59-6.18,3.555-6.18S1204.703,1665.805,1204.703,1669.211z"/>
			<path style="fill:#172F34;" d="M1203.234,1669.211c0,1.996-0.938,3.613-2.082,3.613s-2.082-1.617-2.082-3.613
				s0.938-3.613,2.082-3.613S1203.234,1667.215,1203.234,1669.211z"/>
			<path style="fill:#89D4E5;" d="M1205.375,1691.973c0,3.406-1.586,6.168-3.547,6.168s-3.551-2.762-3.551-6.168
				c0-3.418,1.59-6.18,3.551-6.18S1205.375,1688.555,1205.375,1691.973z"/>
			<path style="fill:#172F34;" d="M1203.906,1691.973c0,1.992-0.93,3.605-2.078,3.605s-2.074-1.613-2.074-3.605
				s0.926-3.617,2.074-3.617S1203.906,1689.98,1203.906,1691.973z"/>
			<path style="fill:#89D4E5;" d="M1206.18,1717.004c0,3.41-1.594,6.184-3.551,6.184c-1.965,0-3.559-2.773-3.559-6.184
				c0-3.398,1.594-6.176,3.559-6.176C1204.586,1710.828,1206.18,1713.605,1206.18,1717.004z"/>
			<path style="fill:#172F34;" d="M1204.703,1717.004c0,2-0.934,3.617-2.074,3.617c-1.148,0-2.074-1.617-2.074-3.617
				c0-1.992,0.926-3.609,2.074-3.609C1203.77,1713.395,1204.703,1715.012,1204.703,1717.004z"/>
			<path style="fill:#89D4E5;" d="M1158.301,1715.23c0,3.406-1.148,6.18-2.555,6.18c-1.414,0-2.559-2.773-2.559-6.18
				s1.145-6.176,2.559-6.176C1157.152,1709.055,1158.301,1711.824,1158.301,1715.23z"/>
			<path style="fill:#172F34;" d="M1157.234,1715.23c0,1.992-0.668,3.617-1.488,3.617c-0.828,0-1.496-1.625-1.496-3.617
				s0.668-3.613,1.496-3.613C1156.566,1711.617,1157.234,1713.238,1157.234,1715.23z"/>
			<path style="fill:#89D4E5;" d="M1158.301,1691.973c0,3.406-1.148,6.168-2.555,6.168c-1.414,0-2.559-2.762-2.559-6.168
				c0-3.418,1.145-6.18,2.559-6.18C1157.152,1685.793,1158.301,1688.555,1158.301,1691.973z"/>
			<path style="fill:#172F34;" d="M1157.234,1691.973c0,1.992-0.668,3.605-1.488,3.605c-0.828,0-1.496-1.613-1.496-3.605
				s0.668-3.617,1.496-3.617C1156.566,1688.355,1157.234,1689.98,1157.234,1691.973z"/>
			<path style="fill:#89D4E5;" d="M1158.301,1670.477c0,3.418-1.148,6.176-2.555,6.176c-1.414,0-2.559-2.758-2.559-6.176
				c0-3.406,1.145-6.18,2.559-6.18C1157.152,1664.297,1158.301,1667.07,1158.301,1670.477z"/>
			<path style="fill:#172F34;" d="M1157.234,1670.477c0,1.996-0.668,3.613-1.488,3.613c-0.828,0-1.496-1.617-1.496-3.613
				c0-1.992,0.668-3.602,1.496-3.602C1156.566,1666.875,1157.234,1668.484,1157.234,1670.477z"/>
			<path style="fill:#89D4E5;" d="M1159.359,1647.133c0,3.406-1.145,6.168-2.559,6.168c-1.406,0-2.551-2.762-2.551-6.168
				c0-3.414,1.145-6.176,2.551-6.176C1158.215,1640.957,1159.359,1643.719,1159.359,1647.133z"/>
			<path style="fill:#172F34;" d="M1158.301,1647.133c0,1.992-0.672,3.617-1.5,3.617c-0.824,0-1.488-1.625-1.488-3.617
				s0.664-3.609,1.488-3.609C1157.629,1643.523,1158.301,1645.141,1158.301,1647.133z"/>
			
				<path style="fill:none;stroke:#855739;stroke-width:3.3838;stroke-linecap:round;stroke-linejoin:round;stroke-miterlimit:10;" d="
				M1158.301,1647.684c0,0,34.398,17.809,41.453,21.313c0,0-39.227,22.094-42.953,23.508c0,0,16.762,19.113,44.352,24.5"/>
			
				<path style="fill:none;stroke:#855739;stroke-width:3.3838;stroke-linecap:round;stroke-linejoin:round;stroke-miterlimit:10;" d="
				M1200.555,1648.57c0,0-33.395,17.617-43.32,21.906c0,0,37.961,20.871,43.32,21.828c0,0-36.367,20.531-44.809,22.926"/>
			<path style="opacity:0.6;fill:#99583C;" d="M1244.973,1792.297c0,0,0.395-4.938,0.313-10.953
				c-4.719,4.996-12.828,8.504-16.551,9.594c-5.754,1.691-8.801,23.695-8.801,23.695c-58.785,30.535-101.371,9.066-112.715,2.016
				c0.586,5.078,1.445,9.824,1.445,9.824s19.063,31.977,94.012,11.848c6.602-1.777,13.871-4.063,18.945-8.809
				c0,0,6.43-5.41,7.445-19.625C1229.066,1809.887,1232.656,1804.258,1244.973,1792.297z"/>
			<g>
				<path style="fill:#6B9BB1;" d="M948.441,735.785c5.117,0,9.258-7.648,9.258-17.086c0-9.434-4.141-17.082-9.258-17.082h-4.629
					h-0.484l0.484,34.168H948.441z"/>
				<path style="fill:#90BDD6;" d="M953.07,718.699c0,9.438-4.144,17.086-9.258,17.086c-5.106,0-9.258-7.648-9.258-17.086
					c0-9.434,4.152-17.082,9.258-17.082C948.926,701.617,953.07,709.266,953.07,718.699z"/>
				<path style="fill:#74A3BA;" d="M948.977,718.699c0,6.848-2.531,12.402-5.648,12.402c-3.125,0-5.648-5.555-5.648-12.402
					c0-6.852,2.523-12.398,5.648-12.398C946.445,706.301,948.977,711.848,948.977,718.699z"/>
				<path style="fill:#609DB2;" d="M940.215,718.699c0-5.891,1.875-10.813,4.379-12.078c-0.41-0.203-0.828-0.32-1.266-0.32
					c-3.125,0-5.648,5.547-5.648,12.398c0,6.848,2.523,12.402,5.648,12.402c0.438,0,0.856-0.117,1.266-0.324
					C942.09,729.516,940.215,724.59,940.215,718.699z"/>
			</g>
			<g>
				<path style="fill:#6B9BB1;" d="M1132.094,731.102c5.113,0,9.254-7.648,9.254-17.082c0-9.441-4.141-17.086-9.254-17.086h-4.621
					h-0.496l0.496,34.168H1132.094z"/>
				<path style="fill:#90BDD6;" d="M1136.723,714.019c0,9.434-4.145,17.082-9.25,17.082c-5.121,0-9.258-7.648-9.258-17.082
					c0-9.441,4.137-17.086,9.258-17.086C1132.578,696.934,1136.723,704.578,1136.723,714.019z"/>
				<path style="fill:#74A3BA;" d="M1132.633,714.019c0,6.848-2.535,12.402-5.656,12.402s-5.652-5.555-5.652-12.402
					c0-6.848,2.531-12.402,5.652-12.402S1132.633,707.172,1132.633,714.019z"/>
				<path style="fill:#609DB2;" d="M1123.863,714.019c0-5.894,1.875-10.813,4.379-12.082c-0.398-0.203-0.828-0.32-1.266-0.32
					c-3.121,0-5.652,5.555-5.652,12.402c0,6.848,2.531,12.402,5.652,12.402c0.438,0,0.867-0.117,1.266-0.328
					C1125.738,724.832,1123.863,719.91,1123.863,714.019z"/>
			</g>
			<path style="fill:#C4415A;" d="M976.047,737.223c0,0,50.027,4.683,111.625,0c0,0-0.512,33.414-4.578,43.594
				c-4.07,10.18-21.063,44.285-54.984,44.285c-41.231,0-48.356-39.703-48.356-39.703S975.191,765.031,976.047,737.223z"/>
			<path style="fill:#FFFFFF;" d="M1039.98,634.133c0,0,2.543,0,6.109,0c3.559,0,29.598-36.691,38.215-35.164
				c8.621,1.527,34.934,31.098,45.777,35.164c0,0,6.754-90.301,11.266-93.281c0,0,2.523-4.797-4.625-12.027
				c-7.145-7.234-17.793-18.949-17.793-18.949s-1.066,30.977-6.66,35.094c-5.602,4.113-55.195,38.219-56.34,41.785
				C1054.777,590.313,1039.98,634.133,1039.98,634.133z"/>
			<path style="fill:#FFFFFF;" d="M1039.98,634.133c0,0-17.367-68.879-14.969-77.348c0,0,7.586-11.817,10.168-28.012
				c0,0-30.816,25.699-34.648,31.656c0,0-7.988,40.066-8.453,45.664c-0.461,5.598,4.891,2.039,8.578,0.512
				c3.688-1.527,5.648-5.598,8.746-3.566C1012.492,605.078,1027.758,639.668,1039.98,634.133z"/>
		</g>
	</g>
	<g>
		<g>
			<g>
				<path style="fill:#AF645A;" d="M1255.012,724.508c0,0,128.086,139.844,149.254,134.031
					c21.172-5.809,36.832-16.836,19.246-44.422c-25.859-40.559-130.313-158.707-130.313-158.707L1255.012,724.508z"/>
				<path style="fill:#9BD19A;" d="M1206.645,556.473c0,0,23.609-5.492,42.008,15.234c12.125,13.668,80.199,120.277,103.363,149.027
					c0,0-14.629,43.387-57.383,53.328c0,0-58.5-62.297-86.566-81.938C1208.066,692.125,1173.859,606.941,1206.645,556.473z"/>
				<path style="fill:#19592D;" d="M1193.195,875.039c-1.625-0.926-3.398-2.285-5.277-4.27c2.613,22.715-8.723,86.106-8.723,86.106
					l2.434-0.711c0.898-0.262,1.789-0.535,2.672-0.816C1185.84,946.762,1194.121,899.18,1193.195,875.039z"/>
				<path style="fill:#F3F7E0;" d="M1346.199,713.168c0,0-11.594,34.891-58.152,53.973c0,0-6.285,5.52,7.133,15.133
					c0,0,12.457,7.777,18.836,23.168c3.883,9.367,59.102-20.918,65.688-52.75c0,0,1.625-10.691-4.492-12.359
					c-7.926-2.16-18.809-12.273-20.125-21.922C1355.086,718.41,1351.082,712.508,1346.199,713.168z"/>
			</g>
			<path style="fill:#C37568;" d="M1424.512,812.152c0,0,31.105,23.148,17.512,52.148c-13.59,29.004-144.105,69.27-156.734,69.816
				l-1.719-31.426C1283.57,902.691,1401.117,802.129,1424.512,812.152z"/>
		</g>
		<g>
			<g>
				<path style="fill:#B72C33;" d="M927.367,789.41c0,0,9.754-68.469,52.582-52.469c0,0,9.617,3.266,28.195,2.488
					c18.566-0.769,55.066,7.023,52.336,36.773c-2.723,29.746-39.434,100.574-92.473,81.777
					C914.973,839.184,923.367,815.285,927.367,789.41z"/>
				<path style="fill:#9E1C27;" d="M934.078,838.746c6.559,6.856,17.18,13.297,33.93,19.234
					c53.039,18.797,89.75-52.031,92.473-81.777c2.73-29.75-33.77-37.543-52.336-36.773c-18.578,0.777-28.195-2.488-28.195-2.488
					c-18.301-6.836-30.563,1.754-38.605,13.832c8.121-4.23,19.668-8.168,29.676-3.75c17.613,7.781,32.316,13.609,46.391,14.996
					c14.082,1.395,28.508,12.488,3.762,51.43C999.375,847.762,957.559,850.977,934.078,838.746z"/>
				<path style="fill:#821523;" d="M1008.144,739.43c-14.773,0.617-23.875-1.32-26.98-2.141c3.766,2.734,12.633,7.121,32.918,10.457
					c31.801,5.223,40.68,22.59,32.996,39.422c-7.129,15.625-29.258,66.137-80.695,70.223c0.535,0.195,1.066,0.395,1.625,0.59
					c53.039,18.797,89.75-52.031,92.473-81.777C1063.211,746.453,1026.711,738.66,1008.144,739.43z"/>
				<path style="fill:#C33D46;" d="M967.137,761.969c-9.867-6.738-23.637-2.512-32.473,1.547
					c-5.484,13.184-7.297,25.895-7.297,25.895c-2.738,17.707-7.535,34.492,6.723,49.348
					C965.121,837.68,981.191,771.574,967.137,761.969z"/>
			</g>
			<g>
				<path style="fill:#B72C33;" d="M1041.137,800.059c0,0,9.754-68.477,52.59-52.473c0,0,9.613,3.266,28.191,2.492
					c18.57-0.77,55.063,7.023,52.336,36.77c-2.723,29.746-39.43,100.582-92.473,81.781
					C1028.742,849.832,1037.145,825.934,1041.137,800.059z"/>
				<path style="fill:#9E1C27;" d="M1047.844,849.394c6.574,6.859,17.191,13.297,33.938,19.234
					c53.043,18.801,89.75-52.035,92.473-81.781c2.727-29.746-33.766-37.539-52.336-36.77c-18.578,0.773-28.191-2.492-28.191-2.492
					c-18.305-6.832-30.563,1.754-38.609,13.832c8.121-4.227,19.672-8.164,29.676-3.746c17.617,7.781,32.316,13.605,46.395,15
					c14.078,1.391,28.5,12.48,3.758,51.426C1113.148,858.41,1071.332,861.625,1047.844,849.394z"/>
				<path style="fill:#821523;" d="M1121.918,750.078c-14.773,0.617-23.875-1.32-26.977-2.141
					c3.762,2.738,12.629,7.117,32.914,10.453c31.801,5.227,40.672,22.59,33,39.426c-7.129,15.625-29.262,66.137-80.703,70.223
					c0.539,0.199,1.07,0.394,1.629,0.59c53.043,18.801,89.75-52.035,92.473-81.781
					C1176.98,757.102,1140.488,749.309,1121.918,750.078z"/>
				<path style="fill:#C33D46;" d="M1080.91,772.617c-9.863-6.742-23.637-2.512-32.473,1.547
					c-5.488,13.184-7.301,25.894-7.301,25.894c-2.738,17.711-7.52,34.488,6.727,49.348
					C1078.891,848.324,1094.965,782.219,1080.91,772.617z"/>
			</g>
			<g>
				<path style="fill:#B72C33;" d="M1002.523,814.023c0,0,16.59-67.141,57.598-46.914c0,0,9.238,4.219,27.801,5.313
					c18.551,1.102,54.078,12.523,48.379,41.844c-5.707,29.324-49.355,96.109-100.238,72.074
					C985.188,862.305,995.941,839.371,1002.523,814.023z"/>
				<path style="fill:#9E1C27;" d="M1004.238,863.789c5.844,7.48,15.766,14.961,31.824,22.551
					c50.883,24.035,94.531-42.75,100.238-72.074c5.699-29.32-29.828-40.742-48.379-41.844c-18.563-1.094-27.801-5.313-27.801-5.313
					c-17.527-8.641-30.59-1.328-39.805,9.883c8.5-3.391,20.395-6.152,29.898-0.75c16.75,9.516,30.785,16.789,44.652,19.59
					c13.867,2.801,27.105,15.289-1.426,51.547C1068.305,879.324,1026.375,878.316,1004.238,863.789z"/>
				<path style="fill:#821523;" d="M1087.922,772.422c-14.766-0.871-23.621-3.715-26.633-4.844
					c3.473,3.105,11.855,8.355,31.699,13.711c31.117,8.398,38.207,26.563,28.867,42.547c-8.66,14.824-35.758,62.856-87.348,61.75
					c0.512,0.25,1.027,0.5,1.555,0.754c50.883,24.035,94.531-42.75,100.238-72.074C1142,784.945,1106.473,773.523,1087.922,772.422z
					"/>
				<path style="fill:#C33D46;" d="M1044.859,790.727c-9.141-7.695-23.27-4.879-32.473-1.734
					c-6.785,12.57-9.863,25.031-9.863,25.031c-4.504,17.348-10.957,33.566,1.723,49.781
					C1035.234,865.848,1057.871,801.695,1044.859,790.727z"/>
			</g>
			<g>
				<path style="fill:#B72C33;" d="M825.625,792.305c0,0,17.367-66.945,58.137-46.246c0,0,9.188,4.32,27.731,5.633
					c18.543,1.313,53.934,13.148,47.887,42.398c-6.031,29.258-50.449,95.535-101.051,70.91
					C807.734,840.379,818.758,817.574,825.625,792.305z"/>
				<path style="fill:#9E1C27;" d="M826.762,842.086c5.762,7.547,15.59,15.137,31.566,22.914
					c50.602,24.625,95.02-41.652,101.051-70.91c6.047-29.25-29.344-41.086-47.887-42.398c-18.543-1.313-27.731-5.633-27.731-5.633
					c-17.426-8.848-30.57-1.684-39.918,9.418c8.547-3.293,20.469-5.91,29.91-0.402c16.633,9.711,30.598,17.148,44.422,20.105
					c13.832,2.961,26.926,15.602-2.027,51.527C890.641,858.356,848.734,856.867,826.762,842.086z"/>
				<path style="fill:#821523;" d="M911.492,751.691c-14.742-1.043-23.57-3.988-26.566-5.152
					c3.434,3.141,11.762,8.492,31.539,14.078c31.016,8.758,37.891,27.004,28.367,42.879c-8.828,14.723-36.477,62.434-88.059,60.734
					c0.516,0.258,1.027,0.512,1.555,0.769c50.602,24.625,95.02-41.652,101.051-70.91
					C965.426,764.84,930.035,753.004,911.492,751.691z"/>
				<path style="fill:#C33D46;" d="M868.223,769.5c-9.043-7.809-23.199-5.144-32.441-2.106c-6.934,12.484-10.156,24.91-10.156,24.91
					c-4.703,17.293-11.348,33.438,1.144,49.793C857.734,844.504,881.113,780.609,868.223,769.5z"/>
			</g>
			<g>
				<path style="fill:#B72C33;" d="M1149.086,825.09c0,0-33.348-60.594,10.512-73.543c0,0,9.648-3.164,24.031-14.941
					c14.383-11.781,48.23-27.473,63.93-2.059c15.699,25.414,28.906,104.098-24.777,120.938
					C1169.09,872.328,1161.441,848.176,1149.086,825.09z"/>
				<path style="fill:#9E1C27;" d="M1184.094,860.5c9.371,1.531,21.73,0.305,38.688-5.016
					c53.684-16.84,40.477-95.523,24.777-120.938c-15.699-25.414-49.547-9.723-63.93,2.059
					c-14.383,11.777-24.031,14.941-24.031,14.941c-18.742,5.535-23.375,19.766-22.551,34.262
					c3.949-8.262,10.82-18.352,21.465-20.832c18.758-4.363,34.012-8.543,46.102-15.883c12.086-7.348,30.289-7.148,33.902,38.848
					C1241.707,828.465,1210.219,856.16,1184.094,860.5z"/>
				<path style="fill:#821523;" d="M1183.629,736.606c-11.441,9.363-19.879,13.285-22.855,14.492
					c4.66-0.074,14.375-1.895,32.594-11.414c28.566-14.934,46.09-6.391,50.07,11.684c3.688,16.77,16.348,70.445-22.313,104.625
					c0.543-0.168,1.098-0.328,1.656-0.508c53.684-16.84,40.477-95.523,24.777-120.938
					C1231.859,709.133,1198.012,724.824,1183.629,736.606z"/>
				<path style="fill:#C33D46;" d="M1164.391,779.258c-11.93,0.539-20.395,12.191-25.031,20.75
					c3.543,13.832,9.727,25.082,9.727,25.082c8.457,15.801,14.707,32.098,35.023,35.41
					C1208.27,840.992,1181.395,778.488,1164.391,779.258z"/>
			</g>
			<g>
				<path style="fill:#B72C33;" d="M1177.711,835.211c0,0,1.051-69.156,45.563-58.676c0,0,9.941,2.027,28.27-1.086
					c18.336-3.106,55.516,0.031,56.563,29.879c1.047,29.855-26.445,104.758-81.43,92.789
					C1171.691,886.152,1177.012,861.387,1177.711,835.211z"/>
				<path style="fill:#9E1C27;" d="M1190.586,883.313c7.379,5.973,18.727,11.031,36.09,14.805
					c54.984,11.969,82.477-62.934,81.43-92.789c-1.047-29.848-38.227-32.984-56.563-29.879c-18.328,3.113-28.27,1.086-28.27,1.086
					c-19.027-4.481-30.105,5.59-36.559,18.586c7.52-5.223,18.477-10.582,28.965-7.461c18.457,5.504,33.773,9.43,47.91,9.035
					c14.141-0.391,29.855,8.793,10.211,50.543C1256.504,884.019,1215.434,892.481,1190.586,883.313z"/>
				<path style="fill:#821523;" d="M1251.543,775.449c-14.57,2.473-23.836,1.699-27.027,1.277
					c4.082,2.242,13.426,5.469,33.973,6.219c32.203,1.18,43.199,17.281,37.703,34.957c-5.102,16.398-20.691,69.297-71.211,79.832
					c0.566,0.129,1.121,0.258,1.695,0.383c54.984,11.969,82.477-62.934,81.43-92.789
					C1307.059,775.481,1269.879,772.344,1251.543,775.449z"/>
				<path style="fill:#C33D46;" d="M1213.719,802.977c-10.641-5.441-23.766,0.488-32.031,5.625
					c-3.781,13.773-3.977,26.609-3.977,26.609c-0.48,17.914-3.117,35.172,12.887,48.109
					C1221.25,878.34,1228.859,810.731,1213.719,802.977z"/>
			</g>
			<g>
				<path style="fill:#B72C33;" d="M1070.492,868.769c0,0-16.941-67.055,28.766-68.492c0,0,10.133-0.625,27.031-8.387
					c16.887-7.762,53.605-14.383,62.367,14.176c8.758,28.555,1.656,108.023-54.547,110.746
					C1077.898,919.527,1076.605,894.231,1070.492,868.769z"/>
				<path style="fill:#9E1C27;" d="M1095.414,911.879c8.672,3.852,20.949,5.789,38.695,4.934
					c56.203-2.723,63.305-82.191,54.547-110.746c-8.762-28.559-45.48-21.938-62.367-14.176c-16.898,7.762-27.031,8.387-27.031,8.387
					c-19.531,0.617-27.621,13.211-30.48,27.438c5.91-6.988,15.105-15.012,26.035-14.719c19.25,0.52,35.066,0.332,48.621-3.715
					c13.547-4.051,31.102,0.742,22.977,46.156C1159.258,895.453,1121.781,914.289,1095.414,911.879z"/>
				<path style="fill:#821523;" d="M1126.289,791.891c-13.438,6.176-22.598,7.832-25.785,8.25
					c4.527,1.105,14.395,1.797,34.426-2.809c31.406-7.226,46.207,5.473,45.488,23.969c-0.668,17.156-1.992,72.285-48.043,95.578
					c0.574-0.02,1.145-0.043,1.734-0.066c56.203-2.723,63.305-82.191,54.547-110.746
					C1179.895,777.508,1143.176,784.129,1126.289,791.891z"/>
				<path style="fill:#C33D46;" d="M1096.891,828.297c-11.68-2.496-22.816,6.641-29.461,13.742
					c-0.078,14.285,3.063,26.73,3.063,26.73c4.188,17.426,6.113,34.77,24.938,43.117
					C1123.73,899.121,1113.539,831.852,1096.891,828.297z"/>
			</g>
			<g>
				<path style="fill:#B72C33;" d="M802.406,860.57c0,0-16.938-67.051,28.77-68.492c0,0,10.133-0.625,27.023-8.387
					c16.895-7.758,53.613-14.383,62.375,14.176c8.758,28.555,1.656,108.023-54.555,110.742
					C809.816,911.332,808.523,886.027,802.406,860.57z"/>
				<path style="fill:#9E1C27;" d="M827.328,903.684c8.68,3.852,20.949,5.785,38.691,4.926
					c56.211-2.719,63.313-82.188,54.555-110.742c-8.762-28.559-45.48-21.934-62.375-14.176c-16.891,7.762-27.023,8.387-27.023,8.387
					c-19.531,0.617-27.621,13.211-30.484,27.441c5.91-6.992,15.102-15.016,26.035-14.723c19.254,0.52,35.07,0.332,48.621-3.715
					c13.547-4.051,31.105,0.742,22.98,46.16C891.172,887.258,853.699,906.09,827.328,903.684z"/>
				<path style="fill:#821523;" d="M858.199,783.691c-13.434,6.172-22.59,7.832-25.781,8.25c4.531,1.105,14.391,1.797,34.43-2.809
					c31.402-7.227,46.203,5.473,45.484,23.969c-0.668,17.156-1.996,72.289-48.047,95.578c0.582-0.019,1.156-0.039,1.734-0.07
					c56.211-2.719,63.313-82.188,54.555-110.742C911.813,769.309,875.094,775.934,858.199,783.691z"/>
				<path style="fill:#C33D46;" d="M828.809,820.098c-11.684-2.496-22.816,6.641-29.461,13.746
					c-0.078,14.281,3.059,26.727,3.059,26.727c4.191,17.426,6.117,34.773,24.934,43.117
					C855.652,890.918,845.449,823.652,828.809,820.098z"/>
			</g>
			<g>
				<path style="fill:#B72C33;" d="M923.684,826.484c0,0,24.297-64.75,62.672-39.879c0,0,8.684,5.266,26.988,8.516
					c18.305,3.254,52.246,18.742,43.168,47.195c-9.082,28.461-60.215,89.703-107.941,59.898
					C900.836,872.414,914.191,850.891,923.684,826.484z"/>
				<path style="fill:#9E1C27;" d="M919.578,876.113c4.941,8.105,13.918,16.691,28.992,26.102
					c47.727,29.805,98.859-31.438,107.941-59.898c9.078-28.453-24.863-43.941-43.168-47.195c-18.305-3.25-26.988-8.516-26.988-8.516
					c-16.398-10.629-30.227-4.887-40.68,5.168c8.836-2.375,20.965-3.727,29.777,2.746c15.523,11.402,28.625,20.266,42.066,24.66
					c13.441,4.402,25.133,18.344-7.43,51.031C981.398,899.004,939.875,893.121,919.578,876.113z"/>
				<path style="fill:#821523;" d="M1013.344,795.121c-14.559-2.586-23.02-6.445-25.887-7.918
					c3.094,3.488,10.797,9.684,29.891,17.316c29.918,11.965,34.84,30.832,23.703,45.621c-10.324,13.715-42.836,58.258-93.949,51.148
					c0.484,0.309,0.965,0.617,1.469,0.926c47.727,29.805,98.859-31.438,107.941-59.898
					C1065.59,813.863,1031.648,798.375,1013.344,795.121z"/>
				<path style="fill:#C33D46;" d="M968.441,808.277c-8.18-8.707-22.531-7.551-32.043-5.5
					c-8.203,11.691-12.715,23.707-12.715,23.707c-6.5,16.699-14.797,32.059-4.094,49.641
					C950.129,881.769,980.09,820.688,968.441,808.277z"/>
			</g>
			<g>
				<path style="fill:#E09A60;" d="M1235.414,1034.434c36.086-4.672,55.309-27.043,61.402-62.711l5.23-137.176H801.93l5.051,137.176
					c5.578,35.668,24.805,58.781,61.316,62.711C868.297,1034.434,1044.438,1053.855,1235.414,1034.434z"/>
				<path style="fill:#C37C46;" d="M1272.637,845.606c0,0-3.195,142.156-7.871,161.785c-4.664,19.637-14.883,11.52-14.883,11.52
					l9.223-176L1272.637,845.606z"/>
				<polygon style="fill:#E09A60;" points="1259.32,1017.684 1260.371,990.644 1242.039,990.644 1240.996,1017.684 				"/>
				<path style="fill:#C37C46;" d="M1259.32,1017.684l1.051-27.039h-8.758c-0.555,10.125-1.133,19.336-1.73,27.039H1259.32z"/>
				<path style="fill:#94592F;" d="M1259.32,1017.684l1.051-27.039h-4.375c-0.609,10.254-1.23,19.492-1.863,27.039H1259.32z"/>
				<g>
					<polygon style="fill:#C37C46;" points="1215.375,1030.891 1220.324,840.285 1202.016,839.813 1197.051,1030.891 					"/>
				</g>
				<polygon style="fill:#E09A60;" points="1159.926,1030.219 1160.594,994.082 1142.273,994.082 1141.602,1030.219 				"/>
				<path style="fill:#C37C46;" d="M1159.926,1030.219l0.668-36.137h-8.586c-0.301,13.977-0.734,26.492-1.352,36.137H1159.926z"/>
				<path style="fill:#94592F;" d="M1159.926,1030.219l0.668-36.137h-3.852c-0.359,14.145-0.918,26.699-1.754,36.137H1159.926z"/>
				<path style="fill:#C37C46;" d="M1099.77,1042.574c4.992-0.109,10.035-0.238,15.117-0.395
					c4.215-40.574,11.977-185.559,11.977-185.559l-33.234-4.246L1099.77,1042.574z"/>
				<path style="fill:#C37C46;" d="M1052.082,1043.059c5.922,0.008,11.945-0.008,18.051-0.051l2.156-206.281l-2.582-2.18h-18.02
					C1051.816,879.379,1052.188,1009.758,1052.082,1043.059z"/>
				<path style="fill:#B06A39;" d="M966.465,852.375c0,0-1.102,153.879-2.578,176.555c-1.473,22.676-10.594,4.32-10.594,4.32
					l-4.492-178.336L966.465,852.375z"/>
				<path style="fill:#E09A60;" d="M959.746,946.516l-1.516-87.711c-6.34-0.277-12.453-0.578-18.34-0.894l1.535,88.605H959.746z"/>
				<path style="fill:#C37C46;" d="M959.746,946.516l-1.516-87.711c-3.203-0.141-6.348-0.285-9.43-0.441
					c0.07,14.059,0.313,50.828,0.894,88.152H959.746z"/>
				<path style="fill:#94592F;" d="M959.746,946.516l-1.516-87.711c-1.66-0.066-3.305-0.144-4.937-0.223
					c0.234,14.164,0.855,50.539,1.625,87.934H959.746z"/>
				<path style="fill:#C37C46;" d="M871.773,1034.797c-0.027-0.195-0.039-0.352-0.082-0.555
					c-1.973-9.254-7.731-150.457-7.731-150.457l-17.531-9.121c0,0,7.078,152.117,11.547,157.996c0.016,0.02,0.031,0.039,0.043,0.055
					c3.266,0.75,6.68,1.328,10.277,1.719C868.297,1034.434,869.5,1034.563,871.773,1034.797z"/>
				<path style="fill:#C37C46;" d="M911.508,836.727c0,0,4.813,186.117,5.918,195.336l-13.281-5.461V842.91L911.508,836.727z"/>
				<path style="fill:#7A4624;" d="M805.578,933.578c29.481,9.254,257.863,43.359,492.816-3.195l0.93-24.527
					c-69.367,7.363-404.199,40.496-494.598,4.68L805.578,933.578z"/>
				<path style="fill:#E09A60;" d="M1262.191,943.688l3.645-94.144c-5.406,0.641-11.527,1.32-18.414,2.027l-3.563,92.117H1262.191z"
					/>
				<path style="fill:#C37C46;" d="M1262.191,943.688l3.645-94.144c-2.766,0.324-5.715,0.664-8.848,1.016
					c-0.414,14.582-1.59,53.953-3.184,93.129H1262.191z"/>
				<path style="fill:#94592F;" d="M1262.191,943.688l3.645-94.144c-1.219,0.144-2.473,0.289-3.762,0.434
					c-0.523,15.66-1.902,55.019-3.664,93.711H1262.191z"/>
				<path style="fill:#7A4624;" d="M806.469,957.793l0.512,13.93c0.508,3.254,1.137,6.406,1.883,9.445
					c38.055,10.113,258.832,41.144,486.73-3.258c0.453-2.016,0.863-4.078,1.223-6.188l0.711-18.746
					C1223.324,960.785,897.313,992.551,806.469,957.793z"/>
				<rect x="1042.355" y="995.926" style="fill:#E09A60;" width="18.32" height="47.938"/>
				<path style="fill:#C37C46;" d="M1060.676,1043.863v-47.938h-9.441c0.176,21.711,0.457,39.617,0.914,47.938H1060.676z"/>
				<path style="fill:#94592F;" d="M1060.676,1043.863v-47.938h-5.73c0.141,22.098,0.328,40.223,0.594,47.938H1060.676z"/>
				<rect x="1042.355" y="892.313" style="fill:#E09A60;" width="18.32" height="66.375"/>
				<path style="fill:#C37C46;" d="M1060.676,958.688v-66.375h-9.672c-0.027,19.219-0.027,43.102,0.039,66.375H1060.676z"/>
				<path style="fill:#94592F;" d="M1060.676,958.688v-66.375h-6.055c0.023,18.699,0.066,42.773,0.156,66.375H1060.676z"/>
				<path style="fill:#E09A60;" d="M960.144,969.379l-1.914-110.574c-6.34-0.277-12.453-0.578-18.34-0.894l1.93,111.469H960.144z"/>
				<path style="fill:#C37C46;" d="M960.144,969.379l-1.914-110.574c-3.203-0.141-6.348-0.285-9.43-0.441
					c0.09,16.945,0.414,66.871,1.301,111.016H960.144z"/>
				<path style="fill:#94592F;" d="M960.144,969.379l-1.914-110.574c-1.66-0.066-3.305-0.144-4.937-0.223
					c0.285,17.051,1.133,66.324,2.101,110.797H960.144z"/>
				<polygon style="fill:#E09A60;" points="861.519,1024.32 860.266,988.188 841.941,988.188 843.184,1024.32 				"/>
				<path style="fill:#C37C46;" d="M861.519,1024.32l-1.254-36.133h-10.711c0.855,14.656,1.688,27.34,2.422,36.133H861.519z"/>
				<path style="fill:#94592F;" d="M861.519,1024.32l-1.254-36.133h-6.168c0.594,14.098,1.219,26.641,1.848,36.133H861.519z"/>
				<path style="fill:#7A4624;" d="M802.941,861.988c57.004,5.625,379.457,35.277,498.105-1.164l1-26.277H801.93L802.941,861.988z"
					/>
				<path style="fill:#E09A60;" d="M858.738,943.934l-3.203-92.441c-6.895-0.707-13.008-1.391-18.395-2.039l3.27,94.48H858.738z"/>
				<path style="fill:#C37C46;" d="M858.738,943.934l-3.203-92.441c-4.672-0.477-8.949-0.949-12.93-1.402
					c0.77,16.934,2.559,55.863,4.516,93.844H858.738z"/>
				<path style="fill:#94592F;" d="M858.738,943.934l-3.203-92.441c-1.992-0.203-3.906-0.402-5.773-0.605
					c0.422,16.797,1.414,55.074,2.68,93.047H858.738z"/>
				<path style="fill:#7A4624;" d="M1301.273,854.914c-278.238,41.762-496.125,0.652-498.586,0.172l1,27.207
					c12.25,2.246,61.203,10.539,140.344,15.285c28.602,1.715,62.789,2.977,101.41,2.977c72.734,0,158.527-4.098,254.793-18.527
					L1301.273,854.914z"/>
				<path style="fill:#E09A60;" d="M1161.313,955.246l1.793-97.293c-5.883,0.313-12.004,0.605-18.336,0.887l-1.781,96.406H1161.313z
					"/>
				<path style="fill:#C37C46;" d="M1152.543,955.246h8.77l1.793-97.293c-3.496,0.18-7.09,0.363-10.746,0.535
					C1152.539,877.578,1152.82,917.055,1152.543,955.246z"/>
				<path style="fill:#94592F;" d="M1157.281,955.246h4.031l1.793-97.293c-2.176,0.113-4.398,0.223-6.648,0.336
					C1156.801,876.156,1157.453,916.402,1157.281,955.246z"/>
				<g>
					<polygon style="fill:#C37C46;" points="1209.965,1027.27 1214.918,836.66 1196.605,836.184 1191.648,1027.27 					"/>
				</g>
				<path style="fill:#94592F;" d="M1199.16,1027.27h10.805l4.953-190.609l-6.516-0.168
					C1207.668,876.906,1205.316,974.461,1199.16,1027.27z"/>
				<g>
					<polygon style="fill:#C37C46;" points="1110.379,1034.277 1112.094,836.504 1093.773,836.344 1092.059,1034.277 					"/>
				</g>
				<path style="fill:#94592F;" d="M1100.418,1034.277h9.961l1.715-197.773l-9.965-0.09
					C1102.309,872.266,1102.746,996.789,1100.418,1034.277z"/>
				<g>
					<polygon style="fill:#C37C46;" points="1011.019,1039.805 1009.262,836.344 990.938,836.504 992.695,1039.805 					"/>
				</g>
				<path style="fill:#94592F;" d="M1000.578,1039.805h10.441l-1.758-203.461l-10.656,0.094
					C998.844,871.383,999.766,1000.926,1000.578,1039.805z"/>
				<g>
					<polygon style="fill:#C37C46;" points="911.508,1032.063 906.426,836.184 888.117,836.66 893.184,1032.063 					"/>
				</g>
				<path style="fill:#94592F;" d="M904.602,1032.063h6.906l-5.082-195.879l-10.676,0.281
					C897.102,875.098,901.563,998.887,904.602,1032.063z"/>
				<g>
					<path style="fill:#E09A60;" d="M1051.855,860.891c-83.609,0-150.418-5.059-182.801-8.074
						c-27.086-2.52-44.598-4.875-54.516-6.414c-6.57-1.019-11.816-1.984-15.582-2.875c-4.102-0.965-16.594-3.91-16.594-16.531
						c0-8.305,6.727-15.035,15.035-15.035c2.836,0,5.484,0.785,7.746,2.145c15.191,3.98,113.82,16.715,246.711,16.715
						c132.887,0,231.523-12.734,246.703-16.715c2.266-1.359,4.922-2.145,7.754-2.145c8.301,0,15.039,6.731,15.039,15.035
						c0,12.621-12.492,15.566-16.605,16.531c-3.766,0.891-9.008,1.856-15.57,2.875c-9.93,1.539-27.434,3.895-54.512,6.414
						C1202.273,855.832,1135.461,860.891,1051.855,860.891z"/>
				</g>
				<path style="fill:#FDC890;" d="M1298.559,814.106c-15.18,3.98-113.816,16.715-246.703,16.715
					c-132.891,0-231.52-12.734-246.711-16.715c-2.262-1.359-4.91-2.145-7.746-2.145c-3.371,0-6.473,1.121-8.98,2.996
					c3.789,2.801,8.351,3.895,10.539,4.41c3.766,0.891,9.012,1.852,15.582,2.871c9.918,1.535,27.43,3.898,54.516,6.418
					c32.383,3.016,99.191,8.07,182.801,8.07c83.605,0,150.418-5.055,182.809-8.07c27.078-2.519,44.582-4.883,54.512-6.418
					c6.563-1.02,11.805-1.98,15.57-2.871c2.195-0.516,6.754-1.609,10.543-4.41c-2.508-1.875-5.605-2.996-8.977-2.996
					C1303.48,811.961,1300.824,812.746,1298.559,814.106z"/>
				<path style="fill:#C37C46;" d="M1315.957,826.402c-3.941,0.887-9.418,1.852-16.285,2.867
					c-10.367,1.539-28.668,3.899-56.977,6.422c-33.84,3.016-103.672,8.07-191.059,8.07c-87.383,0-157.211-5.055-191.059-8.07
					c-28.301-2.523-46.609-4.883-56.973-6.422c-6.871-1.016-12.348-1.98-16.285-2.867c-1.129-0.254-2.871-0.652-4.82-1.328
					c-0.09,0.637-0.137,1.269-0.137,1.922c0,12.621,12.492,15.566,16.594,16.531c3.766,0.891,9.012,1.856,15.582,2.875
					c9.918,1.539,27.43,3.895,54.516,6.414c32.383,3.016,99.191,8.074,182.801,8.074c83.605,0,150.418-5.059,182.809-8.074
					c27.078-2.52,44.582-4.875,54.512-6.414c6.563-1.019,11.805-1.984,15.57-2.875c4.113-0.965,16.605-3.91,16.605-16.531
					c0-0.703-0.066-1.391-0.164-2.063C1319.082,825.688,1317.172,826.129,1315.957,826.402z"/>
				<path style="opacity:0.6;fill:#94592F;" d="M1299.672,836.648c-10.367,1.535-28.668,3.895-56.977,6.414
					c-33.84,3.016-103.672,8.074-191.059,8.074c-87.383,0-157.211-5.059-191.059-8.074c-28.301-2.519-46.609-4.879-56.973-6.414
					c-6.871-1.016-12.348-1.984-16.285-2.875c-0.953-0.211-2.34-0.535-3.91-1.031c3.074,7.828,12.16,9.992,15.547,10.785
					c3.766,0.891,9.012,1.856,15.582,2.875c9.918,1.539,27.43,3.895,54.516,6.414c32.383,3.016,99.191,8.074,182.801,8.074
					c83.605,0,150.418-5.059,182.809-8.074c27.078-2.52,44.582-4.875,54.512-6.414c6.563-1.019,11.805-1.984,15.57-2.875
					c3.422-0.801,12.602-2.992,15.613-10.945c-1.773,0.582-3.352,0.957-4.402,1.191
					C1312.016,834.664,1306.539,835.633,1299.672,836.648z"/>
				<g>
					<path style="fill:#E09A60;" d="M1045.441,893.555c-38.621,0-72.809-1.262-101.41-2.98
						c-90.063-5.402-141.051-15.402-143.313-15.848l-0.617-27.164l2.578,0.516l0,0c2.375,0.465,221.512,41.844,500.93-0.516
						l-0.738,27.07C1205.523,889.391,1118.844,893.555,1045.441,893.555z"/>
				</g>
				<path style="fill:#FDC890;" d="M802.68,848.078l-2.578-0.516l0.105,4.902c0.746,0.148,2.129,0.426,2.129,0.426
					c2.375,0.469,221.512,41.84,500.93-0.516l-0.602,22.289c0.066-0.012,0.137-0.02,0.207-0.031l0.738-27.07
					C1024.191,889.922,805.055,848.543,802.68,848.078z"/>
				<path style="fill:#C9804A;" d="M800.719,874.727c1.891,0.375,37.754,7.402,101.945,12.852
					c46.566,1.813,101.523,4.055,147.574,5.957c72.371-0.176,157.379-4.465,252.633-18.902l0.375-13.664
					c-12.836,3.535-30.895,3.023-33.227,2.91c-2.328-0.113-1.441-7.164-0.668-11.504c-8.469,1.102-16.863,2.125-25.191,3.078
					l-0.777,13.02c-3.625,3.012-74.234,6.883-76.203,6.883c-1.297,0,0.41-7.703,1.723-12.969c-9.762,0.68-19.41,1.269-28.91,1.773
					l-0.344,11.863c-32.445,3.684-74.73,0-74.73,0v-9.492c-8.891,0.094-17.598,0.109-26.141,0.07
					c0.828,3.57,1.051,7.656-1.883,8.672c-5.461,1.879-70.309-0.41-73.258-0.012c-1.805,0.246-2.137-5.918-2.121-10.738
					c-8.844-0.438-17.391-0.93-25.605-1.461c0.285,4.59,0.406,10.609-0.785,11.801c-1.965,1.965-69.324-3.93-72.461-4.305
					c-2.145-0.254-2.363-8.836-2.285-14.238c-9.715-1.121-18.324-2.223-25.715-3.238c0.656,3.813,0.934,9.387-2.184,12.438
					c-3.516,3.445-21.516-2.207-32.102-5.949L800.719,874.727z"/>
				<path style="fill:#94592F;" d="M800.516,865.856l0.203,8.871c2.262,0.445,53.25,10.445,143.313,15.848
					c28.602,1.719,62.789,2.98,101.41,2.98c73.402,0,160.082-4.164,257.43-18.922l0.238-8.742
					C1082.426,904.328,847.504,872.894,800.516,865.856z"/>
				<g>
					<path style="fill:#E09A60;" d="M1045.578,943.18c-38.621,0-72.816-1.266-101.41-2.977
						c-90.07-5.402-138.957-15.023-141.215-15.469l-0.137-27.031l0,0l0,0c2.371,0.469,219.519,42.258,498.934-0.102l-1.559,27.078
						C1202.844,939.438,1118.977,943.18,1045.578,943.18z"/>
				</g>
				<path style="fill:#FDC890;" d="M1301.441,903.059l0.309-5.457c-279.414,42.359-496.563,0.57-498.934,0.102l0,0l0.019,5.418
					C805.816,903.703,1022.57,945.273,1301.441,903.059z"/>
				<path style="fill:#C9804A;" d="M1045.242,929.418c-38.953,0-73.434-1.266-102.277-2.981
					c-81.188-4.824-129.172-13.019-140.086-15.027l0.074,13.324c2.258,0.445,51.145,10.066,141.215,15.469
					c28.594,1.711,62.789,2.977,101.41,2.977c73.398,0,157.266-3.742,254.613-18.5l0.785-13.613
					C1203.254,925.695,1119.004,929.418,1045.242,929.418z"/>
				<path style="fill:#94592F;" d="M942.848,933.813c-80.848-4.805-128.742-12.949-139.926-14.996l0.031,5.918
					c2.258,0.445,51.145,10.066,141.215,15.469c28.594,1.711,62.789,2.977,101.41,2.977c73.398,0,157.266-3.742,254.613-18.5
					l0.355-6.191c-97.59,14.582-181.742,18.305-255.422,18.305C1006.172,936.793,971.688,935.527,942.848,933.813z"/>
				<g>
					<polygon style="fill:#C37C46;" points="992.008,959.426 992.695,1039.805 1011.019,1039.805 1010.316,959.426 					"/>
					<polygon style="fill:#C37C46;" points="1010.199,945.41 1009.863,906.82 991.551,906.82 991.883,945.41 					"/>
				</g>
				<path style="fill:#94592F;" d="M999.574,959.426c0.32,33.504,0.668,64.504,1.004,80.379h10.441l-0.703-80.379H999.574z"/>
				<path style="fill:#94592F;" d="M1010.199,945.41l-0.336-38.59h-10.731c0.09,12.504,0.203,25.605,0.32,38.59H1010.199z"/>
				<g>
					<path style="fill:#E09A60;" d="M1045.707,992.813c-38.625,0-72.809-1.266-101.402-2.981
						c-90.07-5.398-136.813-14.644-139.066-15.09c0,0-4.723-10.648-2.285-27.406l0,0c2.367,0.469,218.18,42.457,497.594,0.098
						l-1.391,27.051C1201.809,989.242,1119.113,992.813,1045.707,992.813z"/>
				</g>
				<path style="fill:#FDC890;" d="M802.953,951.023c2.367,0.469,218.074,42.434,497.406,0.129l0.188-3.719
					c-279.414,42.359-495.227,0.371-497.594-0.098c-0.176,1.219-0.313,2.398-0.414,3.555L802.953,951.023z"/>
				<path style="fill:#C9804A;" d="M1296.902,962.785c0,0-179.941,18.227-253.344,18.227c-38.625,0-72.809-1.266-101.41-2.981
					c-90.066-5.398-136.809-14.641-139.066-15.09c0,0-0.285-0.652-0.68-1.875c0.59,8.621,2.836,13.676,2.836,13.676
					c2.254,0.445,48.996,9.691,139.066,15.09c28.594,1.715,62.777,2.981,101.402,2.981c73.406,0,156.102-3.57,253.449-18.328
					l0.641-12.484C1298.867,962.137,1297.824,962.644,1296.902,962.785z"/>
				<path style="fill:#94592F;" d="M1043.488,987.34c-38.629,0-72.816-1.266-101.41-2.98
					c-86.055-5.156-132.519-13.816-138.473-14.973c0.031,0.117,0.051,0.23,0.082,0.344c0.258,1.086,0.516,2.016,0.75,2.758
					c0.012,0.043,0.019,0.09,0.039,0.133c0.066,0.227,0.137,0.422,0.199,0.613c0.019,0.066,0.051,0.137,0.059,0.199
					c0.059,0.164,0.117,0.316,0.168,0.449c0.023,0.063,0.043,0.121,0.066,0.176c0.039,0.109,0.078,0.211,0.113,0.297
					c0.02,0.059,0.031,0.101,0.051,0.148c0.02,0.047,0.047,0.109,0.059,0.144c0.019,0.047,0.047,0.094,0.047,0.094
					c2.254,0.445,48.996,9.691,139.066,15.09c28.594,1.715,62.777,2.981,101.402,2.981c73.406,0,156.102-3.57,253.449-18.328
					l0.281-5.438C1202.191,983.773,1116.828,987.34,1043.488,987.34z"/>
				<g>
					<path style="fill:#E09A60;" d="M1290.453,998.574c-279.426,42.355-474.129,0.785-476.496,0.313
						c2.481,21.238,14.102,29.066,14.102,29.066c2.266,0.449,32.273,6.078,116.379,11.508c28.59,1.844,62.781,2.984,101.406,2.984
						c93.809,0,162.52-6.523,230.754-15.199C1276.598,1027.246,1291.305,1016.465,1290.453,998.574z"/>
				</g>
				<path style="fill:#C9804A;" d="M828.059,1027.953c2.266,0.449,27.359,6.48,111.469,11.906
					c28.59,1.848,67.692,2.586,106.316,2.586c93.809,0,157.043-1.902,230.754-15.199c0,0,8.184-6,11.984-16.484
					c-260.434,39.18-446.844,5.496-471.734,0.602C821.148,1023.258,828.059,1027.953,828.059,1027.953z"/>
				<path style="fill:#94592F;" d="M820.004,1018.234c3.879,6.863,8.055,9.719,8.055,9.719c2.266,0.449,27.359,6.48,111.469,11.906
					c28.59,1.848,67.692,2.586,106.316,2.586c93.809,0,157.043-1.902,230.754-15.199c0,0,4.715-3.469,8.652-9.723
					C1035.492,1054.582,854.5,1024.723,820.004,1018.234z"/>
				<path style="fill:#FDC890;" d="M1290.082,1003.363c0.031,0.5,0.031,0.984,0.031,1.469c0.309-1.973,0.441-4.063,0.34-6.258
					c-279.426,42.355-474.129,0.785-476.496,0.313c0.211,1.789,0.504,3.445,0.824,5.043
					C831.379,1007.289,1021.617,1044.066,1290.082,1003.363z"/>
				<path style="fill:#E09A60;" d="M857.043,894.898l-1.508-43.406c-6.895-0.707-13.008-1.391-18.395-2.039l1.57,45.445H857.043z"/>
				<path style="fill:#C37C46;" d="M857.043,894.898l-1.508-43.406c-4.672-0.477-8.949-0.949-12.93-1.402
					c0.426,9.434,1.176,25.691,2.09,44.809H857.043z"/>
				<path style="fill:#94592F;" d="M857.043,894.898l-1.508-43.406c-1.992-0.203-3.906-0.402-5.773-0.605
					c0.234,9.305,0.645,25.215,1.18,44.012H857.043z"/>
				<polygon style="fill:#E09A60;" points="860.332,990.023 858.688,942.461 840.359,942.461 842.008,990.023 				"/>
				<path style="fill:#C37C46;" d="M860.332,990.023l-1.644-47.563h-11.633c0.852,16.621,1.742,33.113,2.602,47.563H860.332z"/>
				<path style="fill:#94592F;" d="M860.332,990.023l-1.644-47.563h-6.289c0.551,16.457,1.145,32.895,1.777,47.563H860.332z"/>
				<g>
					<polygon style="fill:#C37C46;" points="909.07,938.281 908.156,902.883 889.832,902.883 890.75,938.281 					"/>
					<path style="fill:#C37C46;" d="M912.266,1032.063l-1.758-38.473h-18.32l0.996,38.473c0,0-0.57,5.715,5.016,6.824h12.586
						C910.785,1038.887,912.656,1036.504,912.266,1032.063z"/>
				</g>
				<path style="fill:#94592F;" d="M909.07,938.281l-0.914-35.398h-9.957c0.449,11.508,0.926,23.5,1.426,35.398H909.07z"/>
				<path style="fill:#E09A60;" d="M959.019,904.481l-0.789-45.676c-6.34-0.277-12.453-0.578-18.34-0.894l0.809,46.57H959.019z"/>
				<path style="fill:#E09A60;" d="M1162.414,895.266l0.691-37.313c-5.883,0.313-12.004,0.605-18.336,0.887l-0.676,36.426H1162.414z
					"/>
				<path style="fill:#C37C46;" d="M959.019,904.481l-0.789-45.676c-3.203-0.141-6.348-0.285-9.43-0.441
					c0.039,8.586,0.148,25.641,0.363,46.117H959.019z"/>
				<path style="fill:#94592F;" d="M959.019,904.481l-0.789-45.676c-1.66-0.066-3.305-0.144-4.937-0.223
					c0.148,8.637,0.434,25.543,0.809,45.899H959.019z"/>
				<path style="fill:#E09A60;" d="M960.938,1015.508l-1.043-60.512h-18.32l1.027,59.43
					C948.535,1014.816,954.648,1015.176,960.938,1015.508z"/>
				<path style="fill:#C37C46;" d="M960.938,1015.508l-1.043-60.512h-10.059c0.375,21.871,0.867,43.34,1.531,59.973
					C954.512,1015.16,957.699,1015.336,960.938,1015.508z"/>
				<path style="fill:#94592F;" d="M960.938,1015.508l-1.043-60.512h-4.809c0.453,21.66,0.953,43.106,1.434,60.277
					C957.98,1015.352,959.461,1015.43,960.938,1015.508z"/>
				<path style="fill:#94592F;" d="M903.988,1038.887h6.797c0,0,1.871-2.383,1.48-6.824l-1.758-38.473h-8.223L903.988,1038.887z"/>
				<g>
					<path style="fill:#C37C46;" d="M1011.019,1039.805l-0.223-25.438h-18.32l0.219,25.438c0,0-0.219,2.117,1.977,2.641
						c3.281,0.77,14.477,1.047,14.477,1.047S1011.047,1043.586,1011.019,1039.805z"/>
				</g>
				<path style="fill:#94592F;" d="M1009.148,1043.492c0,0,1.898,0.094,1.871-3.688l-0.223-25.438h-10.621
					c0.106,8.492,0.488,21.18,0.699,28.965C1004.891,1043.566,1009.148,1043.492,1009.148,1043.492z"/>
				<path style="fill:#E09A60;" d="M1060.676,904.481v-43.609c-2.918,0.012-5.855,0.02-8.82,0.02c-3.195,0-6.355-0.012-9.5-0.023
					v43.613H1060.676z"/>
				<path style="fill:#C37C46;" d="M1060.676,904.481v-43.609c-2.918,0.012-5.855,0.02-8.82,0.02c-0.262,0-0.523,0-0.789,0
					c-0.023,9.152-0.063,24.934-0.078,43.59H1060.676z"/>
				<path style="fill:#94592F;" d="M1060.676,904.481v-43.609c-2.016,0.004-4.055,0.008-6.082,0.012
					c0.008,6.461,0.012,22.949,0.039,43.598H1060.676z"/>
				<rect x="1042.355" y="953.152" style="fill:#E09A60;" width="18.32" height="44.621"/>
				<path style="fill:#C37C46;" d="M1060.676,997.773v-44.621h-9.648c0.035,15.469,0.109,30.852,0.227,44.621H1060.676z"/>
				<path style="fill:#94592F;" d="M1060.676,997.773v-44.621h-5.918c0.051,15.426,0.113,30.84,0.203,44.621H1060.676z"/>
				<g>
					<polygon style="fill:#C37C46;" points="1111.098,950.941 1111.488,905.957 1093.168,905.957 1092.777,950.941 					"/>
				</g>
				<path style="fill:#94592F;" d="M1111.098,950.941l0.391-44.984h-9.207c-0.012,14.613-0.055,29.988-0.152,44.984H1111.098z"/>
				<g>
					<path style="fill:#C37C46;" d="M1110.395,1043.063l0.414-47.871h-18.316l-0.445,48.301c0,0-0.668,3.598,8.371,2.953
						C1100.418,1046.445,1110.188,1046.57,1110.395,1043.063z"/>
				</g>
				<path style="fill:#94592F;" d="M1110.395,1043.063l0.414-47.871h-8.992c-0.285,20.855-0.711,40.324-1.375,51.254
					C1100.734,1046.445,1110.188,1046.512,1110.395,1043.063z"/>
				<path style="fill:#C37C46;" d="M1162.414,895.266l0.691-37.313c-3.496,0.18-7.09,0.363-10.746,0.535
					c0.078,8.703,0.184,21.652,0.242,36.777H1162.414z"/>
				<path style="fill:#94592F;" d="M1162.414,895.266l0.691-37.313c-2.176,0.113-4.398,0.223-6.648,0.336
					c0.156,8.297,0.379,21.418,0.563,36.977H1162.414z"/>
				<polygon style="fill:#E09A60;" points="1160.484,999.984 1161.508,944.434 1143.188,944.434 1142.168,999.984 				"/>
				<path style="fill:#C37C46;" d="M1160.484,999.984l1.023-55.551h-8.906c-0.086,19.242-0.301,38.684-0.73,55.551H1160.484z"/>
				<path style="fill:#94592F;" d="M1160.484,999.984l1.023-55.551h-4.203c-0.016,19.289-0.215,38.766-0.727,55.551H1160.484z"/>
				<g>
					<polygon style="fill:#C37C46;" points="1212.023,948.117 1213.332,897.477 1195.02,897.477 1193.699,948.117 					"/>
				</g>
				<path style="fill:#94592F;" d="M1212.023,948.117l1.309-50.641h-6.453c-0.512,16.18-1.168,33.512-1.98,50.641H1212.023z"/>
				<g>
					<path style="fill:#C37C46;" d="M1209.965,1038.516l0.688-37.793h-18.313l-0.691,37.793
						C1191.648,1038.516,1200.152,1045.152,1209.965,1038.516z"/>
				</g>
				<path style="fill:#94592F;" d="M1209.965,1038.516l0.688-37.793h-8.965c-0.711,9.023-1.496,31.34-2.352,40.648
					C1202.375,1041.684,1206.063,1041.156,1209.965,1038.516z"/>
				<path style="fill:#E09A60;" d="M1264.211,891.328l1.625-41.785c-5.406,0.641-11.527,1.32-18.414,2.027l-1.539,39.758H1264.211z"
					/>
				<path style="fill:#C37C46;" d="M1264.211,891.328l1.625-41.785c-2.766,0.324-5.715,0.664-8.848,1.016
					c-0.227,7.789-0.66,22.652-1.262,40.77H1264.211z"/>
				<path style="fill:#94592F;" d="M1264.211,891.328l1.625-41.785c-1.219,0.144-2.473,0.289-3.762,0.434
					c-0.273,8.32-0.801,23.324-1.488,41.352H1264.211z"/>
				<polygon style="fill:#E09A60;" points="1260.293,992.613 1262.332,940.004 1243.996,940.004 1241.961,992.613 				"/>
				<path style="fill:#C37C46;" d="M1260.293,992.613l2.039-52.609h-8.379c-0.734,18.254-1.555,36.629-2.449,52.609H1260.293z"/>
				<path style="fill:#94592F;" d="M1260.293,992.613l2.039-52.609h-3.758c-0.824,18.383-1.738,36.777-2.695,52.609H1260.293z"/>
			</g>
		</g>
		<path style="fill:#C37568;" d="M1275.008,870.543c0,0,8.371,8.008,18.211,11.121c9.844,3.113,8.508,12.926,9.488,19.941
			c0,0,3.121,20.73-2.266,27.109c-5.395,6.383-16.82,14.934-21.641,16.082c-4.82,1.152-23.16,3.633-26.816,2
			c-3.68-1.645-2.563-3.703,1.242-4.984c3.805-1.289,16.613-3.227,19.984-4.769c3.367-1.543,5.227-4.809,2.41-5.957
			c-2.824-1.144-30.57,7.633-33.504,3.934c-2.93-3.703,3.266-5.18,4.477-6.199c1.215-1.016,21.516-6.219,26.66-8.91
			c0,0,0.813-4.469-1.23-5.164c-1.031-0.352-26.773,5.141-29.598,5.606c-7.477,1.234-9.277-3.02-4.797-5.606
			c5.332-3.074,32.426-11.18,32.426-11.18s2.195-2.613-0.988-5.313c0,0-30.566,6.16-32.074,5.824
			c-2.723-0.617-2.25-3.73-0.555-4.859c1.703-1.141,28.563-9.188,31.914-9.621c0,0,1.297-4.129,1-6.516
			c-0.297-2.387-2.215-5.476-3.152-6.348c-0.934-0.867-10.746-9.988-6.191-12.988c0,0,1.379-0.691,3.02,0.461
			C1264.672,865.359,1273.574,869.152,1275.008,870.543z"/>
		<path style="fill:#C37568;" d="M776.262,815.113c0,0-32.668,28.617-10.055,51.301c26.273,26.352,63.07,28.48,75.527,26.352
			l8.098-31.785C849.832,860.981,797.379,800.953,776.262,815.113z"/>
		<path style="fill:#C37568;" d="M869.894,842.215c0,0-9.109,7.156-19.211,9.293c-10.094,2.137-9.731,12.035-11.387,18.918
			c0,0-5.133,20.324-0.391,27.199c4.746,6.879,15.285,16.504,19.973,18.121c4.68,1.617,22.688,5.879,26.5,4.602
			c3.805-1.273,2.902-3.434-0.762-5.078c-3.664-1.652-16.219-4.828-19.418-6.699c-3.207-1.863-4.742-5.297-1.82-6.16
			c2.918-0.863,29.684,10.582,32.957,7.183c3.277-3.398-2.742-5.477-3.852-6.605s-20.797-8.297-25.664-11.469
			c0,0-0.375-4.523,1.731-5.019c1.063-0.246,26.148,7.727,28.91,8.469c7.316,1.957,9.523-2.102,5.32-5.113
			c-5.008-3.582-31.184-14.289-31.184-14.289s-1.926-2.816,1.516-5.188c0,0,29.805,9.109,31.344,8.914
			c2.766-0.34,2.606-3.484,1.023-4.781c-1.578-1.289-27.539-11.922-30.832-12.688c0,0-0.883-4.231-0.352-6.578
			c0.527-2.348,2.738-5.234,3.758-6.008c1.012-0.773,11.684-8.895,7.43-12.324c0,0-1.301-0.824-3.051,0.168
			C880.691,838.07,871.453,840.973,869.894,842.215z"/>
	</g>
	<path style="fill:#40010B;" d="M970.816,336.457"/>
	<path style="fill:#0D4723;" d="M967.605,353.961c0,0,54.918-85.914,159.73,21.785l8.988-7.172c0,0,6.281-93.023-78.227-102.699
		C973.598,256.207,967.254,341.645,967.605,353.961z"/>
	<path style="opacity:0.7;fill:#124F75;" d="M1127.336,375.746l8.988-7.172c0,0,5.207-77.367-57.977-98.32
		c45.281,31.957,48.629,72.258,48.629,72.258c-16.523-33.84-64.902-48.125-64.902-48.125c38.844,26.52,40,42.07,40,42.07
		c-84.566-71.703-134.469,17.504-134.469,17.504S1022.523,268.047,1127.336,375.746z"/>
</g>
</svg>
