<?xml version="1.0" encoding="utf-8"?>
<!-- Generator: Adobe Illustrator 27.5.0, SVG Export Plug-In . SVG Version: 6.00 Build 0)  -->
<svg version="1.1" id="Capa_1" xmlns="http://www.w3.org/2000/svg" xmlns:xlink="http://www.w3.org/1999/xlink" x="0px" y="0px"
	 viewBox="0 0 2122 2122" style="enable-background:new 0 0 2122 2122;" xml:space="preserve">
<g>
	<g>
		<rect y="0.004" style="fill:#FFFFFF;" width="2121.324" height="2121.328"/>
		<g>
			<defs>
				
					<ellipse id="SVGID_1_" transform="matrix(0.7071 -0.7071 0.7071 0.7071 -439.3477 1060.6666)" cx="1060.664" cy="1060.673" rx="927.963" ry="927.962"/>
			</defs>
			<clipPath id="SVGID_00000103266463427858745690000015846544444851151536_">
				<use xlink:href="#SVGID_1_"  style="overflow:visible;"/>
			</clipPath>
			<g style="clip-path:url(#SVGID_00000103266463427858745690000015846544444851151536_);">
				<rect y="-8.273" style="fill:#9CDAE7;" width="2121.324" height="2137.891"/>
				<path style="fill:#71B969;" d="M0,1447.453c0,0,619.117-179.605,745.512-159.648
					c126.387,19.953,432.387,176.281,512.211,202.883c79.824,26.613,792.594-259.43,863.602-232.816v462.32L0,1753.449V1447.453z"/>
				<g>
					<path style="fill:#62A253;" d="M1961.344,1288.613c46.031,19.438,103.813,48.934,159.98,94.945v-125.688
						C2103.102,1251.039,2042.551,1264.828,1961.344,1288.613z"/>
					<path style="fill:#62A253;" d="M1257.723,1490.688c-79.824-26.602-385.824-182.93-512.211-202.883
						c-45.277-7.152-153.793,11.313-274.422,37.953c82.523,11.996,149.891,48.039,194.582,65.141
						c156.414,59.867,322.625,262.75,369.188,256.105c29.816-4.258,212.313-105.598,358.113-178.66
						C1325.59,1486.84,1275.652,1496.672,1257.723,1490.688z"/>
					<g>
						<g>
							<g>
								<g>
									<g>
										<polygon style="fill:#77471C;" points="1488.906,1677.805 1446.684,1677.805 1446.684,1504.777 1463.422,1479.297 
											1471.922,1479.297 1488.906,1504.777 										"/>
										<polygon style="fill:#9E6735;" points="1494.73,1677.805 1452.512,1677.805 1452.512,1504.777 1469.25,1479.297 
											1477.746,1479.297 1494.73,1504.777 										"/>
										<path style="fill:#66B2BF;" d="M1487.766,1508.414c0,1.926-1.559,3.496-3.488,3.496c-1.938,0-3.5-1.57-3.5-3.496
											c0-1.93,1.563-3.5,3.5-3.5C1486.207,1504.914,1487.766,1506.484,1487.766,1508.414z"/>
										<path style="fill:#66B2BF;" d="M1469.855,1508.414c0,1.926-1.566,3.496-3.488,3.496c-1.93,0-3.5-1.57-3.5-3.496
											c0-1.93,1.57-3.5,3.5-3.5C1468.289,1504.914,1469.855,1506.484,1469.855,1508.414z"/>
									</g>
									<g>
										<rect x="1388.199" y="1552.828" style="fill:#5F3413;" width="61.641" height="25.723"/>
										<rect x="1388.199" y="1548.703" style="fill:#865428;" width="61.641" height="25.715"/>
									</g>
									<g>
										<rect x="1388.199" y="1612.52" style="fill:#5F3413;" width="61.641" height="25.727"/>
										<rect x="1388.199" y="1608.398" style="fill:#865428;" width="61.641" height="25.723"/>
									</g>
									<g>
										<polygon style="fill:#77471C;" points="1399.121,1677.805 1356.898,1677.805 1356.898,1504.777 1373.641,1479.297 
											1382.133,1479.297 1399.121,1504.777 										"/>
										<polygon style="fill:#9E6735;" points="1404.949,1677.805 1362.719,1677.805 1362.719,1504.777 1379.469,1479.297 
											1387.953,1479.297 1404.949,1504.777 										"/>
										<path style="fill:#66B2BF;" d="M1397.98,1508.414c0,1.926-1.566,3.496-3.496,3.496s-3.488-1.57-3.488-3.496
											c0-1.93,1.559-3.488,3.488-3.488S1397.98,1506.484,1397.98,1508.414z"/>
										<path style="fill:#66B2BF;" d="M1380.066,1508.414c0,1.926-1.563,3.496-3.492,3.496s-3.496-1.57-3.496-3.496
											c0-1.93,1.566-3.488,3.496-3.488S1380.066,1506.484,1380.066,1508.414z"/>
									</g>
									<g>
										<rect x="1298.41" y="1552.828" style="fill:#5F3413;" width="61.637" height="25.723"/>
										<rect x="1298.41" y="1548.703" style="fill:#865428;" width="61.637" height="25.715"/>
									</g>
									<g>
										<rect x="1298.41" y="1612.52" style="fill:#5F3413;" width="61.637" height="25.727"/>
										<rect x="1298.41" y="1608.398" style="fill:#865428;" width="61.637" height="25.723"/>
									</g>
								</g>
								<g>
									<g>
										<polygon style="fill:#77471C;" points="1309.34,1677.805 1267.105,1677.805 1267.105,1504.777 1283.852,1479.297 
											1292.344,1479.297 1309.34,1504.777 										"/>
										<polygon style="fill:#9E6735;" points="1315.156,1677.805 1272.934,1677.805 1272.934,1504.777 1289.676,1479.297 
											1298.168,1479.297 1315.156,1504.777 										"/>
										<path style="fill:#66B2BF;" d="M1308.188,1508.414c0,1.926-1.559,3.496-3.488,3.496s-3.496-1.57-3.496-3.496
											c0-1.93,1.566-3.488,3.496-3.488S1308.188,1506.484,1308.188,1508.414z"/>
										<path style="fill:#66B2BF;" d="M1290.289,1508.414c0,1.926-1.57,3.496-3.5,3.496c-1.934,0-3.496-1.57-3.496-3.496
											c0-1.93,1.563-3.488,3.496-3.488C1288.719,1504.926,1290.289,1506.484,1290.289,1508.414z"/>
									</g>
									<g>
										<rect x="1208.621" y="1552.828" style="fill:#5F3413;" width="61.645" height="25.723"/>
										<rect x="1208.621" y="1548.703" style="fill:#865428;" width="61.645" height="25.715"/>
									</g>
									<g>
										<rect x="1208.621" y="1612.52" style="fill:#5F3413;" width="61.645" height="25.727"/>
										<rect x="1208.621" y="1608.398" style="fill:#865428;" width="61.645" height="25.723"/>
									</g>
									<g>
										<polygon style="fill:#77471C;" points="1219.547,1677.805 1177.324,1677.805 1177.324,1504.777 1194.063,1479.297 
											1202.563,1479.297 1219.547,1504.777 										"/>
										<polygon style="fill:#9E6735;" points="1225.371,1677.805 1183.141,1677.805 1183.141,1504.777 1199.891,1479.297 
											1208.379,1479.297 1225.371,1504.777 										"/>
										<path style="fill:#66B2BF;" d="M1218.406,1508.414c0,1.926-1.566,3.496-3.496,3.496c-1.934,0-3.492-1.57-3.492-3.496
											c0-1.93,1.559-3.488,3.492-3.488C1216.84,1504.926,1218.406,1506.484,1218.406,1508.414z"/>
										<path style="fill:#66B2BF;" d="M1200.496,1508.414c0,1.926-1.57,3.496-3.5,3.496s-3.488-1.57-3.488-3.496
											c0-1.93,1.559-3.488,3.488-3.488S1200.496,1506.484,1200.496,1508.414z"/>
									</g>
									<g>
										<rect x="1118.84" y="1552.828" style="fill:#5F3413;" width="61.641" height="25.723"/>
										<rect x="1118.84" y="1548.703" style="fill:#865428;" width="61.641" height="25.727"/>
									</g>
									<g>
										<rect x="1118.84" y="1612.52" style="fill:#5F3413;" width="61.641" height="25.727"/>
										<rect x="1118.84" y="1608.398" style="fill:#865428;" width="61.641" height="25.723"/>
									</g>
								</g>
							</g>
							<g>
								<g>
									<g>
										<polygon style="fill:#77471C;" points="1129.762,1677.805 1087.531,1677.805 1087.531,1504.777 1104.281,1479.297 
											1112.77,1479.297 1129.762,1504.777 										"/>
										<polygon style="fill:#9E6735;" points="1135.578,1677.805 1093.359,1677.805 1093.359,1504.777 1110.098,1479.297 
											1118.594,1479.297 1135.578,1504.777 										"/>
										<path style="fill:#66B2BF;" d="M1128.617,1508.414c0,1.926-1.563,3.496-3.5,3.496c-1.922,0-3.492-1.57-3.492-3.496
											c0-1.93,1.57-3.5,3.492-3.5C1127.055,1504.914,1128.617,1506.484,1128.617,1508.414z"/>
										<path style="fill:#66B2BF;" d="M1110.711,1508.414c0,1.926-1.566,3.496-3.496,3.496s-3.5-1.57-3.5-3.496
											c0-1.93,1.57-3.5,3.5-3.5S1110.711,1506.484,1110.711,1508.414z"/>
									</g>
									<g>
										<rect x="1029.047" y="1552.828" style="fill:#5F3413;" width="61.641" height="25.723"/>
										<rect x="1029.047" y="1548.695" style="fill:#865428;" width="61.641" height="25.723"/>
									</g>
									<g>
										<rect x="1029.047" y="1612.52" style="fill:#5F3413;" width="61.641" height="25.727"/>
										<rect x="1029.047" y="1608.398" style="fill:#865428;" width="61.641" height="25.723"/>
									</g>
									<g>
										<polygon style="fill:#77471C;" points="1039.973,1677.805 997.742,1677.805 997.742,1504.777 1014.488,1479.297 
											1022.984,1479.297 1039.973,1504.777 										"/>
										<polygon style="fill:#9E6735;" points="1045.793,1677.805 1003.57,1677.805 1003.57,1504.777 1020.313,1479.297 
											1028.809,1479.297 1045.793,1504.777 										"/>
										<path style="fill:#66B2BF;" d="M1038.832,1508.414c0,1.926-1.566,3.496-3.492,3.496c-1.934,0-3.5-1.57-3.5-3.496
											c0-1.93,1.566-3.5,3.5-3.5C1037.266,1504.914,1038.832,1506.484,1038.832,1508.414z"/>
										<path style="fill:#66B2BF;" d="M1020.922,1508.414c0,1.926-1.566,3.496-3.5,3.496c-1.93,0-3.492-1.57-3.492-3.496
											c0-1.93,1.563-3.5,3.492-3.5C1019.356,1504.914,1020.922,1506.484,1020.922,1508.414z"/>
									</g>
									<g>
										<rect x="939.266" y="1552.828" style="fill:#5F3413;" width="61.633" height="25.723"/>
										<rect x="939.266" y="1548.703" style="fill:#865428;" width="61.633" height="25.715"/>
									</g>
									<g>
										<rect x="939.266" y="1612.52" style="fill:#5F3413;" width="61.633" height="25.727"/>
										<rect x="939.266" y="1608.398" style="fill:#865428;" width="61.633" height="25.723"/>
									</g>
								</g>
								<g>
									<g>
										<polygon style="fill:#77471C;" points="950.18,1677.805 907.957,1677.805 907.957,1504.777 924.703,1479.297 
											933.195,1479.297 950.18,1504.777 										"/>
										<polygon style="fill:#9E6735;" points="956.004,1677.805 913.785,1677.805 913.785,1504.777 930.523,1479.297 
											939.019,1479.297 956.004,1504.777 										"/>
										<path style="fill:#66B2BF;" d="M949.043,1508.414c0,1.926-1.566,3.496-3.492,3.496c-1.93,0-3.492-1.57-3.492-3.496
											c0-1.93,1.563-3.5,3.492-3.5C947.477,1504.914,949.043,1506.484,949.043,1508.414z"/>
										<path style="fill:#66B2BF;" d="M931.133,1508.414c0,1.926-1.563,3.496-3.492,3.496s-3.496-1.57-3.496-3.496
											c0-1.93,1.566-3.5,3.496-3.5S931.133,1506.484,931.133,1508.414z"/>
									</g>
									<g>
										<rect x="849.473" y="1552.828" style="fill:#5F3413;" width="61.641" height="25.723"/>
										<rect x="849.473" y="1548.703" style="fill:#865428;" width="61.641" height="25.715"/>
									</g>
									<g>
										<rect x="849.473" y="1612.52" style="fill:#5F3413;" width="61.641" height="25.727"/>
										<rect x="849.473" y="1608.398" style="fill:#865428;" width="61.641" height="25.723"/>
									</g>
									<g>
										<polygon style="fill:#77471C;" points="860.394,1677.805 818.172,1677.805 818.172,1504.777 834.918,1479.297 
											843.402,1479.297 860.394,1504.777 										"/>
										<polygon style="fill:#9E6735;" points="866.223,1677.805 823.996,1677.805 823.996,1504.777 840.742,1479.297 
											849.23,1479.297 866.223,1504.777 										"/>
										<path style="fill:#66B2BF;" d="M859.254,1508.414c0,1.926-1.563,3.496-3.492,3.496c-1.926,0-3.496-1.57-3.496-3.496
											c0-1.93,1.57-3.488,3.496-3.488C857.691,1504.926,859.254,1506.484,859.254,1508.414z"/>
										<path style="fill:#66B2BF;" d="M841.344,1508.414c0,1.926-1.563,3.496-3.492,3.496s-3.492-1.57-3.492-3.496
											c0-1.93,1.563-3.488,3.492-3.488S841.344,1506.484,841.344,1508.414z"/>
									</g>
									<g>
										<rect x="759.688" y="1552.828" style="fill:#5F3413;" width="61.637" height="25.723"/>
										<rect x="759.688" y="1548.703" style="fill:#865428;" width="61.637" height="25.715"/>
									</g>
									<g>
										<rect x="759.688" y="1612.52" style="fill:#5F3413;" width="61.637" height="25.727"/>
										<rect x="759.688" y="1608.398" style="fill:#865428;" width="61.637" height="25.723"/>
									</g>
								</g>
							</g>
						</g>
						<g>
							<g>
								<g>
									<g>
										<polygon style="fill:#77471C;" points="770.5,1677.805 728.277,1677.805 728.277,1504.777 745.019,1479.297 
											753.512,1479.297 770.5,1504.777 										"/>
										<polygon style="fill:#9E6735;" points="776.328,1677.805 734.098,1677.805 734.098,1504.777 750.848,1479.297 
											759.34,1479.297 776.328,1504.777 										"/>
										<path style="fill:#66B2BF;" d="M769.359,1508.414c0,1.926-1.563,3.496-3.496,3.496c-1.926,0-3.488-1.57-3.488-3.496
											c0-1.93,1.563-3.5,3.488-3.5C767.797,1504.914,769.359,1506.484,769.359,1508.414z"/>
										<path style="fill:#66B2BF;" d="M751.449,1508.414c0,1.926-1.563,3.496-3.492,3.496s-3.496-1.57-3.496-3.496
											c0-1.93,1.566-3.5,3.496-3.5S751.449,1506.484,751.449,1508.414z"/>
									</g>
									<g>
										<rect x="669.793" y="1552.828" style="fill:#5F3413;" width="61.637" height="25.723"/>
										<rect x="669.793" y="1548.703" style="fill:#865428;" width="61.637" height="25.715"/>
									</g>
									<g>
										<rect x="669.793" y="1612.52" style="fill:#5F3413;" width="61.637" height="25.727"/>
										<rect x="669.793" y="1608.398" style="fill:#865428;" width="61.637" height="25.723"/>
									</g>
									<g>
										<polygon style="fill:#77471C;" points="680.719,1677.805 638.488,1677.805 638.488,1504.777 655.234,1479.297 
											663.727,1479.297 680.719,1504.777 										"/>
										<polygon style="fill:#9E6735;" points="686.535,1677.805 644.313,1677.805 644.313,1504.777 661.059,1479.297 
											669.551,1479.297 686.535,1504.777 										"/>
										<path style="fill:#66B2BF;" d="M679.57,1508.414c0,1.926-1.563,3.496-3.492,3.496c-1.93,0-3.492-1.57-3.492-3.496
											c0-1.93,1.563-3.488,3.492-3.488C678.008,1504.926,679.57,1506.484,679.57,1508.414z"/>
										<path style="fill:#66B2BF;" d="M661.66,1508.414c0,1.926-1.563,3.496-3.492,3.496c-1.93,0-3.492-1.57-3.492-3.496
											c0-1.93,1.563-3.488,3.492-3.488C660.098,1504.926,661.66,1506.484,661.66,1508.414z"/>
									</g>
									<g>
										<rect x="580.004" y="1552.828" style="fill:#5F3413;" width="61.641" height="25.723"/>
										<rect x="580.004" y="1548.703" style="fill:#865428;" width="61.641" height="25.715"/>
									</g>
									<g>
										<rect x="580.004" y="1612.52" style="fill:#5F3413;" width="61.641" height="25.727"/>
										<rect x="580.004" y="1608.398" style="fill:#865428;" width="61.641" height="25.723"/>
									</g>
								</g>
								<g>
									<g>
										<polygon style="fill:#77471C;" points="590.926,1677.805 548.703,1677.805 548.703,1504.777 565.449,1479.297 
											573.941,1479.297 590.926,1504.777 										"/>
										<polygon style="fill:#9E6735;" points="596.75,1677.805 554.523,1677.805 554.523,1504.777 571.269,1479.297 
											579.762,1479.297 596.75,1504.777 										"/>
										<path style="fill:#66B2BF;" d="M589.789,1508.414c0,1.926-1.566,3.496-3.5,3.496c-1.93,0-3.492-1.57-3.492-3.496
											c0-1.93,1.563-3.488,3.492-3.488C588.223,1504.926,589.789,1506.484,589.789,1508.414z"/>
										<path style="fill:#66B2BF;" d="M571.875,1508.414c0,1.926-1.566,3.496-3.496,3.496c-1.926,0-3.492-1.57-3.492-3.496
											c0-1.93,1.566-3.488,3.492-3.488C570.309,1504.926,571.875,1506.484,571.875,1508.414z"/>
									</g>
									<g>
										<rect x="490.219" y="1552.828" style="fill:#5F3413;" width="61.637" height="25.723"/>
										<rect x="490.219" y="1548.703" style="fill:#865428;" width="61.637" height="25.715"/>
									</g>
									<g>
										<rect x="490.219" y="1612.52" style="fill:#5F3413;" width="61.637" height="25.727"/>
										<rect x="490.219" y="1608.398" style="fill:#865428;" width="61.637" height="25.723"/>
									</g>
									<g>
										<polygon style="fill:#77471C;" points="501.141,1677.805 458.914,1677.805 458.914,1504.777 475.66,1479.297 
											484.148,1479.297 501.141,1504.777 										"/>
										<polygon style="fill:#9E6735;" points="506.965,1677.805 464.742,1677.805 464.742,1504.777 481.48,1479.297 
											489.973,1479.297 506.965,1504.777 										"/>
										<path style="fill:#66B2BF;" d="M500,1508.414c0,1.926-1.563,3.496-3.5,3.496c-1.926,0-3.492-1.57-3.492-3.496
											c0-1.93,1.566-3.488,3.492-3.488C498.438,1504.926,500,1506.484,500,1508.414z"/>
										<path style="fill:#66B2BF;" d="M482.09,1508.414c0,1.926-1.566,3.496-3.496,3.496c-1.93,0-3.496-1.57-3.496-3.496
											c0-1.93,1.566-3.488,3.496-3.488C480.523,1504.926,482.09,1506.484,482.09,1508.414z"/>
									</g>
									<g>
										<rect x="400.426" y="1552.828" style="fill:#5F3413;" width="61.644" height="25.723"/>
										<rect x="400.426" y="1548.703" style="fill:#865428;" width="61.644" height="25.727"/>
									</g>
									<g>
										<rect x="400.426" y="1612.52" style="fill:#5F3413;" width="61.644" height="25.727"/>
										<rect x="400.426" y="1608.398" style="fill:#865428;" width="61.644" height="25.723"/>
									</g>
								</g>
							</g>
							<g>
								<g>
									<g>
										<polygon style="fill:#77471C;" points="411.352,1677.805 369.125,1677.805 369.125,1504.777 385.867,1479.297 
											394.363,1479.297 411.352,1504.777 										"/>
										<polygon style="fill:#9E6735;" points="417.172,1677.805 374.953,1677.805 374.953,1504.777 391.695,1479.297 
											400.191,1479.297 417.172,1504.777 										"/>
										<path style="fill:#66B2BF;" d="M410.211,1508.414c0,1.926-1.563,3.496-3.496,3.496c-1.926,0-3.492-1.57-3.492-3.496
											c0-1.93,1.566-3.5,3.492-3.5C408.648,1504.914,410.211,1506.484,410.211,1508.414z"/>
										<path style="fill:#66B2BF;" d="M392.305,1508.414c0,1.926-1.566,3.496-3.5,3.496s-3.492-1.57-3.492-3.496
											c0-1.93,1.559-3.5,3.492-3.5S392.305,1506.484,392.305,1508.414z"/>
									</g>
									<g>
										<rect x="310.641" y="1552.828" style="fill:#5F3413;" width="61.641" height="25.723"/>
										<rect x="310.641" y="1548.695" style="fill:#865428;" width="61.641" height="25.723"/>
									</g>
									<g>
										<rect x="310.641" y="1612.52" style="fill:#5F3413;" width="61.641" height="25.727"/>
										<rect x="310.641" y="1608.398" style="fill:#865428;" width="61.641" height="25.723"/>
									</g>
									<g>
										<polygon style="fill:#77471C;" points="321.566,1677.805 279.34,1677.805 279.34,1504.777 296.082,1479.297 
											304.574,1479.297 321.566,1504.777 										"/>
										<polygon style="fill:#9E6735;" points="327.387,1677.805 285.164,1677.805 285.164,1504.777 301.906,1479.297 
											310.402,1479.297 327.387,1504.777 										"/>
										<path style="fill:#66B2BF;" d="M320.426,1508.414c0,1.926-1.566,3.496-3.5,3.496c-1.926,0-3.492-1.57-3.492-3.496
											c0-1.93,1.566-3.5,3.492-3.5C318.859,1504.914,320.426,1506.484,320.426,1508.414z"/>
										<path style="fill:#66B2BF;" d="M302.512,1508.414c0,1.926-1.563,3.496-3.492,3.496c-1.934,0-3.496-1.57-3.496-3.496
											c0-1.93,1.563-3.5,3.496-3.5C300.949,1504.914,302.512,1506.484,302.512,1508.414z"/>
									</g>
									<g>
										<rect x="220.855" y="1552.828" style="fill:#5F3413;" width="61.641" height="25.723"/>
										<rect x="220.855" y="1548.703" style="fill:#865428;" width="61.641" height="25.715"/>
									</g>
									<g>
										<rect x="220.855" y="1612.52" style="fill:#5F3413;" width="61.641" height="25.727"/>
										<rect x="220.855" y="1608.398" style="fill:#865428;" width="61.641" height="25.723"/>
									</g>
								</g>
								<g>
									<g>
										<polygon style="fill:#77471C;" points="231.777,1677.805 189.551,1677.805 189.551,1504.777 206.297,1479.297 
											214.785,1479.297 231.777,1504.777 										"/>
										<polygon style="fill:#9E6735;" points="237.605,1677.805 195.379,1677.805 195.379,1504.777 212.121,1479.297 
											220.613,1479.297 237.605,1504.777 										"/>
										<path style="fill:#66B2BF;" d="M230.633,1508.414c0,1.926-1.559,3.496-3.488,3.496c-1.93,0-3.496-1.57-3.496-3.496
											c0-1.93,1.566-3.5,3.496-3.5C229.074,1504.914,230.633,1506.484,230.633,1508.414z"/>
										<path style="fill:#66B2BF;" d="M212.727,1508.414c0,1.926-1.563,3.496-3.492,3.496c-1.934,0-3.496-1.57-3.496-3.496
											c0-1.93,1.563-3.5,3.496-3.5C211.164,1504.914,212.727,1506.484,212.727,1508.414z"/>
									</g>
									<g>
										<rect x="131.07" y="1552.828" style="fill:#5F3413;" width="61.637" height="25.723"/>
										<rect x="131.07" y="1548.703" style="fill:#865428;" width="61.637" height="25.715"/>
									</g>
									<g>
										<rect x="131.07" y="1612.52" style="fill:#5F3413;" width="61.637" height="25.727"/>
										<rect x="131.07" y="1608.398" style="fill:#865428;" width="61.637" height="25.723"/>
									</g>
									<g>
										<polygon style="fill:#77471C;" points="141.988,1677.805 99.766,1677.805 99.766,1504.777 116.504,1479.297 
											125.004,1479.297 141.988,1504.777 										"/>
										<polygon style="fill:#9E6735;" points="147.816,1677.805 105.59,1677.805 105.59,1504.777 122.332,1479.297 
											130.828,1479.297 147.816,1504.777 										"/>
										<path style="fill:#66B2BF;" d="M140.848,1508.414c0,1.926-1.563,3.496-3.492,3.496c-1.934,0-3.492-1.57-3.492-3.496
											c0-1.93,1.559-3.488,3.492-3.488C139.285,1504.926,140.848,1506.484,140.848,1508.414z"/>
										<path style="fill:#66B2BF;" d="M122.941,1508.414c0,1.926-1.57,3.496-3.496,3.496c-1.93,0-3.492-1.57-3.492-3.496
											c0-1.93,1.563-3.488,3.492-3.488C121.371,1504.926,122.941,1506.484,122.941,1508.414z"/>
									</g>
									<g>
										<rect x="41.281" y="1552.828" style="fill:#5F3413;" width="61.637" height="25.723"/>
										<rect x="41.281" y="1548.703" style="fill:#865428;" width="61.637" height="25.715"/>
									</g>
									<g>
										<rect x="41.281" y="1612.52" style="fill:#5F3413;" width="61.637" height="25.727"/>
										<rect x="41.281" y="1608.398" style="fill:#865428;" width="61.637" height="25.723"/>
									</g>
									<g>
										<polygon style="fill:#77471C;" points="52.199,1677.805 9.98,1677.805 9.98,1504.777 26.719,1479.297 35.219,1479.297 
											52.199,1504.777 										"/>
										<polygon style="fill:#9E6735;" points="58.027,1677.805 15.801,1677.805 15.801,1504.777 32.547,1479.297 
											41.039,1479.297 58.027,1504.777 										"/>
										<path style="fill:#66B2BF;" d="M51.059,1508.414c0,1.926-1.563,3.496-3.492,3.496c-1.93,0-3.492-1.57-3.492-3.496
											c0-1.93,1.563-3.488,3.492-3.488C49.496,1504.926,51.059,1506.484,51.059,1508.414z"/>
										<path style="fill:#66B2BF;" d="M33.148,1508.414c0,1.926-1.563,3.496-3.492,3.496c-1.93,0-3.496-1.57-3.496-3.496
											c0-1.93,1.566-3.488,3.496-3.488C31.586,1504.926,33.148,1506.484,33.148,1508.414z"/>
									</g>
								</g>
							</g>
						</g>
					</g>
				</g>
				<path style="fill:#FFFFFF;" d="M383.371,744.176H849.34c0,0,3.016-34.996-34.152-26.66c0,0,2.484-58.328-47.336-20
					c0,0-31.496-26.379-49.824,16.809c0,0-37.742-21.801-63.031,13.188c0,0-5.297-51.086-66.949-43.043
					c0,0,1.668-55.269-73.316-38.605c0,0-79.449-41.465-101.379,47.59C413.352,693.453,346.426,707.519,383.371,744.176z"/>
				<path style="fill:#FFFFFF;" d="M1311.055,497.637h621.875c0,0,4.023-46.707-45.586-35.586c0,0,3.324-77.84-63.172-26.688
					c0,0-42.023-35.203-66.488,22.43c0,0-50.371-29.102-84.117,17.605c0,0-7.074-68.188-89.355-57.449
					c0,0,2.223-73.762-97.852-51.527c0,0-106.023-55.328-135.297,63.52C1351.063,429.941,1261.742,448.707,1311.055,497.637z"/>
				<path style="fill:#FFFFFF;" d="M87.484,330.023h687.527c0,0-13.32-69.637-182.859-48.445c0,0-32.438-96.875-119.152-51.465
					c0,0-148.16-124.133-253.68,43.895C219.32,274.008,103.547,230.113,87.484,330.023z"/>
				<rect y="1661.98" style="fill:#59934D;" width="2121.324" height="467.637"/>
				<polygon style="fill:#497C3B;" points="0,1784.738 2121.324,1715.086 2121.324,1683.945 0,1699.77 				"/>
				<path style="fill:#66A94E;" d="M2121.324,1773.387c0,0-1023.172,20.348-2121.324,66.523v289.707h2121.324V1773.387z"/>
				<path style="opacity:0.6;fill:#7FC469;" d="M0,1876.09c345.215-14.313,1635.125-61.348,2121.324,12.238v-114.941
					c0,0-1023.172,20.348-2121.324,66.523V1876.09z"/>
				<path style="fill:#5B9C43;" d="M0,2066.238l2121.324-48.145v-43.129C1850.738,1956.461,428.902,1912.516,0,1899.496V2066.238z"
					/>
				<path style="opacity:0.5;fill:#497C3B;" d="M1791.773,1815.402c0,33.102-311.34,59.938-695.406,59.938
					c-384.063,0-695.41-26.836-695.41-59.938c0-33.09,311.348-59.926,695.41-59.926
					C1480.434,1755.477,1791.773,1782.313,1791.773,1815.402z"/>
			</g>
		</g>
	</g>
</g>
<g>
	<g>
		<path style="fill:#95B3C1;" d="M995.047,1497.426c0,4.703-40.668,8.516-90.824,8.516c-50.16,0-90.82-3.813-90.82-8.516
			l-26.074-242.918h233.785L995.047,1497.426z"/>
		<path style="opacity:0.2;fill:#446774;" d="M813.402,1497.426c0,4.703,40.66,8.516,90.82,8.516
			c50.156,0,90.824-3.813,90.824-8.516l26.066-242.918h-41.168c-5.008,230.289-132.394,225.539-169.074,219.371L813.402,1497.426z"
			/>
		<path style="opacity:0.2;fill:#446774;" d="M1000.734,1254.508c-2.715,49.859-13.984,188.691-57.047,250.59
			c30.391-1.383,51.359-4.301,51.359-7.672l26.066-242.918H1000.734z"/>
		<path style="fill:#648998;" d="M1021.113,1254.508c0,10.094-52.332,18.27-116.891,18.27c-64.563,0-116.895-8.176-116.895-18.27
			c0-10.086,52.332-18.266,116.895-18.266C968.781,1236.242,1021.113,1244.422,1021.113,1254.508z"/>
		<path style="fill:#5A8288;" d="M1016.563,1254.508c0,8.293-50.293,15.004-112.34,15.004c-62.043,0-112.34-6.711-112.34-15.004
			c0-8.289,50.297-15,112.34-15C966.269,1239.508,1016.563,1246.219,1016.563,1254.508z"/>
		<path style="opacity:0.6;fill:#446774;" d="M806.91,1262.016c19.426,4.488,55.73,7.496,97.313,7.496
			c41.582,0,77.887-3.008,97.305-7.496c-19.418-4.488-55.723-7.508-97.305-7.508C862.641,1254.508,826.336,1257.527,806.91,1262.016
			z"/>
	</g>
	<g>
		<path style="fill:#446774;" d="M906.789,1096.836c-62.625,0-113.574,50.949-113.574,113.57v38.559
			c1.789-1.098,3.816-1.832,5.969-2.094v-36.465c0-59.328,48.277-107.605,107.605-107.605c59.336,0,107.605,48.277,107.605,107.605
			v74.707h5.977v-74.707C1020.371,1147.785,969.418,1096.836,906.789,1096.836z"/>
	</g>
	<path style="fill:#DCE1E3;" d="M1031.305,1295.539c0,11.063-9.391,20.02-16.535,20.02c-7.152,0-12.953-8.957-12.953-20.02
		c0-11.059,5.801-20.02,12.953-20.02C1021.914,1275.52,1031.305,1284.48,1031.305,1295.539z"/>
	<g>
		<path style="fill:#446774;" d="M869.348,1103.18c-44.285,15.512-76.133,57.727-76.133,107.227v38.559
			c1.789-1.098,3.816-1.832,5.969-2.094v-36.465c0-46.727,29.938-86.574,71.637-101.414
			C870.039,1107.215,869.637,1105.309,869.348,1103.18z"/>
		<path style="fill:#AF645A;" d="M949.598,1111.695c1.125-1.637,1.93-3.508,2.332-5.504c4.555,1.98,8.957,4.258,13.176,6.797
			c0.012-2.496-0.387-5.281-1.613-8.043c-3.516-7.879-8.996-14.266-8.996-14.266s-3.078-0.27-3.789,3.117
			c0,0-7.844-23.27-17.789-37.195l0.387-11.844l-31.316-5.141c0,0-22.422,60.375-19.188,83.035c0,0,0.543,8.664,6.652,16.941
			c0,0,0.481,2.035,9.109-1.918c0,0,5.031-0.215,8.988,2.766c3.961,2.98,8.992,1.336,12.945,0c0,0,15.109,5.145,19.785,0.113
			c0,0,7.949,2.867,14.215-0.727c0,0,5.398-10.426,8.996-18.34c0,0,0.324-0.758,0.688-2.039
			C959.547,1116.512,954.676,1113.902,949.598,1111.695z"/>
	</g>
	<path style="fill:#AF645A;" d="M881.605,854.473c0,0,11.305,143.098,20.043,196.465c0,0,5.742,25.086,31.27,5.664
		c0,0,13.242-169.402,6.234-200.543C932.473,826.375,887,843.496,881.605,854.473z"/>
	<g>
		<path style="fill:#AF645A;" d="M1005.926,723.016c0,0-60.699,154.98-82.086,166.629c-19.574,10.676-49.023-8.59-41.832-41.019
			c10.574-47.711,63.449-178.273,63.449-178.273L1005.926,723.016z"/>
		<path style="fill:#BBB48C;" d="M1002.949,564.461c0,0-24.613,0.516-37.516,25.543c-8.504,16.488-42.852,133.461-58.438,167.574
			c0,0,25.293,39.027,69.871,38.078c0,0,42.422-63.383,64.625-102.375C1041.492,693.281,1047.887,605.894,1002.949,564.461z"/>
		<path style="fill:#CCC19E;" d="M910.82,748.672c0,0,20.18,31.438,70.785,38.52c0,0,7.586,3.855-3.215,16.688
			c0,0-10.309,10.785-12.715,27.535c-1.469,10.191-63.43-5.75-77.902-35.422c0,0-4.285-10.117,1.324-13.293
			c7.25-4.121,15.43-16.805,14.297-26.633C903.394,756.066,905.852,749.246,910.82,748.672z"/>
		<g>
			<path style="fill:#C37568;" d="M1263.094,710.258c0,0,62.711,154.969,78.926,166.168c18.344,12.668,48.828-9.633,40.945-41.914
				c-11.594-47.457-67.238-176.867-67.238-176.867L1263.094,710.258z"/>
			<path style="fill:#901924;" d="M1007.527,1027.746l-1.433,650.305c0,0,7.406,9.703,80.324-50.719l25.527-525.449
				L1007.527,1027.746z"/>
			<path style="opacity:0.7;fill:#6F0D1D;" d="M1089.059,1572.914l22.887-471.031l-46.16-44.066
				c-7.652,88.34-3.367,389.406-1.539,420.77c2.004,34.52-35.453,39.91-51.019,39.91c-1.426,0-5.566-1.582-6.777-2.406
				l-0.387,62.531L1089.059,1572.914z"/>
			<path style="fill:none;stroke:#901924;stroke-width:5.0345;stroke-miterlimit:10;" d="M1101.41,1094.574
				c0,0-29.766,442.273-37.164,454.129"/>
			<path style="fill:#8B5435;" d="M1097.488,1575.914c0,0-23.969,110.027-15.492,142.09c8.934,33.766-3.105,67.695-9.883,80.285
				c0,0-23.164,15.898-73.816,0c0,0-16.883-7.313-49.598,0c0,0-66.484,14.848-104.473,0c0,0-9.637-47.766,25.324-63.563
				c25.09-11.328,91.813-24.34,108.699-44.691c16.879-20.348,25.461-107.926,25.461-107.926L1097.488,1575.914z"/>
			<path style="fill:#723D23;" d="M1032.543,1580.203l-28.832,1.906c0,0-1.402,14.285-4.18,32.648
				c14.602,10.762,44.723,26.527,87.551,16.898c3.285-20.52,6.922-38.945,8.906-48.613L1032.543,1580.203z"/>
			<path style="fill:#743F25;" d="M998.297,1798.289c50.652,15.898,73.816,0,73.816,0c4.105-7.605,10.121-23.051,12.266-41.531
				c-12.906,20.523-57.922,13.52-62.891,14.395c-6.109,1.074-24.418-2.547-42.398-5.602c-17.977-3.043-74.832,19.266-122.656,13.148
				c-7.301-0.934-10.195-6.902-11.168-13.77c-4.367,16.828-1.039,33.359-1.039,33.359c37.988,14.848,104.473,0,104.473,0
				C981.414,1790.977,998.297,1798.289,998.297,1798.289z"/>
			<path style="fill:#D47D5A;" d="M1002.453,1593.305c-2.953,24.285-11.059,80.891-24.203,96.73
				c-8.492,10.234-29.574,18.609-51.625,25.84c-15.129,8.387-30.09,17.277-31.477,20.395c-2.871,6.473,80.07-9.832,94.934-20.852
				c14.863-11.035,48.906-106.922,48.906-106.922L1002.453,1593.305z"/>
			<path style="fill:#532815;" d="M1030.84,1602.746c0,0-30.688,92.211-40.758,103.508c-10.07,11.313-72.16,26.422-79.352,24.262
				c-7.191-2.156,58.02-21.805,69.047-37.508c15.582-22.18,25.383-94.938,25.383-94.938L1030.84,1602.746z"/>
			<path style="fill:#AB6849;" d="M1017.074,1540.441c0,0-20.145-0.152-18.68,11.566c1.465,11.723-0.305,37-2.922,46.348
				c-2.621,9.344,39.633,26.816,105.402,6.641c0,0,12.457-9.785,7.621-27.004c0,0,14.727-33.41-3.504-38.293
				C1089.488,1535.555,1048.836,1538.152,1017.074,1540.441z"/>
			<path style="fill:#AB6849;" d="M843.019,1782.492c0,0-6.301,4.199-6.301,7.492c0,3.301,0,18.773,0,18.773
				s43.152,17.824,126.641,0c0,0,22.512-5.625,37.047-0.469c14.543,5.16,61.914,5.16,76.742-2.93c0,0,5.211-7.93,4.824-23.27
				l-1.75-6.391c0,0-43.664,9.293-76.512,3.199c0,0-25.813-6.395-41.293-2.031C948.102,1780.898,901.848,1795.145,843.019,1782.492z
				"/>
			<path style="fill:#89D4E5;" d="M1043.359,1631.215c-0.707,3.887-3.23,6.68-5.641,6.25c-2.406-0.438-3.801-3.945-3.098-7.828
				c0.711-3.891,3.23-6.676,5.641-6.254C1042.68,1623.824,1044.063,1627.332,1043.359,1631.215z"/>
			<path style="fill:#172F34;" d="M1041.648,1630.902c-0.422,2.367-1.961,4.078-3.43,3.809c-1.469-0.266-2.313-2.402-1.887-4.77
				c0.43-2.363,1.961-4.078,3.438-3.809C1041.23,1626.398,1042.082,1628.543,1041.648,1630.902z"/>
			<path style="fill:#89D4E5;" d="M1035.207,1658.109c-0.695,3.883-3.227,6.672-5.641,6.238c-2.41-0.438-3.793-3.934-3.094-7.824
				c0.699-3.883,3.227-6.684,5.641-6.25C1034.527,1650.711,1035.91,1654.215,1035.207,1658.109z"/>
			<path style="fill:#172F34;" d="M1033.5,1657.797c-0.426,2.363-1.965,4.066-3.434,3.801c-1.469-0.258-2.316-2.398-1.887-4.762
				c0.43-2.371,1.961-4.078,3.434-3.809C1033.086,1653.289,1033.93,1655.422,1033.5,1657.797z"/>
			<path style="fill:#89D4E5;" d="M1025.152,1680.395c-0.703,3.887-3.227,6.684-5.641,6.25c-2.406-0.438-3.797-3.938-3.094-7.824
				c0.695-3.895,3.226-6.691,5.641-6.258C1024.465,1673,1025.855,1676.512,1025.152,1680.395z"/>
			<path style="fill:#172F34;" d="M1023.445,1680.09c-0.426,2.363-1.965,4.063-3.434,3.797c-1.469-0.262-2.316-2.395-1.887-4.762
				c0.426-2.371,1.965-4.07,3.434-3.809C1023.027,1675.586,1023.875,1677.715,1023.445,1680.09z"/>
			<path style="fill:#89D4E5;" d="M1013.227,1704.574c-0.945,3.84-3.633,6.469-6.016,5.895c-2.383-0.594-3.551-4.172-2.605-8.012
				c0.945-3.844,3.644-6.469,6.019-5.875C1013.004,1697.156,1014.168,1700.75,1013.227,1704.574z"/>
			<path style="fill:#172F34;" d="M1011.539,1704.16c-0.574,2.332-2.211,3.945-3.664,3.59c-1.445-0.355-2.16-2.539-1.586-4.879
				c0.578-2.332,2.215-3.945,3.672-3.59C1011.41,1699.648,1012.121,1701.832,1011.539,1704.16z"/>
			<path style="fill:#89D4E5;" d="M990.305,1729.383c-3.449,1.922-7.211,1.754-8.41-0.383c-1.195-2.137,0.629-5.441,4.07-7.363
				c3.445-1.93,7.219-1.754,8.41,0.383C995.57,1724.148,993.746,1727.453,990.305,1729.383z"/>
			<path style="fill:#172F34;" d="M989.453,1727.867c-2.102,1.172-4.394,1.07-5.117-0.23c-0.73-1.301,0.375-3.313,2.477-4.492
				c2.102-1.168,4.394-1.063,5.125,0.234C992.664,1724.68,991.551,1726.691,989.453,1727.867z"/>
			<path style="fill:#89D4E5;" d="M958.152,1741.32c-3.809,1.012-7.414-0.09-8.051-2.457c-0.621-2.379,1.957-5.109,5.781-6.129
				c3.816-1.016,7.418,0.086,8.051,2.449C964.563,1737.563,961.98,1740.305,958.152,1741.32z"/>
			<path style="fill:#172F34;" d="M957.715,1739.633c-2.328,0.617-4.523-0.047-4.906-1.492c-0.379-1.449,1.191-3.105,3.516-3.73
				c2.328-0.613,4.523,0.055,4.906,1.5C961.609,1737.352,960.043,1739.027,957.715,1739.633z"/>
			<path style="fill:#89D4E5;" d="M924.051,1746.707c-3.816,1.008-7.426-0.098-8.047-2.465c-0.629-2.363,1.957-5.109,5.769-6.125
				c3.816-1.008,7.426,0.09,8.051,2.461C930.453,1742.941,927.871,1745.695,924.051,1746.707z"/>
			<path style="fill:#172F34;" d="M923.609,1745.027c-2.328,0.617-4.523-0.059-4.902-1.492c-0.387-1.445,1.188-3.117,3.52-3.738
				c2.316-0.621,4.516,0.055,4.898,1.496C927.508,1742.738,925.93,1744.406,923.609,1745.027z"/>
			
				<path style="fill:none;stroke:#855739;stroke-width:3.5961;stroke-linecap:round;stroke-linejoin:round;stroke-miterlimit:10;" d="
				M996.797,1623.34c9.352,4.063,41.238,7.09,41.238,7.09s-15.859,10.422-43.293,2.27"/>
			
				<path style="fill:none;stroke:#855739;stroke-width:3.5961;stroke-linecap:round;stroke-linejoin:round;stroke-miterlimit:10;" d="
				M994.742,1637.5c5.859,10.324,36.098,19.809,36.098,19.809s-24.379-1.836-38.68-14.539"/>
			
				<path style="fill:none;stroke:#855739;stroke-width:3.5961;stroke-linecap:round;stroke-linejoin:round;stroke-miterlimit:10;" d="
				M992.16,1645.164c0,0,11.852,27.645,28.621,34.434c0,0-27.34-1.781-35.492-7.066"/>
			
				<path style="fill:none;stroke:#855739;stroke-width:3.5961;stroke-linecap:round;stroke-linejoin:round;stroke-miterlimit:10;" d="
				M984.109,1676.813c3.379,10.547,24.805,26.703,24.805,26.703s-21.742-3.234-29.875-14.484"/>
			
				<path style="fill:none;stroke:#855739;stroke-width:3.5961;stroke-linecap:round;stroke-linejoin:round;stroke-miterlimit:10;" d="
				M976.66,1690.168c0,0,2.094,26.254,11.473,35.34c0,0-26.176-13.695-28.777-24c0,0-4.492,26.414-2.336,34.051
				c0,0-23.031-14.777-22.074-25.016c0,0-10.641,20.742-12.031,31.141c0,0-6.969-13.801-4.543-23.156"/>
			<path style="fill:#901924;" d="M1220.207,915.305c0,0,32.621,76.531,15.59,177.945c0,0-73.734-29.379-114.012,23.848
				c0,0-14.055,4.211-32.977-21.684c-18.914-25.891-81.269-56.828-81.269-56.828l-0.137-144.957L1220.207,915.305z"/>
			<path style="opacity:0.7;fill:#6F0D1D;" d="M1230.906,945.019L1230.906,945.019c-26.621-65.773-31.227,5.813-35.395,11.016
				c0,0,12.457,88.027,9.219,116.629l31.066,20.586C1245.195,1037.297,1236.918,969.559,1230.906,945.019z"/>
			<path style="fill:#F9F7E1;" d="M1153.566,527.269c0,0,89.199,17.91,109.695,24.383c0,0,13.852,34.469,0,117.582
				c-15.824,94.938-36.52,219.426-35.445,264.738c0,0-139.809,37.328-214.367-15.832c0,0-45.152-330.668-30.266-347.934
				c0,0,51.684-19.676,79.313-27.348C1082.18,537.391,1153.566,527.269,1153.566,527.269z"/>
			<path style="fill:#DDD7B1;" d="M1268.762,622.242c-8.02-18.777-18.547-10.398-31.27,70.508
				c-31.527,200.449-55.512-26.914-55.512-26.914s-5.07,197.949-4.129,277.379c29.473-3.769,49.965-9.242,49.965-9.242
				c-1.074-45.313,19.621-169.801,35.445-264.738C1266.234,651.367,1267.934,635.754,1268.762,622.242z"/>
			<path style="fill:#901924;" d="M1232.438,871.094c0,0-42.965,17.094-45.395-187.426c1.727-22.848,9.617-117.176,23.926-144.445
				l-20.121-4.281c0,0-25.207,63.324-31.813,139.637c-41.133-2.352-116.367-5.055-146.402,4.148c0,0-25.551,248.707-6.492,256.652
				c0,0,133.484,49.785,224.766,9.641C1246.199,938.289,1231.531,880.031,1232.438,871.094z"/>
			<path style="opacity:0.7;fill:#6F0D1D;" d="M1230.906,945.019c15.293-6.73,0.625-64.988,1.531-73.926
				c0,0-42.965,17.094-45.395-187.426c1.418-18.77,7-85.816,16.891-124.262c-41.52,113.152-18.914,268.121-9.004,293.234
				c9.238,23.391,2.66,85.871,0.582,103.395C1207.734,953.559,1219.645,949.981,1230.906,945.019z"/>
			<path style="fill:#AF645A;" d="M1153.566,415.133c0,0-11.133,83.656,4.691,116.008c0,0-17.266,28.605-55.379,43.078
				c0,0-14.988,23.094-22.957,41.074c-7.973,17.98-15.129-36.68-15.129-36.68s-6.152-20.996-6.508-25.309
				c0,0,12.941-23.242,10.273-67.027L1153.566,415.133z"/>
			<path style="fill:#A2554E;" d="M1068.898,495.656c0.117,9.047-0.434,17.082-1.34,24.051c16.719,0.481,53.219-4.652,82.293-37.957
				c-0.59-25.188,1.902-50.844,3.102-61.5c0,0,0-0.008,0-0.023c0.078-0.637,0.145-1.211,0.199-1.742
				c0.004-0.027,0.012-0.059,0.016-0.094c0.035-0.305,0.066-0.598,0.105-0.863c0-0.031,0-0.063,0.012-0.094
				c0.008-0.121,0.027-0.242,0.039-0.359c0.008-0.082,0.02-0.156,0.027-0.242c0.02-0.152,0.039-0.297,0.055-0.43
				c0.012-0.066,0.016-0.133,0.023-0.203c0.016-0.063,0.02-0.141,0.023-0.195c0.016-0.113,0.027-0.207,0.047-0.297
				c0-0.043,0-0.074,0.008-0.102c0.012-0.074,0.02-0.137,0.02-0.188c0.004-0.027,0.012-0.055,0.012-0.082
				c0.008-0.059,0.012-0.09,0.02-0.125c0.008-0.051,0.008-0.078,0.008-0.078l-85.008,71.145
				C1068.957,489.418,1069.027,492.559,1068.898,495.656z"/>
			<g>
				<path style="fill:#C37568;" d="M1177.445,367.512c-7.48-1.797-13.641,2.91-18.422,8.047
					c1.613-25.281-0.633-51.953-12.117-72.156c-30.09-52.926-147.059-37.559-141.867,74.535c0,0,6.441,74.07,44.844,128.043
					c0,0,20.27,5.617,35.84-0.602c0,0,48.023-26.656,60.473-56.754c0,0,1.281-5.922,5.168-22.793
					c1.637,2.477,4.074,4.637,7.43,3.898c7.148-1.566,23.355-20.914,27.543-37.117
					C1186.336,392.613,1190.516,370.652,1177.445,367.512z"/>
				<path style="fill:#A2554E;" d="M1179.965,390.414c0,0,0.711-15.234-5.715-14.285c-6.426,0.957-13.813,7.148-15.715,18.098
					c0,0,5.809,3.84,4.016,8.387c-2.125,5.434-4.891,7.051-6.875,7.082c0,0,1.059,8.961,3.484,8.969
					C1163.355,418.676,1176.387,408.953,1179.965,390.414z"/>
				<g>
					<g>
						<path style="fill:#2E1C1D;" d="M1076.227,368.578c0,0.004,2-2.289,5.875-4.074c1.938-0.918,4.355-1.633,7.016-1.938
							c1.336-0.125,2.715-0.141,4.113-0.023c1.395,0.012,2.793,0.336,4.18,0.5c1.379,0.246,2.734,0.598,4.059,0.902
							c1.289,0.434,2.555,0.863,3.781,1.277c2.379,1.008,4.504,2.07,6.199,3.195c1.766,0.992,3.055,2.09,3.988,2.785
							c0.926,0.711,1.453,1.117,1.453,1.117c0.117,0.094,0.141,0.266,0.047,0.383c-0.078,0.105-0.219,0.137-0.332,0.086
							l-0.023-0.012c0,0-0.598-0.273-1.652-0.75c-1.066-0.438-2.473-1.27-4.344-1.855c-1.805-0.734-3.984-1.293-6.277-1.91
							c-1.168-0.199-2.371-0.406-3.594-0.617c-1.238-0.078-2.477-0.203-3.715-0.23c-1.242,0.094-2.473,0.023-3.672,0.242
							c-1.199,0.152-2.359,0.289-3.469,0.543c-1.141,0.066-2.184,0.414-3.227,0.512c-1.004,0.238-1.996,0.363-2.879,0.594
							c-1.828,0.32-3.277,0.828-4.359,1.063c-1.055,0.293-1.648,0.461-1.648,0.461l-0.082,0.023c-0.746,0.207-1.52-0.227-1.73-0.973
							C1075.809,369.41,1075.934,368.926,1076.227,368.578z"/>
					</g>
				</g>
				<path style="fill:#2E100D;" d="M1033.758,393.16c0,5.156-2.25,9.336-5.02,9.336c-2.766,0-5.016-4.18-5.016-9.336
					c0-5.164,2.25-9.336,5.016-9.336C1031.508,383.824,1033.758,387.996,1033.758,393.16z"/>
				<g>
					<path style="fill:#2E100D;" d="M1035.355,387.449c0,0-0.57-1.16-1.805-2.582c-1.23-1.379-3.184-3.043-5.402-3.227
						c-1.094-0.121-2.152,0.164-3.133,0.457c-0.988,0.289-1.98,0.523-2.836,0.871c-0.906,0.207-1.59,0.617-2.18,0.727
						c-0.559,0.172-0.922,0.234-0.922,0.234l-0.176-0.215c0,0,0.16-0.313,0.516-0.797c0.355-0.484,0.844-1.219,1.672-1.859
						c0.43-0.305,0.891-0.641,1.379-0.992c0.531-0.313,1.176-0.492,1.801-0.754c1.348-0.305,2.902-0.293,4.324,0.16
						c2.941,0.813,4.832,3.113,5.754,4.836c0.953,1.762,1.266,3.039,1.266,3.039L1035.355,387.449z"/>
				</g>
				<g>
					<path style="fill:#2E100D;" d="M1094.012,392.902c0,5.164-2.242,9.348-5.016,9.348c-2.77,0-5.023-4.184-5.023-9.348
						c0-5.164,2.254-9.344,5.023-9.344C1091.77,383.559,1094.012,387.738,1094.012,392.902z"/>
					<g>
						<path style="fill:#2E100D;" d="M1098.387,387.113c0,0-0.57-1.16-1.805-2.582c-1.227-1.379-3.18-3.039-5.402-3.219
							c-1.09-0.121-2.148,0.168-3.129,0.461c-0.988,0.289-1.977,0.523-2.828,0.871c-0.906,0.207-1.594,0.617-2.184,0.727
							c-0.563,0.172-0.922,0.234-0.922,0.234l-0.176-0.215c0,0,0.16-0.313,0.512-0.797c0.359-0.484,0.848-1.215,1.672-1.855
							c0.43-0.309,0.891-0.645,1.379-0.996c0.531-0.313,1.176-0.492,1.801-0.754c1.348-0.305,2.895-0.289,4.32,0.156
							c2.941,0.809,4.832,3.105,5.758,4.832c0.953,1.758,1.266,3.035,1.266,3.035L1098.387,387.113z"/>
					</g>
				</g>
				<g>
					<g>
						<path style="fill:#A2554E;" d="M1047.941,394.27c-0.047,2.645-0.387,5.289-0.875,7.895c-0.457,2.621-1.238,5.168-2.039,7.719
							l-1.469,3.738c-0.441,1.27-1.211,2.406-1.805,3.613c-0.637,1.191-1.23,2.406-2.086,3.484l-2.422,3.293l-0.082,0.117
							l-0.23,0.18c-0.527,0.414-1.168,1.016-1.656,1.59c-0.508,0.59-0.898,1.227-1.145,1.871c-0.191,0.32-0.129,0.645-0.23,0.965
							c-0.145,0.332,0.043,0.637,0.02,0.969l0.012,0.25c-0.031-0.047,0.086,0.281-0.074-0.07l0.074,0.16l0.297,0.629
							c0.188,0.434,0.391,0.859,0.637,1.055c0.379,0.52,0.941,1.133,1.633,1.695c0.648,0.57,1.398,1.063,2.125,1.594
							c0.758,0.48,1.535,0.965,2.359,1.363c0.82,0.398,1.637,0.813,2.547,1.063c-1.902,0.078-3.758-0.492-5.566-1.113
							c-0.895-0.34-1.797-0.711-2.641-1.234c-0.832-0.492-1.703-1.051-2.516-1.957c-0.465-0.426-0.699-0.82-0.934-1.211
							l-0.375-0.586l-0.09-0.148c-0.203-0.453-0.09-0.246-0.148-0.406l-0.105-0.434c-0.098-0.578-0.367-1.176-0.262-1.77
							c0.074-0.578,0.047-1.227,0.266-1.75c0.328-1.117,0.859-2.109,1.492-2.977c0.641-0.891,1.328-1.598,2.246-2.332l-0.313,0.289
							c1.367-2.102,2.98-4.008,4.133-6.281c1.301-2.16,2.387-4.465,3.492-6.777C1044.285,404.078,1046.207,399.262,1047.941,394.27z
							"/>
					</g>
				</g>
				<g>
					<path style="fill:#A2554E;" d="M1039.93,367.586c-0.059-0.043,0.949,1.055,1.996,2.746c1.09,1.684,2.309,4.051,3.113,6.551
						c0.359,1.266,0.82,2.48,0.934,3.711c0.141,1.211,0.461,2.297,0.375,3.277c-0.012,1.914-0.02,3.191-0.02,3.191
						s-0.207-1.246-0.516-3.121c-0.07-0.938-0.574-1.957-0.898-3.066c-0.293-1.125-0.941-2.207-1.465-3.313
						c-1.141-2.18-2.625-4.137-3.844-5.465c-1.219-1.363-2.078-2.004-2.117-2.059L1039.93,367.586z"/>
				</g>
				<path style="fill:#901B23;" d="M1037.609,445.863c0,0,27.75,5.875,54.156-3.805c0,0-6.047,25.535-31.832,24.422
					C1039.809,465.617,1037.609,445.863,1037.609,445.863z"/>
				<path style="fill:#F37472;" d="M1059.934,466.48c15.012,0.645,23.328-7.734,27.66-14.855
					c-21.945-2.418-27.809,10.711-29.078,14.75C1058.98,466.414,1059.445,466.461,1059.934,466.48z"/>
				<g>
					<g>
						<path style="fill:#2E1C1D;" d="M1007.711,371.023c0,0,1.379-1.91,4.258-3.969c1.43-1.031,3.234-2.125,5.375-2.855
							c2.105-0.84,4.508-1.258,6.941-1.539c2.438-0.176,4.922-0.129,7.191,0.289c1.09,0.332,2.172,0.59,3.156,0.957
							c0.957,0.414,1.828,0.867,2.629,1.293c1.605,0.836,2.746,1.828,3.555,2.496c0.805,0.664,1.219,1.098,1.219,1.098
							c0.492,0.512,0.477,1.324-0.035,1.816c-0.305,0.289-0.711,0.402-1.094,0.34l-0.133-0.02c0,0-0.586-0.098-1.531-0.355
							c-0.48-0.105-1.047-0.277-1.672-0.496c-0.613-0.246-1.352-0.395-2.129-0.605c-1.543-0.465-3.293-0.969-5.176-1.469
							c-1.863-0.551-3.875-1.07-5.965-1.332c-2.074-0.09-4.215-0.105-6.168,0.328c-1.965,0.363-3.785,0.941-5.297,1.582
							c-3.051,1.285-4.758,2.789-4.758,2.789c-0.105,0.09-0.266,0.078-0.359-0.027
							C1007.644,371.258,1007.644,371.117,1007.711,371.023z"/>
					</g>
				</g>
				<path style="fill:#FFFFFF;" d="M1090.57,445.641c0.848-2.156,1.195-3.582,1.195-3.582c-23.148,8.488-47.32,5.016-52.938,4.035
					c0.258,2.945,1.086,7.273,3.688,8.191C1046.484,455.695,1068.535,460.547,1090.57,445.641z"/>
				<path style="fill:#A2554E;" d="M1053.82,472.5c0,0,6.402,3.285,18.684,0C1072.504,472.5,1062.641,484.438,1053.82,472.5z"/>
			</g>
			<path style="fill:#901924;" d="M1255.117,1602.746l-19.32-509.496c0,0-46.535-63.273-114.012,23.848
				c0,0,51.617,327.715,57.086,485.648H1255.117z"/>
			<path style="opacity:0.7;fill:#6F0D1D;" d="M1235.797,1093.25c0,0-11.391-15.484-31.066-20.586
				c5.891,157.43,21.367,409.75,18.469,429.66c-2.645,18.133-29.926,20.93-48.871,20.652c1.504,20.52,2.738,40.023,3.625,57.961
				l76.332-25.516L1235.797,1093.25z"/>
			<path style="fill:none;stroke:#901924;stroke-width:5.0345;stroke-miterlimit:10;" d="M1244.547,1555.184
				c-5.395-14.035-25.668-476.578-25.668-476.578s5.035-57.66-7.91-131.902c0,0,11.871-38.996,9.715-70.277"/>
			<path style="fill:#901924;" d="M1038.867,700.16c0,0-14.723-111.813-12.063-146.836l-17.031,5.258
				c0,0-8.668,60.938,7.156,146.977c0,0,2.91,19.313,15.113,14.039C1035.844,717.941,1041.945,712.519,1038.867,700.16z"/>
			<path style="fill:#F9F7E1;" d="M1250,548.082c0,0,24.625,0,38.059,24.738c8.852,16.313,51.68,137.438,67.98,171.211
				c0,0-24.453,39.559-69.043,39.559c0,0-43.539-75.09-66.789-100.977C1220.207,682.613,1205.961,590.469,1250,548.082z"/>
			<path style="fill:#8B5435;" d="M1169.523,1600.945c0,0,12.953,107.301,5.039,124.789c0,0-22.43,19.684-36.684,40.27
				c-4.57,6.609-2.441,17.531-2.441,26.285c0,22.246,96.531,30.902,120.27-1.461c0,0,6.68-25.898,15.734-37.762
				c0,0,0-20.863-12.012-39.559c0,0-2.883-91.109,9.227-128.73L1169.523,1600.945z"/>
			<path style="fill:#743F25;" d="M1255.707,1790.828c0,0,6.68-25.898,15.734-37.762c0,0,0-5.766-1.742-13.934
				c-7.066,0.906-23.223,37.305-23.223,37.305c-28.496,26.648-90.609,19.059-100.684,15.852c-9.793-3.105-9.07-23.18-9.023-24.27
				c-3.063,6.668-1.332,16.355-1.332,24.27C1135.438,1814.535,1231.969,1823.191,1255.707,1790.828z"/>
			<path style="fill:#723D23;" d="M1171.324,1617c12.293,5.66,41.543,15.027,90.418,7.496c1.438-15.254,3.609-29.473,6.914-39.719
				l-99.133,16.168C1169.523,1600.945,1170.285,1607.238,1171.324,1617z"/>
			<path style="fill:#D47D5A;" d="M1225.984,1593.039c0,0-1.078,115.438,0,125.496c1.078,10.07-9.348,29.355-46.387,17.734
				c0,0-14.746-0.832,6.117-20.605c0,0,6.465-92.426,3.23-111.84C1185.715,1584.414,1225.984,1593.039,1225.984,1593.039z"/>
			<path style="fill:#532815;" d="M1177.078,1731.848c0,0,26.613,12.219,42.797-3.961c0,0,2.156-2.508,3.238-7.547
				c1.07-5.043-7.914-116.879-3.598-122.27l-25.539,2.516c0,0-2.152,114.355-6.469,119.027
				C1183.191,1724.297,1175.637,1728.242,1177.078,1731.848z"/>
			<path style="fill:#AB6849;" d="M1179.004,1542.648c0,0-20.566,1.145-18.32,13.008s2.063,37.766,0,47.469
				c-2.063,9.711,42.164,24.809,107.973,0c0,0,12.082-10.789,6.043-28.043c0,0,12.871-35.023-6.043-38.84
				C1252.563,1533.008,1211.254,1538.27,1179.004,1542.648z"/>
			<path style="fill:#AB6849;" d="M1135.141,1786.074c0,0-2.656,4.734-3.73,10.137c-1.078,5.395,1.859,21.582,1.859,21.582
				s20.258,33.98,99.914,12.586c7.008-1.895,14.738-4.324,20.129-9.352c0,0,6.836-5.754,7.914-20.863c0,0,3.82-5.984,16.902-18.695
				c0,0,2.719-34.184-7.105-34.328c-6.195-0.086-16.633,28.215-18.066,36.121c-1.277,7.023-40.332,31.699-103.203,16.902
				C1137.52,1797.285,1139.32,1791.539,1135.141,1786.074z"/>
			<path style="fill:#89D4E5;" d="M1235.336,1628.73c0,3.625-1.695,6.566-3.777,6.566c-2.09,0-3.77-2.941-3.77-6.566
				c0-3.633,1.68-6.574,3.77-6.574C1233.641,1622.156,1235.336,1625.098,1235.336,1628.73z"/>
			<path style="fill:#172F34;" d="M1233.766,1628.73c0,2.117-0.984,3.828-2.207,3.828c-1.219,0-2.211-1.711-2.211-3.828
				c0-2.121,0.992-3.836,2.211-3.836C1232.781,1624.895,1233.766,1626.609,1233.766,1628.73z"/>
			<path style="fill:#89D4E5;" d="M1235.336,1650.66c0,3.629-1.695,6.555-3.777,6.555c-2.09,0-3.77-2.926-3.77-6.555
				c0-3.617,1.68-6.563,3.77-6.563C1233.641,1644.098,1235.336,1647.043,1235.336,1650.66z"/>
			<path style="fill:#172F34;" d="M1233.766,1650.66c0,2.129-0.984,3.844-2.207,3.844c-1.219,0-2.211-1.715-2.211-3.844
				c0-2.117,0.992-3.84,2.211-3.84C1232.781,1646.82,1233.766,1648.543,1233.766,1650.66z"/>
			<path style="fill:#89D4E5;" d="M1236.059,1674.844c0,3.625-1.691,6.563-3.777,6.563s-3.777-2.938-3.777-6.563
				s1.691-6.559,3.777-6.559S1236.059,1671.219,1236.059,1674.844z"/>
			<path style="fill:#172F34;" d="M1234.488,1674.844c0,2.113-0.988,3.844-2.207,3.844c-1.223,0-2.207-1.73-2.207-3.844
				c0-2.121,0.984-3.84,2.207-3.84C1233.5,1671.004,1234.488,1672.723,1234.488,1674.844z"/>
			<path style="fill:#89D4E5;" d="M1236.906,1701.453c0,3.633-1.695,6.559-3.777,6.559c-2.086,0-3.781-2.926-3.781-6.559
				c0-3.617,1.695-6.563,3.781-6.563C1235.211,1694.891,1236.906,1697.836,1236.906,1701.453z"/>
			<path style="fill:#172F34;" d="M1235.336,1701.453c0,2.121-0.988,3.836-2.207,3.836s-2.207-1.715-2.207-3.836
				c0-2.109,0.988-3.836,2.207-3.836S1235.336,1699.344,1235.336,1701.453z"/>
			<path style="fill:#89D4E5;" d="M1186.02,1699.566c0,3.633-1.219,6.566-2.715,6.566c-1.504,0-2.719-2.934-2.719-6.566
				c0-3.621,1.215-6.559,2.719-6.559C1184.801,1693.008,1186.02,1695.945,1186.02,1699.566z"/>
			<path style="fill:#172F34;" d="M1184.891,1699.566c0,2.129-0.707,3.836-1.586,3.836s-1.586-1.707-1.586-3.836
				c0-2.117,0.707-3.848,1.586-3.848S1184.891,1697.449,1184.891,1699.566z"/>
			<path style="fill:#89D4E5;" d="M1186.02,1674.844c0,3.625-1.219,6.563-2.715,6.563c-1.504,0-2.719-2.938-2.719-6.563
				s1.215-6.559,2.719-6.559C1184.801,1668.285,1186.02,1671.219,1186.02,1674.844z"/>
			<path style="fill:#172F34;" d="M1184.891,1674.844c0,2.113-0.707,3.844-1.586,3.844s-1.586-1.73-1.586-3.844
				c0-2.121,0.707-3.84,1.586-3.84S1184.891,1672.723,1184.891,1674.844z"/>
			<path style="fill:#89D4E5;" d="M1186.02,1652.012c0,3.625-1.219,6.57-2.715,6.57c-1.504,0-2.719-2.945-2.719-6.57
				c0-3.629,1.215-6.566,2.719-6.566C1184.801,1645.445,1186.02,1648.383,1186.02,1652.012z"/>
			<path style="fill:#172F34;" d="M1184.891,1652.012c0,2.121-0.707,3.836-1.586,3.836s-1.586-1.715-1.586-3.836
				c0-2.125,0.707-3.84,1.586-3.84S1184.891,1649.887,1184.891,1652.012z"/>
			<path style="fill:#89D4E5;" d="M1187.145,1627.199c0,3.613-1.219,6.559-2.711,6.559c-1.504,0-2.715-2.945-2.715-6.559
				c0-3.625,1.211-6.563,2.715-6.563C1185.926,1620.637,1187.145,1623.574,1187.145,1627.199z"/>
			<path style="fill:#172F34;" d="M1186.02,1627.199c0,2.121-0.711,3.844-1.586,3.844c-0.883,0-1.59-1.723-1.59-3.844
				s0.707-3.844,1.59-3.844C1185.309,1623.355,1186.02,1625.078,1186.02,1627.199z"/>
			
				<path style="fill:none;stroke:#855739;stroke-width:3.5961;stroke-linecap:round;stroke-linejoin:round;stroke-miterlimit:10;" d="
				M1186.02,1627.777c0,0,36.563,18.93,44.055,22.648c0,0-41.688,23.492-45.641,24.984c0,0,17.805,20.309,47.125,26.043"/>
			
				<path style="fill:none;stroke:#855739;stroke-width:3.5961;stroke-linecap:round;stroke-linejoin:round;stroke-miterlimit:10;" d="
				M1230.922,1628.73c0,0-35.484,18.723-46.031,23.281c0,0,40.336,22.168,46.031,23.188c0,0-38.641,21.82-47.617,24.367"/>
			<path style="opacity:0.6;fill:#99583C;" d="M1278.129,1781.469c0,0,0.418-5.25,0.328-11.648
				c-5.008,5.32-13.629,9.043-17.586,10.207c-6.113,1.809-9.359,25.176-9.359,25.176c-62.465,32.461-107.723,9.637-119.773,2.148
				c0.609,5.391,1.531,10.441,1.531,10.441s20.258,33.98,99.914,12.586c7.008-1.895,14.738-4.324,20.129-9.352
				c0,0,6.836-5.754,7.914-20.863C1261.227,1800.164,1265.047,1794.18,1278.129,1781.469z"/>
			<g>
				<path style="fill:#6B9BB1;" d="M1022.918,710.258c4.812,0,8.711-7.199,8.711-16.086c0-8.891-3.898-16.094-8.711-16.094h-4.363
					h-0.457l0.457,32.18H1022.918z"/>
				<path style="fill:#90BDD6;" d="M1027.27,694.172c0,8.887-3.898,16.086-8.715,16.086s-8.715-7.199-8.715-16.086
					c0-8.891,3.898-16.094,8.715-16.094S1027.27,685.281,1027.27,694.172z"/>
				<path style="fill:#74A3BA;" d="M1023.414,694.172c0,6.453-2.383,11.684-5.316,11.684c-2.945,0-5.324-5.231-5.324-11.684
					c0-6.453,2.379-11.688,5.324-11.688C1021.031,682.484,1023.414,687.719,1023.414,694.172z"/>
				<path style="fill:#609DB2;" d="M1015.16,694.172c0-5.551,1.769-10.184,4.129-11.379c-0.387-0.191-0.777-0.309-1.191-0.309
					c-2.945,0-5.324,5.234-5.324,11.688c0,6.453,2.379,11.684,5.324,11.684c0.414,0,0.805-0.117,1.191-0.313
					C1016.93,704.348,1015.16,699.727,1015.16,694.172z"/>
			</g>
			<g>
				<path style="fill:#6B9BB1;" d="M1163.508,710.258c4.813,0,8.715-7.199,8.715-16.086c0-8.891-3.902-16.094-8.715-16.094h-4.363
					h-0.461l0.461,32.18H1163.508z"/>
				<path style="fill:#90BDD6;" d="M1167.863,694.172c0,8.887-3.902,16.086-8.719,16.086c-4.813,0-8.715-7.199-8.715-16.086
					c0-8.891,3.902-16.094,8.715-16.094C1163.961,678.078,1167.863,685.281,1167.863,694.172z"/>
				<path style="fill:#74A3BA;" d="M1164.008,694.172c0,6.453-2.383,11.684-5.324,11.684c-2.938,0-5.32-5.231-5.32-11.684
					c0-6.453,2.383-11.688,5.32-11.688C1161.625,682.484,1164.008,687.719,1164.008,694.172z"/>
				<path style="fill:#609DB2;" d="M1155.75,694.172c0-5.551,1.77-10.184,4.133-11.379c-0.391-0.191-0.789-0.309-1.199-0.309
					c-2.938,0-5.32,5.234-5.32,11.688c0,6.453,2.383,11.684,5.32,11.684c0.41,0,0.809-0.117,1.199-0.313
					C1157.52,704.348,1155.75,699.727,1155.75,694.172z"/>
			</g>
			<path style="fill:#C03B47;" d="M1039.691,705.856c0,0,47.117,4.402,105.137,0c0,0-0.48,31.469-4.313,41.055
				c-3.84,9.594-19.84,41.711-51.785,41.711c-38.836,0-45.551-37.394-45.551-37.394S1038.883,732.043,1039.691,705.856z"/>
			<path style="fill:#901924;" d="M1223.605,869.566c-1.648-0.938-3.453-2.328-5.355-4.34c2.648,23.082-8.859,87.465-8.859,87.465
				l2.477-0.719c0.91-0.273,1.809-0.551,2.707-0.828C1216.133,942.414,1224.555,894.09,1223.605,869.566z"/>
			<path style="fill:#F9F7E1;" d="M1076.742,618.918c0,0,2.398,0,5.754,0c3.359,0,27.875-34.551,36-33.106
				c8.113,1.43,32.898,29.281,43.113,33.106c0,0,6.359-85.043,10.613-87.852c0,0,2.371-4.512-4.359-11.332
				c-6.73-6.809-16.758-17.848-16.758-17.848s-0.996,29.18-6.277,33.055c-5.273,3.875-51.98,36.004-53.063,39.359
				C1090.68,577.656,1076.742,618.918,1076.742,618.918z"/>
			<path style="fill:#F9F7E1;" d="M1076.742,618.918c0,0-16.504-68.086-14.246-76.059c0,0,4.129-16.453,4.598-19.797
				c0,0-23.898,20.832-27.504,26.445c0,0-7.52,37.734-7.961,43.008c-0.438,5.277,4.602,1.922,8.078,0.48
				c3.473-1.438,5.32-5.269,8.234-3.352C1050.852,591.559,1065.234,624.144,1076.742,618.918z"/>
			<path style="fill:#F9F7E1;" d="M1352.023,735.215c0,0-19.504,31.844-69.949,40.016c0,0-7.492,4.012,3.574,16.613
				c0,0,10.535,10.567,13.301,27.25c1.688,10.16,63.289-7.094,77.133-37.074c0,0,4.066-10.195-1.605-13.262
				c-7.344-3.961-15.793-16.469-14.867-26.32C1359.609,742.438,1357.008,735.676,1352.023,735.215z"/>
		</g>
		<path style="fill:#2E1C1D;" d="M1005.617,356.355c0,0-4.688-23.004,6.332-56.297c8.203-24.77,23.531-53.023,90.625-53.023
			c41.801,0,91.582,31.652,74.871,120.476c0,0-11.336-4.355-21.77,12.867c0,0-9.949,9.547-11.867-2.441
			c-1.914-11.984,5.91-54.664-33.246-60.645c-39.152-6-54.047,11.258-76.809,0C1033.754,317.293,1016.066,317.984,1005.617,356.355z
			"/>
		<path style="fill:#C37568;" d="M1325.805,834.512c0,0,10.652,196.773,8.254,229.676c0,0,9.949,19.418,35.469,0
			c0,0,25.664-201.809,13.438-229.676C1370.738,806.664,1331.203,823.547,1325.805,834.512z"/>
		<path style="fill:#1A070D;" d="M1177.445,367.512c10.879-57.844-6.438-91.422-31.375-107.828
			c9.242,28.043,1.977,53.992-21.273,39.145c-30.039-19.184-66.813-1.91-92.441,1.914c-11.082,1.656-12.719-8.887-11.004-21.383
			c-4.313,6.711-7.137,13.836-9.402,20.699c-11.02,33.293-6.332,56.297-6.332,56.297c10.449-38.371,28.137-39.063,28.137-39.063
			c22.762,11.258,37.656-6,76.809,0c39.156,5.98,31.332,48.66,33.246,60.645c1.918,11.988,11.867,2.441,11.867,2.441
			C1166.109,363.156,1177.445,367.512,1177.445,367.512z"/>
	</g>
	<g>
		<path style="fill:#95B3C1;" d="M1427.457,1510.664c0,4.711-40.668,8.52-90.824,8.52c-50.16,0-90.816-3.809-90.816-8.52
			l-26.078-242.91h233.785L1427.457,1510.664z"/>
		<path style="opacity:0.2;fill:#446774;" d="M1245.816,1510.664c0,4.711,40.656,8.52,90.816,8.52
			c50.156,0,90.824-3.809,90.824-8.52l26.066-242.91h-41.168c-5.012,230.297-132.395,225.539-169.07,219.371L1245.816,1510.664z"/>
		<path style="opacity:0.2;fill:#446774;" d="M1433.148,1267.754c-2.711,49.867-13.988,188.691-57.047,250.582
			c30.391-1.371,51.355-4.293,51.355-7.672l26.066-242.91H1433.148z"/>
		<path style="fill:#648998;" d="M1453.523,1267.754c0,10.09-52.332,18.281-116.891,18.281c-64.551,0-116.895-8.192-116.895-18.281
			s52.344-18.266,116.895-18.266C1401.191,1249.488,1453.523,1257.664,1453.523,1267.754z"/>
		<ellipse style="fill:#5A8288;" cx="1336.633" cy="1267.754" rx="112.344" ry="15.012"/>
		<path style="opacity:0.6;fill:#446774;" d="M1239.32,1275.262c19.426,4.484,55.734,7.504,97.313,7.504
			c41.582,0,77.883-3.02,97.305-7.504c-19.422-4.492-55.723-7.508-97.305-7.508
			C1295.055,1267.754,1258.746,1270.77,1239.32,1275.262z"/>
	</g>
	<g>
		<path style="fill:#446774;" d="M1339.203,1110.078c-62.625,0-113.578,50.953-113.578,113.574v38.559
			c1.793-1.098,3.82-1.836,5.973-2.09v-36.469c0-59.336,48.27-107.605,107.605-107.605c59.332,0,107.605,48.27,107.605,107.605
			v74.719h5.973v-74.719C1452.781,1161.031,1401.832,1110.078,1339.203,1110.078z"/>
	</g>
	<path style="fill:#DCE1E3;" d="M1463.715,1308.789c0,11.047-9.387,20.012-16.535,20.012c-7.152,0-12.949-8.965-12.949-20.012
		c0-11.055,5.797-20.02,12.949-20.02C1454.328,1288.77,1463.715,1297.734,1463.715,1308.789z"/>
	<g>
		<path style="fill:#446774;" d="M1301.758,1116.434c-44.285,15.512-76.133,57.715-76.133,107.219v38.559
			c1.793-1.098,3.82-1.836,5.973-2.09v-36.469c0-46.719,29.934-86.578,71.629-101.414
			C1302.449,1120.465,1302.051,1118.543,1301.758,1116.434z"/>
		<path style="fill:#C37568;" d="M1382.012,1124.945c1.121-1.645,1.93-3.504,2.328-5.496c4.555,1.969,8.953,4.246,13.172,6.781
			c0.016-2.48-0.379-5.277-1.605-8.039c-3.52-7.883-8.996-14.262-8.996-14.262s-3.078-0.262-3.797,3.117
			c0,0-7.836-23.273-13.586-34.23l0.379-11.848l-35.508-8.113c0,0-22.418,60.387-19.188,83.035c0,0,0.539,8.672,6.652,16.945
			c0,0,0.477,2.043,9.105-1.918c0,0,5.039-0.207,8.996,2.777c3.949,2.984,8.984,1.328,12.945,0c0,0,15.102,5.133,19.781,0.102
			c0,0,7.949,2.883,14.219-0.723c0,0,5.398-10.43,8.996-18.332c0,0,0.32-0.769,0.68-2.051
			C1391.953,1129.758,1387.086,1127.152,1382.012,1124.945z"/>
	</g>
</g>
</svg>
